<?xml version="1.0" encoding="utf-8"?>
<!-- Generator: Adobe Illustrator 24.0.2, SVG Export Plug-In . SVG Version: 6.00 Build 0)  -->
<svg version="1.1" xmlns="http://www.w3.org/2000/svg" xmlns:xlink="http://www.w3.org/1999/xlink" x="0px" y="0px"
	 viewBox="0 0 3710 3710" style="enable-background:new 0 0 3710 3710;" xml:space="preserve">
<style type="text/css">
	.st0{fill:#FFFFFF;}
	.st1{fill:url(#SVGID_1_);}
	.st2{fill:#91B3FA;}
	.st3{fill:#BDD0FB;}
	.st4{fill:url(#SVGID_2_);}
	.st5{fill:url(#SVGID_3_);}
	.st6{fill:#7D97F4;}
	.st7{fill:url(#SVGID_4_);}
	.st8{opacity:0.2;fill:#FFFFFF;}
	.st9{fill:url(#SVGID_5_);}
	.st10{fill:url(#SVGID_6_);}
	.st11{fill:url(#SVGID_7_);}
	.st12{fill:url(#SVGID_8_);}
	.st13{fill:url(#SVGID_9_);}
	.st14{fill:url(#SVGID_10_);}
	.st15{fill:url(#SVGID_11_);}
	.st16{fill:url(#SVGID_12_);}
	.st17{opacity:0.6;fill:#FFFFFF;}
	.st18{opacity:0.6;}
	.st19{fill:url(#SVGID_13_);}
	.st20{fill:url(#SVGID_14_);}
	.st21{fill:url(#SVGID_15_);}
	.st22{fill:url(#SVGID_16_);}
	.st23{fill:url(#SVGID_17_);}
	.st24{fill:url(#SVGID_18_);}
	.st25{fill:url(#SVGID_19_);}
	.st26{fill:url(#SVGID_20_);}
	.st27{fill:url(#SVGID_21_);}
	.st28{fill:url(#SVGID_22_);}
	.st29{fill:url(#SVGID_23_);}
	.st30{fill:url(#SVGID_24_);}
	.st31{fill:url(#SVGID_25_);}
	.st32{fill:url(#SVGID_26_);}
	.st33{fill:url(#SVGID_27_);}
	.st34{fill:url(#SVGID_28_);}
	.st35{fill:url(#SVGID_29_);}
	.st36{fill:url(#SVGID_30_);}
	.st37{fill:url(#SVGID_31_);}
	.st38{fill:url(#SVGID_32_);}
	.st39{fill:url(#SVGID_33_);}
	.st40{fill:url(#SVGID_34_);}
	.st41{opacity:0.23;fill:#FFFFFF;}
	.st42{fill:url(#SVGID_35_);}
	.st43{fill:url(#SVGID_36_);}
	.st44{fill:url(#SVGID_37_);}
	.st45{fill:url(#SVGID_38_);}
	.st46{fill:url(#SVGID_39_);}
	.st47{fill:url(#SVGID_40_);}
	.st48{fill:url(#SVGID_41_);}
</style>
<g id="Background">
	<g>
		<g>
			<rect class="st0" width="3710" height="3710"/>
		</g>
	</g>
</g>
<g id="Illustration">
	<g>
		<linearGradient id="SVGID_1_" gradientUnits="userSpaceOnUse" x1="3325.501" y1="3735.0215" x2="1221.6555" y2="1122.1775">
			<stop  offset="0" style="stop-color:#DAE3FE"/>
			<stop  offset="1" style="stop-color:#E9EFFD"/>
		</linearGradient>
		<path class="st1" d="M2746.72,2704.61c-48.32,50.87-94.05,83.68-130.17,109.6c-424.65,304.69-927.13,215.88-1033.92,194.19
			c-157.7-32.03-462.52-93.94-682.9-353.1c-333.42-392.09-281.5-1009.82-22.88-1417.6c47.31-74.59,297.19-488.57,805.08-554.96
			c307.37-40.18,665.66,40.86,925.13,258.24C3151.7,1397.27,3112.92,2319.08,2746.72,2704.61z"/>
		<g>
			<g>
				<g>
					<path class="st2" d="M785.73,1171.99c-1.34-0.63-2.26-1.99-2.25-3.54c0.04-5.11,0.18-10.31,0.43-15.44
						c0.1-2.11,1.92-3.71,4.06-3.57c5.2,0.31,3.37,5.37,3.27,19.2c-0.01,2.11-1.76,3.78-3.91,3.73
						C786.76,1172.36,786.22,1172.23,785.73,1171.99z"/>
					<path class="st2" d="M789.36,1105.25c1.74-9.66,3.9-19.37,6.41-28.86c0.54-2.04,2.66-3.23,4.73-2.66
						c5.65,1.58,1.64,4.51-3.5,32.99c-0.37,2.08-2.39,3.43-4.5,3.02C790.36,1109.33,788.99,1107.3,789.36,1105.25z M810.98,1030.9
						c3.72-9.13,7.87-18.28,12.2-26.89c2.32-4.63,9.2-0.93,6.97,3.5c-4.31,8.58-8.32,17.41-11.96,26.35
						c-0.79,1.95-3.05,2.87-5.04,2.05C811.14,1035.08,810.2,1032.83,810.98,1030.9z M847.45,962.65c5.5-8.11,11.4-16.11,17.54-23.77
						c3.17-3.95,9.28,0.88,6.13,4.81c-6.02,7.51-11.8,15.34-17.19,23.29C851.1,971.16,844.63,966.82,847.45,962.65z M897.43,908.83
						c-1.51-1.53-1.5-3.95,0.03-5.41c7.09-6.8,14.56-13.41,22.19-19.65c3.92-3.2,8.94,2.73,5.02,5.93
						c-7.48,6.11-14.79,12.58-21.75,19.25C901.4,910.41,898.94,910.36,897.43,908.83z M957.73,861.01
						c-1.17-1.79-0.66-4.15,1.14-5.27c8.38-5.22,17.08-10.17,25.85-14.71c4.52-2.33,8.22,4.45,3.71,6.79
						c-8.6,4.45-17.12,9.3-25.33,14.42C961.31,863.34,958.9,862.8,957.73,861.01z M1028.82,828.54c-0.88-0.42-1.61-1.15-1.98-2.12
						c-0.78-1.98,0.21-4.18,2.21-4.92c9.32-3.42,18.88-6.51,28.42-9.19c2.05-0.58,4.22,0.6,4.84,2.64c0.62,2.03-0.54,4.15-2.59,4.73
						c-9.35,2.63-18.73,5.66-27.86,9.01C1030.84,829.06,1029.74,828.98,1028.82,828.54z M1104.03,809.35
						c-1.12-0.53-1.98-1.58-2.2-2.87c-0.36-2.09,1.07-4.04,3.18-4.36c9.84-1.47,19.87-2.57,29.82-3.28
						c2.13-0.16,4.02,1.43,4.21,3.54c0.19,2.11-1.38,3.94-3.52,4.09c-9.74,0.69-19.57,1.77-29.22,3.21
						C1105.5,809.81,1104.71,809.68,1104.03,809.35z M1179.65,802.07c0.08-2.11,1.89-3.72,4.03-3.61c9.97,0.55,20.06,1.5,29.99,2.82
						c5.11,0.69,4.18,8.26-0.91,7.58c-9.73-1.3-19.61-2.22-29.38-2.76C1181.24,805.99,1179.56,804.19,1179.65,802.07z
						 M1421.15,905.09c-21.76-19.62-27.01-19.76-23.43-24.31c1.3-1.66,3.74-1.93,5.44-0.62c7.94,6.11,15.73,12.61,23.17,19.32
						C1430.16,902.93,1424.98,908.54,1421.15,905.09z M1257.02,813.49c0.52-2.04,2.62-3.25,4.71-2.71
						c9.68,2.55,19.39,5.5,28.88,8.78c4.87,1.69,2.41,8.9-2.46,7.22c-9.29-3.21-18.81-6.11-28.3-8.61
						C1257.74,817.62,1256.51,815.51,1257.02,813.49z M1358.62,859.27c-25.23-14.84-30.45-13.95-27.9-19.16
						c1.62-3.3,5.65-1.69,5.18-1.71c9.03,4.42,17.98,9.24,26.61,14.31c1.86,1.09,2.49,3.44,1.41,5.25
						C1362.9,859.7,1360.6,860.4,1358.62,859.27z"/>
					<path class="st2" d="M1464.62,951.38c-8.12-10.23-13.38-13.9-9.38-17.23c1.62-1.35,4.07-1.14,5.48,0.5
						c8.83,10.24,13.33,14.41,9.37,17.44C1468.89,953,1465.95,953.05,1464.62,951.38z"/>
				</g>
				<g>
					<path class="st2" d="M1545.6,1237.47c-1.5-0.71-2.45-2.32-2.21-4.02c0.68-4.98,1.26-10.03,1.73-15.02
						c0.2-2.1,2.09-3.62,4.22-3.38c2.13,0.24,3.71,2.12,3.51,4.22c-0.48,5.09-1.07,10.24-1.76,15.33c-0.28,2.09-2.24,3.53-4.36,3.21
						C1546.32,1237.75,1545.95,1237.64,1545.6,1237.47z"/>
					<path class="st2" d="M996.87,1514.69c-9.64-4.89-19.18-10.24-28.37-15.9c-1.83-1.13-2.42-3.49-1.3-5.28
						c3.14-5.03,4.93,0.07,33.13,14.39c1.92,0.97,2.7,3.28,1.75,5.16C1000.41,1516.33,996.4,1514.66,996.87,1514.69z
						 M1043.01,1530.55c1.94-5.6,4.97-0.95,35.37,7.02c2.09,0.54,3.35,2.65,2.83,4.68c-0.52,2.04-2.62,3.26-4.7,2.71
						c-10.4-2.73-20.85-5.93-31.06-9.52C1043.39,1534.72,1042.32,1532.53,1043.01,1530.55z M925.51,1468.14
						c-8.33-6.83-16.49-14.1-24.23-21.61c-1.54-1.49-1.59-3.92-0.1-5.41c4.2-4.21,4.8,1.14,29.23,21.17
						c1.66,1.36,1.91,3.78,0.56,5.39C929.62,1469.3,927.18,1469.5,925.51,1468.14z M1127.07,1554.54c-1.47-0.7-2.41-2.25-2.23-3.92
						c0.23-2.1,2.14-3.59,4.27-3.32c10.49,1.29,21.14,2.14,31.66,2.55c2.15,0.08,3.85,1.86,3.8,3.97c-0.05,2.11-1.82,3.76-3.96,3.67
						c-10.73-0.42-21.61-1.29-32.32-2.6C1127.86,1554.84,1127.45,1554.72,1127.07,1554.54z M1211.03,1555.62
						c-1.19-0.56-2.07-1.7-2.23-3.07c-0.25-2.1,1.28-3.97,3.41-4.18c10.46-1.01,21-2.48,31.33-4.36c2.1-0.38,4.15,0.99,4.58,3.07
						c0.42,2.08-0.93,4.07-3.03,4.46c-10.55,1.92-21.31,3.42-31.98,4.45C1212.37,1556.05,1211.66,1555.91,1211.03,1555.62z
						 M1292.87,1538.51c-0.92-0.44-1.67-1.22-2.03-2.25c-0.71-2.01,0.36-4.17,2.39-4.83c9.95-3.25,19.87-6.95,29.5-11.01
						c1.96-0.82,4.25,0.08,5.13,2.03c0.87,1.95-0.01,4.19-1.97,5.02c-9.82,4.14-19.95,7.92-30.1,11.24
						C1294.79,1539.03,1293.76,1538.93,1292.87,1538.51z M1368.68,1504.16c-0.66-0.31-1.25-0.82-1.66-1.48
						c-1.13-1.82-0.57-4.17,1.25-5.25c8.95-5.31,17.78-11.08,26.25-17.12c1.72-1.23,4.15-0.84,5.43,0.88
						c1.28,1.72,0.92,4.11-0.8,5.34c-8.63,6.17-17.65,12.05-26.79,17.48C1371.2,1504.69,1369.82,1504.7,1368.68,1504.16z
						 M1433.65,1453.39c-4.22-4.32,1.19-4.67,21.74-27.86c3.35-3.78,9.24,1.31,5.89,5.09c-7.01,7.91-14.46,15.62-22.14,22.92
						C1437.61,1454.98,1435.16,1454.93,1433.65,1453.39z M1487.4,1390.65c-5.07-3.31,0.08-4.8,14.89-32
						c2.4-4.41,9.27-0.73,6.86,3.71c-5.05,9.28-10.56,18.45-16.38,27.24C1491.59,1391.38,1489.16,1391.81,1487.4,1390.65z
						 M1525.33,1317.47c-1.82-0.86-2.71-2.96-2.01-4.83c3.66-9.73,6.94-19.69,9.73-29.6c0.57-2.03,2.71-3.18,4.78-2.58
						c2.07,0.61,3.28,2.73,2.71,4.76c-2.86,10.12-6.2,20.28-9.93,30.2c-0.74,1.97-2.97,2.95-4.99,2.18
						C1525.53,1317.56,1525.43,1317.52,1525.33,1317.47z"/>
					<path class="st2" d="M865.88,1407.22c-8.36-10.64-12.65-14.99-8.54-17.84c4.28-2.96,6.1,2.32,14.65,13.22
						c1.32,1.69,1.03,4.09-0.66,5.36C869.64,1409.24,867.2,1408.91,865.88,1407.22z"/>
				</g>
				<g>
					<path class="st2" d="M916.11,1314.39l55.63-2.32c15.17,21.11,33.82,40.04,55.56,55.83c-2.19,53.28-6.12,56.86-0.6,59.22
						l61.74,26.33c1.8,0.77,3.89,0.33,5.18-1.08l36.95-40.42c26.43,4.75,52.97,5.08,78.65,1.39l36.92,41.79
						c1.29,1.46,3.37,1.97,5.18,1.27l61.78-24.09c1.81-0.7,2.94-2.47,2.82-4.39l-3.34-54.88c21.15-14.58,40.03-32.63,55.67-53.78
						l55.59,4.33c1.95,0.15,3.76-0.93,4.51-2.69l25.62-60.4c0.75-1.77,0.27-3.82-1.19-5.13l-41.67-37.14
						c4.35-25.97,4.22-52.12,0.02-77.51c40.03-35.68,45.22-35.29,42.95-40.74c-26.11-59.71-23.96-64.44-30.05-64.18l-55.63,2.32
						c-15.17-21.11-33.82-40.04-55.56-55.83c2.19-53.25,6.12-56.86,0.6-59.22c-61.8-25.1-62.95-29.59-66.93-25.24l-36.95,40.42
						c-26.43-4.75-52.97-5.09-78.66-1.4c-36.47-39.6-36.53-45.23-42.1-43.06c-60.71,24.92-64.96,22.56-64.6,28.48l3.34,54.88
						c-21.15,14.58-40.03,32.63-55.67,53.78c-53.15-3.05-57.76-7.15-60.1-1.64c-24.27,60.21-28.94,61.51-24.43,65.53l41.67,37.14
						c-4.35,25.97-4.22,52.12-0.02,77.51c-39.89,35.56-45.22,35.26-42.95,40.74C912.17,1309.92,910.02,1314.65,916.11,1314.39z"/>
					<g>
						<path class="st3" d="M1105.59,1164.61c5.23-34.95,38.42-58.69,73.98-52.91c35.55,5.79,60.23,38.91,55,73.86
							c-5.23,34.95-38.42,58.69-73.98,52.91l0,0C1125.02,1232.7,1100.36,1199.55,1105.59,1164.61z M1161.44,1232.81l0.03,0.02
							L1161.44,1232.81z M1177.87,1123.03c-28.86-4.69-56.4,14.32-60.75,43.45c-4.3,28.71,15.96,55.93,45.17,60.66
							c29.2,4.74,56.46-14.75,60.76-43.46C1227.35,1154.94,1207.02,1127.76,1177.87,1123.03z"/>
					</g>
					<path class="st3" d="M1101.03,1322.66L1101.03,1322.66c-8.74-4.14-17.12-9.01-24.98-14.51c-2.36-1.65-3.14-4.69-1.98-7.16
						c0.14-0.29,0.31-0.58,0.5-0.85c1.83-2.57,5.47-3.15,8.1-1.31c9.04,6.33,18.83,11.75,29.07,16.12l0,0
						c77.22,32.92,165.81-0.06,200.64-73.54c0.89-1.88,1.74-3.78,2.56-5.71c33.06-77.93-4.97-167.98-84.02-201.71
						c-78.95-33.66-170.19,1.53-203.2,79.25c-19.62,46.27-8.47,79.3-10.72,84.05c-2.43,5.13-10.21,3.87-11.05-1.76
						c-4.6-30.76-0.37-63.18,13.77-93.01c61-128.7,250.64-121.35,306.06,11.72c17.06,40.95,17.03,85.72-0.08,126.06
						c-0.88,2.09-1.81,4.15-2.77,6.19c-17.69,37.32-48.61,66.05-87.73,81.31c-41.25,16.09-86.68,15.27-127.92-2.32
						C1105.18,1324.58,1103.09,1323.64,1101.03,1322.66z"/>
				</g>
			</g>
			<g>
				<path class="st2" d="M1587.79,1084.82c9.28,11.18,20.4,20.96,33.13,28.81l0.29,31.09c0.03,3.45,2.99,2.15,37.13,14.24
					c3.16,1.06,2.84-1.91,21.77-25.52c14.89,1.38,29.66,0.27,43.79-3.08l22.2,21.79c2.47,2.42,3.64-0.6,36.32-16.19
					c0.98-0.49,1.54-1.54,1.39-2.62l-4.05-30.84c11.18-9.28,20.96-20.4,28.81-33.13c29.7-0.9,32.41,1.19,33.49-2.03
					c11.1-35.24,13.63-36.18,10.97-38.22l-24.66-18.93c1.38-14.89,0.27-29.66-3.08-43.79l21.79-22.2c2.42-2.46-0.6-3.63-16.19-36.32
					c-1.48-2.97-3.23-0.67-33.46,2.66c-9.28-11.18-20.4-20.96-33.13-28.81l-0.29-31.09c-0.03-3.45-2.99-2.15-37.13-14.24
					c-3.14-1.05-2.75,1.79-21.77,25.52c-14.89-1.38-29.66-0.27-43.79,3.08l-22.2-21.79c-0.78-0.76-1.96-0.95-2.93-0.46l-33.39,16.65
					c-0.98,0.49-1.54,1.54-1.39,2.62l4.05,30.84c-11.18,9.28-20.96,20.4-28.81,33.13c-29.7,0.9-32.41-1.19-33.49,2.03
					c-11.1,35.23-13.63,36.18-10.97,38.22l24.66,18.93c-1.38,14.89-0.27,29.66,3.08,43.79c-20.37,21.63-23.77,22.08-22.26,25.13
					l16.65,33.39C1555.82,1090.46,1557.71,1088.13,1587.79,1084.82z"/>
				<g>
					<g>
						<path class="st3" d="M1653.79,994.73c1.63-21.46,20.3-37.51,41.76-35.89c21.45,1.62,37.51,20.3,35.89,41.76
							c-1.62,21.41-20.35,37.51-41.76,35.89l0,0C1668.27,1034.86,1652.17,1016.14,1653.79,994.73z M1690.11,1030.7l0.03,0.02
							L1690.11,1030.7z M1665.36,995.6c-1.13,15.03,10.17,28.18,25.19,29.32l0,0c24.13,1.82,38.62-26.65,22.79-45.06
							C1697.58,961.52,1667.2,971.31,1665.36,995.6z"/>
					</g>
					<g>
						<path class="st2" d="M1496.57,1053.79c-1.44-5.02-2.7-10.18-3.75-15.32c-0.43-2.09,0.92-4.14,3.02-4.56
							c5.27-1.07,4.46,4.79,8.17,17.75c0.59,2.05-0.6,4.2-2.65,4.78C1499.31,1057.03,1497.17,1055.86,1496.57,1053.79z"/>
						<path class="st2" d="M1489.02,986.91c0.54-10.26,1.88-20.93,4.14-31.59c1.06-5.02,8.62-3.39,7.57,1.6
							c-5.83,27.64-1.59,34.41-8.05,34.06C1490.53,990.86,1488.91,989.03,1489.02,986.91z M1511.92,911.67
							c-1.91-0.96-2.68-3.28-1.73-5.19c4.74-9.48,10.27-18.66,16.45-27.3c2.98-4.16,9.27,0.33,6.29,4.5
							c-5.94,8.31-11.26,17.14-15.82,26.26C1515.43,913.3,1511.45,911.66,1511.92,911.67z M1562.6,847.73
							c-0.49-0.23-0.94-0.57-1.31-1.01c-1.37-1.64-1.15-4.08,0.48-5.45c8.14-6.81,16.87-13.03,25.95-18.49
							c1.83-1.1,4.21-0.51,5.31,1.32c1.1,1.83,0.51,4.21-1.32,5.31c-8.74,5.25-17.14,11.24-24.97,17.79
							C1565.54,848.21,1563.92,848.36,1562.6,847.73z M1634.48,809.19c-0.96-0.46-1.73-1.3-2.05-2.4c-0.6-2.05,0.57-4.2,2.62-4.8
							c10.17-3,20.66-5.21,31.18-6.57c2.12-0.27,4.06,1.22,4.33,3.34c0.27,2.12-1.22,4.06-3.34,4.33
							c-10.12,1.31-20.21,3.43-29.99,6.32C1636.28,809.69,1635.3,809.59,1634.48,809.19z M1713.59,798.67
							c0.26-2.12,2.2-3.63,4.32-3.36c10.56,1.31,21.06,3.45,31.23,6.37c4.91,1.39,2.8,8.85-2.14,7.44
							c-9.78-2.81-19.88-4.87-30.04-6.13C1714.79,802.71,1713.34,800.75,1713.59,798.67z"/>
						<path class="st2" d="M1805.54,837.19c-11.6-8.18-16.74-9.06-14.07-13.55c1.09-1.84,3.42-2.47,5.3-1.35
							c4.48,2.66,8.93,5.55,13.23,8.58c1.75,1.23,2.16,3.64,0.93,5.39C1809.72,837.97,1807.33,838.43,1805.54,837.19z"/>
					</g>
					<g>
						<path class="st2" d="M1887.5,974.72c-1.65-14.15-4.42-18.52,0.71-19.53c2.1-0.41,4.13,0.96,4.54,3.05
							c1.01,5.12,1.82,10.36,2.43,15.58c0.25,2.12-1.27,4.04-3.39,4.29C1889.67,978.36,1887.74,976.85,1887.5,974.72z"/>
						<path class="st2" d="M1623.89,1185.57c2.08-6.08,6.59,0.25,34.1,5.15c5.03,0.88,3.69,8.52-1.36,7.62
							c-10.29-1.83-20.5-4.48-30.34-7.86C1624.31,1189.81,1623.19,1187.62,1623.89,1185.57z M1703.27,1197.44
							c-0.15-2.13,1.45-3.98,3.58-4.13c28.11-2,33-7.84,34.45-1.56c0.48,2.08-0.82,4.16-2.9,4.64c-10.16,2.33-20.58,3.9-31,4.64
							C1705.27,1201.17,1703.43,1199.57,1703.27,1197.44z M1780.91,1177.21c-2.96-5.72,4.67-4.55,27.3-21.07
							c4.13-3.01,8.7,3.23,4.56,6.25c-8.43,6.15-17.4,11.7-26.65,16.48C1784.23,1179.85,1781.89,1179.11,1780.91,1177.21z
							 M1844.36,1128.07c-4.97-4.12,2.53-6.02,16.88-30.08c2.62-4.39,9.27-0.44,6.65,3.96c-5.34,8.95-11.42,17.56-18.08,25.6
							C1848.44,1129.2,1846,1129.42,1844.36,1128.07z M1880.82,1053.16c7.94-27.02,4.19-33.68,10.6-32.82
							c2.12,0.28,3.61,2.23,3.33,4.34c-1.38,10.37-3.57,20.69-6.5,30.66c-0.6,2.05-2.75,3.22-4.8,2.62
							C1881.39,1057.36,1880.21,1055.22,1880.82,1053.16z"/>
						<path class="st2" d="M1580.49,1167.96c-4.37-2.89-8.68-5.97-12.81-9.18c-1.69-1.31-1.99-3.74-0.68-5.43
							c3.3-4.25,6.48,0.72,17.75,8.15c1.78,1.18,2.27,3.58,1.1,5.36C1584.66,1168.67,1582.24,1169.12,1580.49,1167.96z"/>
					</g>
					<path class="st3" d="M1644.53,1079.78c-3.17-1.86-3.77-5.47-2.23-8.07c1.64-2.76,5.22-3.66,7.95-2.03
						c5.12,3.03,10.61,5.54,16.32,7.45c1.25,0.16,30.61,12.25,64.31-4.5c66.84-33.34,60.05-131.55-10.87-155.26
						c-40.8-13.65-84.84,5.81-102.82,43.76c-18.11,38.22,1.68,58.42-10.6,61.12c-3.13,0.69-6.22-1.28-6.92-4.41
						c-3.73-16.88-2.78-34.51,2.73-50.98c16.72-50.03,71.1-77.27,121.29-60.49c54.01,18.06,81,79.63,56.13,132.12
						c-20.06,42.33-69.62,65.49-116.93,49.66l0,0C1656.48,1086,1650.31,1083.19,1644.53,1079.78z"/>
				</g>
			</g>
		</g>
		<g>
			<linearGradient id="SVGID_2_" gradientUnits="userSpaceOnUse" x1="2033.6083" y1="2497.4595" x2="1692.5165" y2="3356.667">
				<stop  offset="0" style="stop-color:#09005D"/>
				<stop  offset="1" style="stop-color:#1A0F91"/>
			</linearGradient>
			<polygon class="st4" points="1706.12,2558.56 1663.3,2942.61 2160.12,2942.61 2095.41,2558.56 			"/>
			<linearGradient id="SVGID_3_" gradientUnits="userSpaceOnUse" x1="2113.8391" y1="1198.9871" x2="1660.4912" y2="2559.0347">
				<stop  offset="0" style="stop-color:#09005D"/>
				<stop  offset="1" style="stop-color:#1A0F91"/>
			</linearGradient>
			<path class="st5" d="M663.98,1422.02v1056.5c0,86.91,69.26,157.98,156.14,160.22c385.88,9.95,1735.52,34.08,2102.86,28.66
				c63.14-0.93,114.28-51.45,116.1-114.57c7.08-245.44,18.59-835.64-23.98-1109.64c-8.97-57.7-57.67-100.85-116.04-102.72
				c-323.32-10.34-1754.02-43.19-2121.19-34.94C714.55,1306.95,663.98,1358.68,663.98,1422.02z"/>
			<path class="st6" d="M730.27,1416.88v1003.74c0,50.74,40.73,92.09,91.47,92.85l2048.39,25.31c50.3,0.75,91.54-39.72,91.72-90.03
				l3.43-994.78c0.13-35.97-28.52-65.44-64.48-66.32l-2097.17-42.37C763.41,1344.31,730.27,1376.64,730.27,1416.88z"/>
			<path class="st2" d="M788.38,1448.73v942.1c0,47.63,38.78,86.43,87.1,87.15l1950.4,23.75c47.9,0.71,87.16-37.28,87.34-84.5
				l3.26-933.68c0.13-33.76-27.16-61.43-61.4-62.25l-1996.84-39.77C819.93,1380.62,788.38,1410.97,788.38,1448.73z"/>
			<path class="st2" d="M2977.27,2580.21h-0.05l-2247-38.29c-1.74-0.03-3.12-1.46-3.09-3.19c0.03-1.74,1.56-3.2,3.19-3.09
				l2247,38.29c1.74,0.03,3.12,1.46,3.09,3.19C2980.38,2578.84,2978.98,2580.21,2977.27,2580.21z"/>
			<g>
				<path class="st2" d="M1875.94,2626.97c-14.62,0-26.52-11.9-26.52-26.52s11.9-26.52,26.52-26.52s26.52,11.9,26.52,26.52
					S1890.56,2626.97,1875.94,2626.97z M1875.94,2580.21c-11.16,0-20.24,9.08-20.24,20.24s9.08,20.24,20.24,20.24
					s20.24-9.08,20.24-20.24S1887.1,2580.21,1875.94,2580.21z"/>
			</g>
			<linearGradient id="SVGID_4_" gradientUnits="userSpaceOnUse" x1="1530.0021" y1="3378.2312" x2="2056.752" y2="2821.2576">
				<stop  offset="0" style="stop-color:#09005D"/>
				<stop  offset="1" style="stop-color:#1A0F91"/>
			</linearGradient>
			<path class="st7" d="M2267.13,3021.19h-727.12c-19.75,0-34.59-14.06-30.77-29.17l9.33-36.9c2.81-11.1,15.01-19.24,29.51-19.7
				l700.97-21.87c15.15-0.47,28.56,7.57,31.86,19.1l16.82,58.77C2302.11,3006.7,2287.2,3021.19,2267.13,3021.19z"/>
			<path class="st2" d="M1931.43,2946.19c-1.71,0-3.12-1.38-3.14-3.09c-0.02-1.74,1.36-3.16,3.1-3.19l30.04-0.44
				c1.66,0.05,3.16,1.36,3.19,3.09c0.02,1.74-1.36,3.16-3.1,3.19l-30.04,0.44H1931.43z"/>
			<path class="st2" d="M1536.16,3001.62c-0.16,0-0.33-0.01-0.5-0.04c-1.71-0.27-2.88-1.88-2.61-3.59l4.29-26.84
				c2.36-14.79,14.94-25.69,29.93-25.91l318.59-4.66c1.79-0.02,3.16,1.36,3.19,3.1c0.02,1.73-1.36,3.16-3.1,3.19l-318.59,4.66
				c-11.92,0.18-21.94,8.84-23.82,20.62l-4.29,26.84C1539.01,3000.52,1537.68,3001.62,1536.16,3001.62z"/>
		</g>
		<g>
			<path class="st3" d="M1425.83,1451.46l236.62-1.75c32.33-0.24,58.27,24.71,56.91,54.74l-23.14,511.37
				c-1.27,28.02-25.97,50.21-56.13,50.43l-209.7,1.55c-31.24,0.23-56.74-23.12-56.96-52.16l-3.78-511.17
				C1369.43,1475.42,1394.59,1451.69,1425.83,1451.46z"/>
			<path class="st8" d="M1609.27,2169.68l-748.69,8.9c-28.83,0.34-51.56,19.01-50.15,41.19l12.47,196.06
				c1.33,20.92,23.74,37.35,50.94,37.35h736.23c28.17,0,51-17.58,51-39.27v-204.97C1661.06,2187.03,1637.74,2169.34,1609.27,2169.68
				z"/>
			<path class="st3" d="M2533.68,2115.14l-748.69,10.9c-28.83,0.42-51.56,23.26-50.15,50.4l12.47,239.9
				c1.33,25.6,23.74,45.71,50.94,45.71h736.23c28.17,0,51-21.52,51-48.06v-250.8C2585.47,2136.36,2562.15,2114.73,2533.68,2115.14z"
				/>
			<path class="st3" d="M1276.37,1427.74H889.64c-31.24,0-56.57,25.53-56.57,57.02v554.26c0,31.49,25.33,57.02,56.57,57.02h386.74
				c31.24,0,56.57-25.53,56.57-57.02v-554.26C1332.95,1453.26,1307.62,1427.74,1276.37,1427.74z"/>
			<path class="st3" d="M2230.92,1642.59h-386.74c-31.24,0-56.57,13.68-56.57,30.55v297.03c0,16.87,25.33,30.55,56.57,30.55h386.74
				c31.24,0,56.57-13.68,56.57-30.55v-297.03C2287.49,1656.27,2262.17,1642.59,2230.92,1642.59z"/>
			<path class="st3" d="M2875.81,1616.05h-464.49c-37.52,0-67.95,13.68-67.95,30.55v297.03c0,16.87,30.42,30.55,67.95,30.55h464.49
				c37.53,0,67.95-13.68,67.95-30.55v-297.03C2943.76,1629.73,2913.34,1616.05,2875.81,1616.05z"/>
		</g>
		<g>
			<linearGradient id="SVGID_5_" gradientUnits="userSpaceOnUse" x1="2815.3816" y1="413.4645" x2="1686.9872" y2="1902.3181">
				<stop  offset="0" style="stop-color:#4042E2"/>
				<stop  offset="1" style="stop-color:#4F52FF"/>
			</linearGradient>
			<path class="st9" d="M2741.09,1126.79c-152.27-4.28-905.49-29.42-1060.08-34.59c-15.25-0.51-27.76,22.93-27.76,52.02v134.45
				c0,28.73,12.22,52.02,27.29,52.02h1060.14c15.07,0,27.29-23.29,27.29-52.02v-99.86C2767.96,1150.37,2756,1127.21,2741.09,1126.79
				z"/>
			<g>
				
					<linearGradient id="SVGID_6_" gradientUnits="userSpaceOnUse" x1="8372.6064" y1="29.9445" x2="7910.6201" y2="1005.7271" gradientTransform="matrix(-0.9972 0.0747 0.0747 0.9972 9827.8604 24.8171)">
					<stop  offset="0" style="stop-color:#FE7062"/>
					<stop  offset="1" style="stop-color:#FF928E"/>
				</linearGradient>
				<path class="st10" d="M1736.82,1298.25l41.21-21.59c3.2-1.68,7.03-1.67,10.23,0.02l41.15,21.71
					c8.06,4.25,17.49-2.58,15.97-11.56l-7.8-45.87c-0.61-3.57,0.58-7.2,3.18-9.73l33.37-32.42c6.53-6.35,2.95-17.44-6.06-18.76
					l-46.03-6.76c-3.58-0.53-6.67-2.78-8.27-6.03l-20.53-41.75c-4.02-8.18-15.67-8.19-19.72-0.03l-20.65,41.69
					c-1.61,3.24-4.7,5.49-8.29,6l-46.05,6.62c-9.02,1.3-12.64,12.37-6.12,18.74l33.27,32.53c2.59,2.53,3.76,6.17,3.15,9.73
					l-7.93,45.84C1719.33,1295.61,1728.75,1302.48,1736.82,1298.25z"/>
			</g>
			<g>
				
					<linearGradient id="SVGID_7_" gradientUnits="userSpaceOnUse" x1="8208.2295" y1="-47.8762" x2="7746.2437" y2="927.9063" gradientTransform="matrix(-0.9972 0.0747 0.0747 0.9972 9827.8604 24.8171)">
					<stop  offset="0" style="stop-color:#FE7062"/>
					<stop  offset="1" style="stop-color:#FF928E"/>
				</linearGradient>
				<path class="st11" d="M1949.47,1304.32l41.21-21.59c3.21-1.68,7.03-1.67,10.23,0.02l41.15,21.71
					c8.06,4.25,17.49-2.58,15.97-11.56l-7.79-45.87c-0.61-3.57,0.58-7.2,3.18-9.73l33.37-32.42c6.53-6.35,2.95-17.44-6.06-18.76
					l-46.03-6.76c-3.58-0.53-6.67-2.78-8.27-6.03l-20.53-41.75c-4.02-8.18-15.67-8.19-19.72-0.03l-20.65,41.69
					c-1.61,3.24-4.7,5.49-8.29,6l-46.05,6.62c-9.02,1.3-12.64,12.37-6.12,18.74l33.27,32.53c2.59,2.53,3.76,6.17,3.15,9.73
					l-7.93,45.84C1931.99,1301.68,1941.4,1308.54,1949.47,1304.32z"/>
			</g>
			<g>
				
					<linearGradient id="SVGID_8_" gradientUnits="userSpaceOnUse" x1="8040.2168" y1="-127.4165" x2="7578.231" y2="848.3659" gradientTransform="matrix(-0.9972 0.0747 0.0747 0.9972 9827.8604 24.8171)">
					<stop  offset="0" style="stop-color:#FE7062"/>
					<stop  offset="1" style="stop-color:#FF928E"/>
				</linearGradient>
				<path class="st12" d="M2163.98,1305.51l41.21-21.59c3.21-1.68,7.03-1.67,10.23,0.02l41.15,21.71
					c8.06,4.25,17.49-2.58,15.97-11.56l-7.79-45.87c-0.61-3.57,0.58-7.2,3.18-9.73l33.36-32.42c6.53-6.35,2.95-17.44-6.06-18.76
					l-46.03-6.76c-3.58-0.53-6.67-2.78-8.27-6.03l-20.53-41.75c-4.02-8.18-15.67-8.19-19.72-0.03l-20.65,41.69
					c-1.61,3.24-4.7,5.49-8.29,6l-46.05,6.62c-9.02,1.3-12.64,12.37-6.12,18.74l33.27,32.53c2.59,2.53,3.76,6.17,3.15,9.73
					l-7.93,45.84C2146.49,1302.88,2155.91,1309.74,2163.98,1305.51z"/>
			</g>
			<g>
				
					<linearGradient id="SVGID_9_" gradientUnits="userSpaceOnUse" x1="7877.7031" y1="-204.3544" x2="7415.7173" y2="771.428" gradientTransform="matrix(-0.9972 0.0747 0.0747 0.9972 9827.8604 24.8171)">
					<stop  offset="0" style="stop-color:#FE7062"/>
					<stop  offset="1" style="stop-color:#FF928E"/>
				</linearGradient>
				<path class="st13" d="M2372.2,1307.95l41.21-21.59c3.21-1.68,7.03-1.67,10.23,0.02l41.15,21.71
					c8.06,4.25,17.49-2.58,15.97-11.56l-7.8-45.87c-0.61-3.57,0.58-7.2,3.18-9.73l33.37-32.42c6.53-6.35,2.95-17.44-6.06-18.76
					l-46.03-6.76c-3.58-0.53-6.67-2.78-8.27-6.03l-20.53-41.75c-4.02-8.18-15.67-8.19-19.72-0.03l-20.65,41.69
					c-1.61,3.24-4.7,5.49-8.29,6l-46.05,6.62c-9.02,1.3-12.64,12.37-6.12,18.74l33.27,32.53c2.59,2.53,3.76,6.17,3.15,9.73
					l-7.93,45.84C2354.72,1305.32,2364.13,1312.18,2372.2,1307.95z"/>
			</g>
			<g>
				
					<linearGradient id="SVGID_10_" gradientUnits="userSpaceOnUse" x1="7711.1987" y1="-283.1822" x2="7249.2129" y2="692.6002" gradientTransform="matrix(-0.9972 0.0747 0.0747 0.9972 9827.8604 24.8171)">
					<stop  offset="0" style="stop-color:#FE7062"/>
					<stop  offset="1" style="stop-color:#FF928E"/>
				</linearGradient>
				<path class="st14" d="M2584.11,1307.95l41.21-21.59c3.21-1.68,7.03-1.67,10.23,0.02l41.15,21.71
					c8.06,4.25,17.49-2.58,15.97-11.56l-7.79-45.87c-0.61-3.57,0.58-7.2,3.18-9.73l33.36-32.42c6.53-6.35,2.95-17.44-6.06-18.76
					l-46.03-6.76c-3.58-0.53-6.67-2.78-8.27-6.03l-20.53-41.75c-4.02-8.18-15.67-8.19-19.72-0.03l-20.65,41.69
					c-1.61,3.24-4.7,5.49-8.29,6l-46.05,6.62c-9.02,1.3-12.64,12.37-6.12,18.74l33.27,32.53c2.59,2.53,3.76,6.17,3.15,9.73
					l-7.93,45.84C2566.63,1305.32,2576.04,1312.18,2584.11,1307.95z"/>
			</g>
		</g>
		<g>
			
				<linearGradient id="SVGID_11_" gradientUnits="userSpaceOnUse" x1="917.8716" y1="4583.6699" x2="16.3018" y2="6023.272" gradientTransform="matrix(0.9998 0.0173 -0.0173 0.9998 720.4598 -2564.9292)">
				<stop  offset="0" style="stop-color:#4F52FF"/>
				<stop  offset="1" style="stop-color:#4042E2"/>
			</linearGradient>
			<path class="st15" d="M916.51,1928.92l667.07,5.51c36.8,0.3,66.91,29.39,68.48,66.16l41.25,967.53
				c1.23,28.77-21.61,52.85-50.41,53.13l-764.66,7.58c-27.06,0.27-49.08-21.71-48.85-48.77l8.04-973.35
				C837.78,1963.39,873.19,1928.57,916.51,1928.92z"/>
			<path class="st3" d="M990.09,3013.68L990.09,3013.68l-85.55-1.81c-28.79-0.61-52.03-24.54-51.79-53.34l1.07-129.16
				c0.01-1.2,0.99-2.17,2.2-2.16c1.22,0.08,2.17,0.99,2.16,2.2l-1.07,129.16c-0.22,26.43,21.1,48.38,47.52,48.94l85.54,1.81
				c1.2,0.02,2.16,1.02,2.13,2.22C992.28,3012.74,991.29,3013.7,990.09,3013.68z"/>
			<path class="st3" d="M856.3,2791.55c-1.19-0.02-2.15-1-2.14-2.2l0.17-20.92c0.01-1.2,0.99-2.17,2.2-2.16l0.01,0
				c1.2,0.02,2.16,1,2.15,2.2l-0.17,20.92c-0.01,1.2-0.99,2.17-2.2,2.16C856.31,2791.55,856.3,2791.55,856.3,2791.55z"/>
			<g>
				
					<linearGradient id="SVGID_12_" gradientUnits="userSpaceOnUse" x1="1327.848" y1="2192.4365" x2="457.0679" y2="3471.7947" gradientTransform="matrix(0.9995 -0.0307 0.0307 0.9995 -34.7659 156.024)">
					<stop  offset="0" style="stop-color:#FF928E"/>
					<stop  offset="1" style="stop-color:#FEB3B1"/>
				</linearGradient>
				<path class="st16" d="M918.63,1921.1c90.99,13.11,403.93,53.9,663.08,36.16c11.82-0.81,21.99,8.22,22.53,20.06l43.61,971.86
					c0.6,13.33-9.67,24.63-22.99,25.31c-108.98,5.55-557.78,26.76-717.65,8.68c-9.73-1.1-17.05-9.36-17.03-19.15l2.42-1020.4
					C892.63,1929.75,904.91,1919.12,918.63,1921.1z"/>
				<path class="st17" d="M928.18,1946.38c87.57,12.61,388.72,51.87,638.11,34.8c11.37-0.78,21.17,7.91,21.68,19.3l41.96,935.27
					c0.58,12.82-9.3,23.7-22.12,24.36c-104.88,5.34-536.78,25.75-690.62,8.35c-9.36-1.06-16.41-9.01-16.39-18.43l2.33-981.98
					C903.16,1954.71,914.98,1944.48,928.18,1946.38z"/>
				<g class="st18">
					<path class="st0" d="M1553.49,2063.21c6.33,0.05,11.34-2.93,11.13-6.63c-0.21-3.7-5.57-6.81-11.9-6.91l-556.2-8.98
						c-6.33-0.1-8.32,3.89-4.42,8.88c3.9,4.99,12.28,9.11,18.61,9.16L1553.49,2063.21z"/>
				</g>
				<g class="st18">
					<path class="st0" d="M996.21,2078.05c-6.33-0.1-8.32,3.89-4.42,8.88c3.9,4.99,12.28,9.11,18.61,9.16l542.78,4.48
						c6.33,0.05,11.34-2.93,11.13-6.63s-5.57-6.81-11.9-6.91L996.21,2078.05z"/>
				</g>
				<path class="st0" d="M1086.04,2418.34c-0.07,0-0.14,0-0.21,0.01l-75.07,1.09c-10.82,0.16-19.93-7.07-21.18-16.82l-8.12-62.82
					c-0.48-3.74,0.59-7.47,3.02-10.51c2.72-3.4,6.9-5.58,11.47-6.01l0,0c6.32-0.58,15.02-1.54,24.6-2.59
					c20.85-2.28,44.47-4.87,58.38-5.38c0.1,0,0.2-0.01,0.31-0.01c9.95-0.24,18.66,5.62,21.24,14.33
					c4.27,14.39,4.58,41.77,4.54,70.95C1105.01,2410.17,1096.51,2418.09,1086.04,2418.34z M996.52,2329.39
					c-2.93,0.27-5.57,1.63-7.25,3.74c-1.38,1.73-2,3.82-1.73,5.89l8.12,62.82c0.86,6.66,7.32,11.59,15.02,11.48l75.07-1.09
					c0.05,0,0.1,0,0.15,0c7.18-0.17,13-5.36,13.01-11.63c0.04-28.71-0.26-55.61-4.29-69.21c-1.79-6.02-8.42-10.36-15.45-9.94
					c-13.68,0.5-38.22,3.19-57.94,5.35C1011.6,2327.84,1002.87,2328.8,996.52,2329.39L996.52,2329.39z"/>
				<path class="st17" d="M1004.73,2335.51c15.74-1.46,49.93-5.76,66.17-6.36c6.88-0.25,13.03,3.76,14.78,9.7
					c3.42,11.52,3.56,34.65,3.53,56c-0.01,6.39-5.75,11.64-12.92,11.74l-59.99,0.87c-7.38,0.11-13.62-4.77-14.47-11.31l-6.49-50.2
					C994.68,2340.77,998.9,2336.05,1004.73,2335.51z"/>
				<g class="st18">
					<path class="st0" d="M1155.7,2351.4c-6.33,0-10.07,4.98-8.31,11.06l4.39,15.15c1.76,6.08,8.38,10.93,14.71,10.78l367.21-8.86
						c6.33-0.15,11.27-5.45,10.98-11.78l-0.23-4.98c-0.29-6.33-5.71-11.5-12.04-11.5L1155.7,2351.4z"/>
				</g>
				
					<linearGradient id="SVGID_13_" gradientUnits="userSpaceOnUse" x1="5998.9512" y1="-7248.0693" x2="6378.9023" y2="-8167.7261" gradientTransform="matrix(0.9998 -0.0241 0.0241 0.9998 1144.9696 -5643.5879)">
					<stop  offset="0" style="stop-color:#FE7062"/>
					<stop  offset="1" style="stop-color:#FF928E"/>
				</linearGradient>
				<path class="st19" d="M1008.17,2345.31L1008.17,2345.31c5.49-3.4,12.71-1.63,15.99,3.94l15.44,26.18
					c1.55,2.62,5.42,2.36,6.6-0.45l34.75-82.63c1.73-4.12,7.84-2.89,7.88,1.58c0.23,25.01-5.26,72.7-44.25,113.45
					c0,0-22.22-8.03-40.89-46.53C1000.99,2355.29,1002.91,2348.56,1008.17,2345.31z"/>
				<path class="st0" d="M1088.95,2249.75c-0.07,0-0.14,0-0.21,0l-75.07,1.09c-10.82,0.16-19.92-7.07-21.18-16.82l-8.12-62.82
					c-0.48-3.74,0.59-7.47,3.02-10.51c2.72-3.4,6.9-5.58,11.47-6.01l0,0c6.32-0.58,15.02-1.54,24.6-2.59
					c20.85-2.28,44.48-4.87,58.38-5.38c0.1,0,0.2-0.01,0.31-0.01c9.95-0.24,18.66,5.62,21.24,14.33
					c4.27,14.39,4.58,41.77,4.54,70.95C1107.92,2241.57,1099.42,2249.5,1088.95,2249.75z M999.43,2160.8
					c-2.93,0.27-5.57,1.63-7.25,3.74c-1.38,1.73-2,3.82-1.73,5.89l8.12,62.82c0.86,6.66,7.32,11.59,15.02,11.48l75.07-1.09
					c0.05,0,0.1,0,0.15,0c7.18-0.17,13-5.36,13.01-11.63c0.04-28.71-0.26-55.61-4.29-69.21c-1.79-6.02-8.42-10.36-15.45-9.94
					c-13.68,0.5-38.22,3.19-57.94,5.35C1014.51,2159.25,1005.78,2160.21,999.43,2160.8L999.43,2160.8z"/>
				<path class="st17" d="M1007.64,2166.92c15.74-1.46,49.93-5.76,66.17-6.36c6.88-0.25,13.03,3.76,14.78,9.7
					c3.42,11.52,3.56,34.65,3.53,56c-0.01,6.39-5.75,11.64-12.92,11.74l-59.99,0.87c-7.38,0.11-13.62-4.78-14.47-11.31l-6.49-50.2
					C997.59,2172.17,1001.81,2167.46,1007.64,2166.92z"/>
				<g class="st18">
					<path class="st0" d="M1158.61,2182.81c-6.33,0-10.07,4.98-8.31,11.06l4.39,15.15c1.76,6.08,8.38,10.93,14.72,10.78l367.21-8.86
						c6.33-0.15,11.27-5.45,10.98-11.78l-0.23-4.98c-0.29-6.33-5.71-11.5-12.04-11.5L1158.61,2182.81z"/>
				</g>
				
					<linearGradient id="SVGID_14_" gradientUnits="userSpaceOnUse" x1="5945.4531" y1="-7270.1597" x2="6325.4038" y2="-8189.8145" gradientTransform="matrix(0.9998 -0.0241 0.0241 0.9998 1144.9696 -5643.5879)">
					<stop  offset="0" style="stop-color:#FE7062"/>
					<stop  offset="1" style="stop-color:#FF928E"/>
				</linearGradient>
				<path class="st20" d="M1011.08,2176.72L1011.08,2176.72c5.49-3.4,12.71-1.63,15.99,3.94l15.44,26.18
					c1.55,2.62,5.42,2.36,6.6-0.45l34.75-82.63c1.73-4.12,7.84-2.89,7.88,1.58c0.23,25.01-5.26,72.7-44.25,113.45
					c0,0-22.22-8.03-40.89-46.53C1003.9,2186.7,1005.82,2179.97,1011.08,2176.72z"/>
				<path class="st0" d="M1089.92,2579.2c-0.07,0-0.14,0-0.21,0.01l-75.07,1.09c-10.82,0.16-19.93-7.07-21.18-16.82l-8.12-62.81
					c-0.48-3.74,0.59-7.47,3.02-10.51c2.72-3.4,6.9-5.58,11.47-6.01l0,0c6.32-0.58,15.02-1.54,24.6-2.59
					c20.85-2.28,44.47-4.87,58.38-5.38c0.1,0,0.2-0.01,0.31-0.01c9.95-0.24,18.66,5.62,21.24,14.34
					c4.27,14.38,4.58,41.77,4.54,70.95C1108.89,2571.03,1100.39,2578.95,1089.92,2579.2z M1000.4,2490.25
					c-2.93,0.27-5.57,1.63-7.25,3.74c-1.38,1.73-2,3.82-1.73,5.89l8.12,62.81c0.86,6.66,7.32,11.59,15.02,11.48l75.07-1.09
					c0.05,0,0.1,0,0.15,0c7.17-0.17,13-5.36,13.01-11.63c0.04-28.71-0.26-55.61-4.29-69.2c-1.79-6.02-8.42-10.29-15.45-9.94
					c-13.68,0.5-38.22,3.19-57.94,5.35C1015.48,2488.7,1006.74,2489.66,1000.4,2490.25L1000.4,2490.25z"/>
				<path class="st17" d="M1008.61,2496.37c15.74-1.46,49.93-5.76,66.17-6.36c6.88-0.25,13.03,3.76,14.78,9.7
					c3.42,11.52,3.56,34.65,3.53,56c-0.01,6.39-5.76,11.64-12.92,11.74l-59.99,0.87c-7.38,0.11-13.62-4.77-14.47-11.31l-6.49-50.2
					C998.56,2501.63,1002.78,2496.91,1008.61,2496.37z"/>
				<g class="st18">
					<path class="st0" d="M1159.58,2512.26c-6.33,0-10.07,4.98-8.31,11.06l4.39,15.15c1.76,6.08,8.38,10.93,14.71,10.78l367.21-8.86
						c6.33-0.15,11.27-5.45,10.98-11.78l-0.23-4.98c-0.29-6.33-5.71-11.5-12.04-11.5L1159.58,2512.26z"/>
				</g>
				
					<linearGradient id="SVGID_15_" gradientUnits="userSpaceOnUse" x1="6055.7319" y1="-7224.6089" x2="6435.6836" y2="-8144.2666" gradientTransform="matrix(0.9998 -0.0241 0.0241 0.9998 1144.9696 -5643.5879)">
					<stop  offset="0" style="stop-color:#FE7062"/>
					<stop  offset="1" style="stop-color:#FF928E"/>
				</linearGradient>
				<path class="st21" d="M1012.05,2506.17L1012.05,2506.17c5.49-3.4,12.71-1.63,15.99,3.94l15.44,26.18
					c1.55,2.62,5.42,2.36,6.6-0.45l34.75-82.63c1.73-4.12,7.84-2.89,7.88,1.58c0.23,25.01-5.26,72.7-44.25,113.45
					c0,0-22.22-8.03-40.89-46.53C1004.87,2516.15,1006.79,2509.42,1012.05,2506.17z"/>
				<path class="st0" d="M1086.61,2733.83c-0.07,0-0.13,0-0.2,0l-75.07,1.09c-10.82,0.16-19.92-7.07-21.18-16.82l-8.12-62.81
					c-0.48-3.74,0.59-7.47,3.02-10.51c2.72-3.4,6.9-5.58,11.47-6.01l0,0c6.32-0.58,15.01-1.53,24.57-2.58
					c19.82-2.17,44.5-4.87,58.41-5.38c9.87-0.29,18.94,5.52,21.55,14.32c4.27,14.39,4.58,41.77,4.54,70.95
					C1105.59,2725.66,1097.09,2733.58,1086.61,2733.83z M997.1,2644.88c-2.93,0.27-5.57,1.63-7.26,3.74c-1.38,1.73-2,3.82-1.73,5.89
					l8.12,62.81c0.86,6.66,7.32,11.59,15.02,11.48l75.07-1.09c7.07-0.3,13.14-5.33,13.15-11.64c0.04-28.71-0.26-55.6-4.29-69.2
					c-1.79-6.02-8.42-10.21-15.45-9.94c-13.69,0.5-38.24,3.19-57.96,5.35C1012.17,2643.33,1003.44,2644.29,997.1,2644.88
					L997.1,2644.88z"/>
				<path class="st17" d="M1005.31,2651c15.74-1.46,49.93-5.76,66.17-6.36c6.88-0.25,13.03,3.76,14.78,9.7
					c3.42,11.52,3.56,34.65,3.53,56c-0.01,6.39-5.76,11.64-12.92,11.74l-59.99,0.87c-7.38,0.11-13.62-4.77-14.47-11.31l-6.49-50.2
					C995.26,2656.26,999.48,2651.54,1005.31,2651z"/>
				<g class="st18">
					<path class="st0" d="M1156.28,2666.89c-6.33,0-10.07,4.98-8.31,11.06l4.39,15.15c1.76,6.08,8.38,10.93,14.71,10.78l367.21-8.86
						c6.33-0.15,11.27-5.45,10.98-11.78l-0.23-4.98c-0.29-6.33-5.71-11.5-12.04-11.5L1156.28,2666.89z"/>
				</g>
				
					<linearGradient id="SVGID_16_" gradientUnits="userSpaceOnUse" x1="6104.2529" y1="-7204.5522" x2="6484.2017" y2="-8124.2036" gradientTransform="matrix(0.9998 -0.0241 0.0241 0.9998 1144.9696 -5643.5879)">
					<stop  offset="0" style="stop-color:#FE7062"/>
					<stop  offset="1" style="stop-color:#FF928E"/>
				</linearGradient>
				<path class="st22" d="M1008.75,2660.8L1008.75,2660.8c5.49-3.4,12.71-1.63,15.99,3.94l15.44,26.18c1.55,2.62,5.42,2.36,6.6-0.45
					l34.75-82.63c1.73-4.12,7.84-2.89,7.88,1.58c0.23,25.01-5.26,72.7-44.25,113.45c0,0-22.22-8.03-40.89-46.53
					C1001.57,2670.78,1003.49,2664.06,1008.75,2660.8z"/>
				<path class="st0" d="M1081.94,2893.33c-0.07,0-0.14,0-0.21,0.01l-75.07,1.09c-10.82,0.16-19.93-7.07-21.18-16.82l-8.12-62.82
					c-0.48-3.74,0.59-7.47,3.02-10.51c2.72-3.4,6.9-5.59,11.47-6.01l0,0c6.32-0.58,15.02-1.54,24.6-2.59
					c20.85-2.28,44.48-4.87,58.38-5.38c10.2-0.11,18.94,5.52,21.55,14.32c4.27,14.39,4.58,41.77,4.54,70.95
					C1100.91,2885.16,1092.41,2893.08,1081.94,2893.33z M992.42,2804.38c-2.93,0.27-5.57,1.63-7.25,3.74
					c-1.38,1.73-2,3.82-1.73,5.89l8.12,62.82c0.86,6.66,7.32,11.59,15.02,11.48l75.07-1.09c0.05,0,0.1,0,0.15,0
					c7.17-0.17,12.99-5.36,13-11.63c0.04-28.71-0.26-55.61-4.29-69.21c-1.79-6.02-8.42-10.13-15.45-9.94
					c-13.68,0.5-38.22,3.19-57.94,5.35C1007.5,2802.83,998.76,2803.79,992.42,2804.38L992.42,2804.38z"/>
				<path class="st17" d="M1000.63,2810.5c15.74-1.46,49.93-5.76,66.17-6.36c6.88-0.25,13.03,3.76,14.78,9.7
					c3.42,11.52,3.56,34.65,3.53,56c-0.01,6.39-5.76,11.64-12.92,11.74l-59.99,0.87c-7.38,0.11-13.62-4.77-14.47-11.31l-6.49-50.2
					C990.58,2815.75,994.8,2811.04,1000.63,2810.5z"/>
				<g class="st18">
					<path class="st0" d="M1151.6,2826.39c-6.33,0-10.07,4.98-8.31,11.06l4.39,15.15c1.76,6.08,8.38,10.93,14.71,10.78l367.21-8.86
						c6.33-0.15,11.27-5.45,10.98-11.78l-0.23-4.98c-0.29-6.33-5.71-11.5-12.04-11.5L1151.6,2826.39z"/>
				</g>
				
					<linearGradient id="SVGID_17_" gradientUnits="userSpaceOnUse" x1="6153.1953" y1="-7184.3281" x2="6533.1465" y2="-8103.9844" gradientTransform="matrix(0.9998 -0.0241 0.0241 0.9998 1144.9696 -5643.5879)">
					<stop  offset="0" style="stop-color:#FE7062"/>
					<stop  offset="1" style="stop-color:#FF928E"/>
				</linearGradient>
				<path class="st23" d="M1004.06,2820.3L1004.06,2820.3c5.49-3.4,12.71-1.63,15.99,3.94l15.44,26.18c1.55,2.62,5.42,2.36,6.6-0.45
					l34.75-82.63c1.73-4.12,7.84-2.89,7.88,1.58c0.23,25.01-5.26,72.7-44.25,113.45c0,0-22.22-8.03-40.89-46.53
					C996.89,2830.28,998.81,2823.55,1004.06,2820.3z"/>
			</g>
			
				<linearGradient id="SVGID_18_" gradientUnits="userSpaceOnUse" x1="2324.2966" y1="3953.9885" x2="2027.0623" y2="4344.9937" gradientTransform="matrix(0.8781 0.4785 -0.4785 0.8781 1270.4154 -2813.1836)">
				<stop  offset="0" style="stop-color:#09005D"/>
				<stop  offset="1" style="stop-color:#1A0F91"/>
			</linearGradient>
			<path class="st24" d="M1292.51,1800.16c-23.96-16.96-44.91-16.8-59.7-12.57c-13.49,3.86-22.31,16.78-21.15,30.76l5.79,69.48
				l75.63,7.34C1293.08,1895.16,1339.49,1833.42,1292.51,1800.16z M1258.76,1855.89c-10.42-0.09-18.8-8.61-18.72-19.03
				c0.09-10.42,8.61-18.8,19.03-18.72c10.42,0.09,18.8,8.61,18.72,19.03C1277.71,1847.6,1269.19,1855.98,1258.76,1855.89z"/>
			<g>
				<path class="st3" d="M1223.95,1860.36c-1.31-0.49-2.3-1.71-2.42-3.2l-0.92-11.07c-0.17-2.06,1.36-3.87,3.42-4.04
					c2.06-0.18,3.88,1.36,4.05,3.43l0.92,11.07c0.17,2.06-1.36,3.87-3.42,4.04C1225.01,1860.63,1224.46,1860.55,1223.95,1860.36z
					 M1222.15,1838.68c-1.31-0.49-2.3-1.71-2.42-3.2l-0.7-8.4c-1.18-14.23,7.87-27.39,21.54-31.31c9.35-2.68,18.98-2.99,28.6-0.94
					c1.99,0.46,3.32,2.42,2.88,4.45c-0.43,2.02-2.42,3.32-4.45,2.88c-8.41-1.8-16.81-1.52-24.97,0.81
					c-10.24,2.93-17.02,12.8-16.13,23.48l0.7,8.4c0.17,2.06-1.36,3.87-3.42,4.04C1223.2,1838.95,1222.65,1838.87,1222.15,1838.68z"
					/>
			</g>
			
				<linearGradient id="SVGID_19_" gradientUnits="userSpaceOnUse" x1="271.2702" y1="7270.2222" x2="-35.5708" y2="7673.8643" gradientTransform="matrix(1 8.300000e-03 -8.300000e-03 1 1190.2878 -5545.4136)">
				<stop  offset="0" style="stop-color:#09005D"/>
				<stop  offset="1" style="stop-color:#1A0F91"/>
			</linearGradient>
			<path class="st25" d="M1113.78,1931.83l0.29-34.9c0.1-12.05,10.17-21.62,22.2-21.1l240.58,10.23
				c10.68,0.45,19.26,8.96,19.81,19.63l1.73,33.55L1113.78,1931.83z"/>
			<path class="st3" d="M1193.5,1889.8c-1.19-0.02-2.15-1-2.14-2.2c0.01-1.2,0.99-2.17,2.2-2.16l10.35,0.09
				c1.26,0.02,2.17,0.99,2.16,2.2c-0.01,1.2-0.99,2.17-2.2,2.16l-10.35-0.09L1193.5,1889.8z"/>
			<path class="st3" d="M1125.59,1922.66c-1.43-0.54-2.44-1.92-2.43-3.54l0.12-14.12c0.05-5.8,2.35-11.23,6.48-15.3
				c4.13-4.07,9.6-6.28,15.4-6.23l38.05,0.32c2.06,0.02,3.73,1.71,3.72,3.78c-0.02,2.07-1.71,3.73-3.78,3.72l-38.05-0.32
				c-7.83-0.06-14.26,6.26-14.33,14.09l-0.12,14.12c-0.02,2.07-1.71,3.73-3.78,3.72C1126.43,1922.9,1126,1922.81,1125.59,1922.66z"
				/>
			
				<linearGradient id="SVGID_20_" gradientUnits="userSpaceOnUse" x1="232.607" y1="7294.9077" x2="20.7361" y2="7683.9453" gradientTransform="matrix(1 8.300000e-03 -8.300000e-03 1 1190.2878 -5545.4136)">
				<stop  offset="0" style="stop-color:#09005D"/>
				<stop  offset="1" style="stop-color:#1A0F91"/>
			</linearGradient>
			<path class="st26" d="M1038.48,1918.43l420.82,3.46c15.13,0.12,27.98,11.12,30.44,26.05l0.34,2.06
				c2.69,16.35-10,31.19-26.58,31.05l-431.74-3.57c-9.92-0.08-17.76-8.44-17.2-18.34l1.09-19.32
				C1016.33,1927.75,1026.38,1918.33,1038.48,1918.43z"/>
		</g>
		<g>
			<g>
				<g>
					<g>
						<g>
							
								<linearGradient id="SVGID_21_" gradientUnits="userSpaceOnUse" x1="9261.2441" y1="3024.7087" x2="9395.9307" y2="3024.7087" gradientTransform="matrix(-1 0 0 1 12037.9053 0)">
								<stop  offset="0" style="stop-color:#4F52FF"/>
								<stop  offset="1" style="stop-color:#4042E2"/>
							</linearGradient>
							<path class="st27" d="M2645.78,3018.19c23.07,1.99,63.12,5.23,94.69,6.62c18.98,0.84,29.9-1.02,36.19-3.54
								c-0.01,0.71-0.03,1.38-0.06,2c-0.15,3.32-2.85,5.98-6.2,6.17c-59.65,3.33-107.09,1.15-123.98,0.12
								c-3.49-0.21-5.57-4.01-3.79-6.99C2643.52,3021.1,2644.6,3019.64,2645.78,3018.19z"/>
							
								<linearGradient id="SVGID_22_" gradientUnits="userSpaceOnUse" x1="9261.2363" y1="2998.3125" x2="9392.127" y2="2998.3125" gradientTransform="matrix(-1 0 0 1 12037.9053 0)">
								<stop  offset="0" style="stop-color:#09005D"/>
								<stop  offset="1" style="stop-color:#1A0F91"/>
							</linearGradient>
							<path class="st28" d="M2740.47,3024.82c-31.57-1.39-71.61-4.63-94.69-6.62c22.69-27.83,94.69-46.59,94.69-46.59h20.34
								c13.99,20.16,16.01,39.36,15.86,49.67C2770.37,3023.79,2759.44,3025.65,2740.47,3024.82z"/>
							
								<linearGradient id="SVGID_23_" gradientUnits="userSpaceOnUse" x1="9273.6787" y1="2961.4587" x2="9311.6172" y2="2961.4587" gradientTransform="matrix(-1 0 0 1 12037.9053 0)">
								<stop  offset="0" style="stop-color:#FEBBBA"/>
								<stop  offset="1" style="stop-color:#FF928E"/>
							</linearGradient>
							<path class="st29" d="M2764.23,2938.4l-1.9,37.66c-0.21,4.08-3.26,7.5-7.34,8.09c-4.06,0.58-9.51,0.66-15.28-1.27
								c-3.55-1.18-6.19-4.17-6.84-7.82l-6.58-36.66H2764.23z"/>
						</g>
						<g>
							<g>
								
									<linearGradient id="SVGID_24_" gradientUnits="userSpaceOnUse" x1="8992.7373" y1="3021.804" x2="9044.3506" y2="3021.804" gradientTransform="matrix(-1 0 0 1 12037.9053 0)">
									<stop  offset="0" style="stop-color:#4F52FF"/>
									<stop  offset="1" style="stop-color:#4042E2"/>
								</linearGradient>
								<path class="st30" d="M3028.36,3024.53c10.01-1.4,14.53-6.59,16.43-12.15c0.01,0.05,0.03,0.1,0.04,0.15
									c1.47,5.86-1.94,11.94-8.76,14.83c-8.25,3.49-17.26,4.09-24.26,3.8c-7.51-0.31-14.4-3.42-18.19-8.39l-0.06-0.07
									C3001.09,3026.42,3011.67,3026.86,3028.36,3024.53z"/>
								
									<linearGradient id="SVGID_25_" gradientUnits="userSpaceOnUse" x1="8993.1133" y1="2982.0632" x2="9068.8721" y2="2982.0632" gradientTransform="matrix(-1 0 0 1 12037.9053 0)">
									<stop  offset="0" style="stop-color:#09005D"/>
									<stop  offset="1" style="stop-color:#1A0F91"/>
								</linearGradient>
								<path class="st31" d="M2981.18,2938.16h16.77c25.55-0.52,41.59,53.36,46.84,74.22c-1.9,5.56-6.43,10.75-16.43,12.15
									c-16.69,2.33-27.27,1.89-34.81-1.84c-13.8-18.16-20.64-44.76-23.93-60.28C2965.88,2944.76,2981.18,2938.16,2981.18,2938.16z
									"/>
							</g>
							
								<linearGradient id="SVGID_26_" gradientUnits="userSpaceOnUse" x1="9032.4912" y1="2929.832" x2="9077.8311" y2="2929.832" gradientTransform="matrix(-1 0 0 1 12037.9053 0)">
								<stop  offset="0" style="stop-color:#FEBBBA"/>
								<stop  offset="1" style="stop-color:#FF928E"/>
							</linearGradient>
							<path class="st32" d="M2995.8,2903.21l9.31,37.04c1.14,4.54-1.03,9.24-5.23,11.39c-5.21,2.67-12.54,5.48-19.28,4.67
								c-3.17-0.38-5.8-2.62-6.85-5.6l-13.67-38.97L2995.8,2903.21z"/>
						</g>
						<linearGradient id="SVGID_27_" gradientUnits="userSpaceOnUse" x1="3090.2158" y1="1636.9081" x2="2852.6028" y2="2576.0422">
							<stop  offset="0" style="stop-color:#4F52FF"/>
							<stop  offset="1" style="stop-color:#4042E2"/>
						</linearGradient>
						<path class="st33" d="M3006.91,2913.92c-11.59,10.28-49.27,11.63-49.27,11.63c-135.75-325.81-191.28-372.1-191.28-372.1
							c19.6,122.98,3.16,395.23,3.16,395.23c-22.4,9.89-51.28,0-51.28,0c-1.82-201.33-32.76-376.91-69.32-515.33
							c91.75-2.06,140.54-33.46,156.47-46.06C2881.87,2510.6,3006.91,2913.92,3006.91,2913.92z"/>
						<linearGradient id="SVGID_28_" gradientUnits="userSpaceOnUse" x1="2785.1567" y1="2064.6353" x2="2383.6184" y2="2703.6416">
							<stop  offset="0" style="stop-color:#FE7062"/>
							<stop  offset="1" style="stop-color:#FF928E"/>
						</linearGradient>
						<path class="st34" d="M2782.09,2012.61c17.37,86.62,11.14,241.66,7.05,312.38c-1.15,19.88,12.73,47.43,23.94,66.23
							c1.76,2.95,0.67,6.72-2.38,8.29c-18.78,9.65-82.39,39.56-156.11,43.28c-4.92,0.25-9.3-3.1-10.58-7.85
							c-54.69-204.19-118.21-334.68-118.21-334.68C2595.93,1988.28,2782.09,2012.61,2782.09,2012.61z"/>
						<path class="st2" d="M2757.09,2545.74c0.77,0,1.55-0.21,2.26-0.64c2.05-1.25,2.7-3.92,1.45-5.97
							c-0.73-1.2-18.29-29.58-53.82-46.73c-2.16-1.04-4.76-0.14-5.81,2.03c-1.04,2.16-0.14,4.76,2.03,5.8
							c33.13,15.99,50.01,43.15,50.18,43.42C2754.2,2545,2755.63,2545.74,2757.09,2545.74z"/>
						<g>
							
								<linearGradient id="SVGID_29_" gradientUnits="userSpaceOnUse" x1="9240.2139" y1="2268.9448" x2="9078.8125" y2="2411.8691" gradientTransform="matrix(-1 0 0 1 12037.9053 0)">
								<stop  offset="0" style="stop-color:#FEBBBA"/>
								<stop  offset="1" style="stop-color:#FF928E"/>
							</linearGradient>
							<path class="st35" d="M2891.02,2261.22c-5.58,40.35-22.06,84.37-55.03,131.12l-12.53-10.22c0,0,14.47-58.7,6.24-125.32
								C2850.03,2252.84,2874.05,2256.93,2891.02,2261.22z"/>
							
								<linearGradient id="SVGID_30_" gradientUnits="userSpaceOnUse" x1="2854.5637" y1="2108.2488" x2="2453.0261" y2="2747.2542">
								<stop  offset="0" style="stop-color:#FE7062"/>
								<stop  offset="1" style="stop-color:#FF928E"/>
							</linearGradient>
							<path class="st36" d="M2762.69,2119.49l19.4-106.88c0,0,129.6,99.06,108.93,248.61c-16.96-4.29-40.98-8.38-61.32-4.41
								C2823.77,2208.82,2806.07,2156.72,2762.69,2119.49z"/>
						</g>
						<g>
							
								<linearGradient id="SVGID_31_" gradientUnits="userSpaceOnUse" x1="2663.8137" y1="1988.3855" x2="2262.2759" y2="2627.3914">
								<stop  offset="0" style="stop-color:#FE7062"/>
								<stop  offset="1" style="stop-color:#FF928E"/>
							</linearGradient>
							<path class="st37" d="M2525.8,2100.26l50.02,107.74c-8.09,65.04-43.03,93.17-80.7,103.96c-2.35-29.64-9.85-53.59-16.8-70.16
								C2526.46,2192.1,2525.8,2100.26,2525.8,2100.26z"/>
							
								<linearGradient id="SVGID_32_" gradientUnits="userSpaceOnUse" x1="9542.7813" y1="2282.4639" x2="9669.8926" y2="2282.4639" gradientTransform="matrix(-1 0 0 1 12037.9053 0)">
								<stop  offset="0" style="stop-color:#FEBBBA"/>
								<stop  offset="1" style="stop-color:#FF928E"/>
							</linearGradient>
							<path class="st38" d="M2478.32,2241.8c6.96,16.57,14.45,40.52,16.8,70.16c-100.52,39-127.11-36.64-127.11-36.64l18.58-3.28
								C2428.54,2276.47,2457.84,2262.94,2478.32,2241.8z"/>
						</g>
						
							<linearGradient id="SVGID_33_" gradientUnits="userSpaceOnUse" x1="9419.2266" y1="1942.7773" x2="9417.8379" y2="2180.1475" gradientTransform="matrix(-1 0 0 1 12037.9053 0)">
							<stop  offset="0" style="stop-color:#FEBBBA"/>
							<stop  offset="1" style="stop-color:#FF928E"/>
						</linearGradient>
						<path class="st39" d="M2571.89,1967.26l24.15,88.78c2.71,9.97,13.5,15.33,23.1,11.49c10.36-4.14,23.5-9.79,34.81-15.9
							c12.07-6.52,15.85-22.05,8.21-33.45l-50.21-74.87L2571.89,1967.26z"/>
					</g>
					
						<linearGradient id="SVGID_34_" gradientUnits="userSpaceOnUse" x1="9065.9229" y1="2375.5779" x2="9731.5469" y2="2375.5779" gradientTransform="matrix(-1 0 0 1 12037.9053 0)">
						<stop  offset="0" style="stop-color:#09005D"/>
						<stop  offset="1" style="stop-color:#1A0F91"/>
					</linearGradient>
					<path class="st40" d="M2321.94,2215.91l618.84,225.23c25.96,9.45,38.36,39,26.93,64.14l-1.88,4.13
						c-10.12,22.25-36.41,32-58.59,21.74l-600.89-277.98L2321.94,2215.91z"/>
					<ellipse class="st41" cx="2037.5" cy="2080.43" rx="305.49" ry="299.98"/>
					
						<linearGradient id="SVGID_35_" gradientUnits="userSpaceOnUse" x1="9660.4795" y1="2080.428" x2="10340.3379" y2="2080.428" gradientTransform="matrix(-1 0 0 1 12037.9053 0)">
						<stop  offset="0" style="stop-color:#09005D"/>
						<stop  offset="1" style="stop-color:#1A0F91"/>
					</linearGradient>
					<path class="st42" d="M1697.57,2080.43c0,184.35,152.19,333.8,339.93,333.8c187.74,0,339.93-149.45,339.93-333.8
						c0-184.35-152.19-333.8-339.93-333.8C1849.76,1746.63,1697.57,1896.08,1697.57,2080.43z M1747.5,2080.43
						c0-157.27,129.83-284.76,289.99-284.76s290,127.49,290,284.76c0,157.27-129.84,284.76-290,284.76S1747.5,2237.7,1747.5,2080.43
						z"/>
					<g>
						<path class="st3" d="M2351.58,2120.93c-0.06,0-0.12,0-0.19-0.01c-0.79-0.1-1.35-0.82-1.25-1.61c1-7.79,1.7-15.75,2.09-23.65
							c0.04-0.79,0.74-1.41,1.51-1.37c0.8,0.04,1.41,0.72,1.37,1.51c-0.39,7.97-1.1,16-2.11,23.87
							C2352.91,2120.4,2352.29,2120.93,2351.58,2120.93z M2349.25,2027.6c-0.68,0-1.29-0.49-1.41-1.18
							c-3.8-21.21-9.9-42.07-18.11-62c-48.43-117.48-163.13-193.39-292.22-193.39c-60.2,0-118.72,16.72-169.23,48.36
							c-0.67,0.42-1.56,0.22-1.98-0.46c-0.42-0.67-0.22-1.56,0.46-1.98c50.97-31.92,110.02-48.8,170.76-48.8
							c130.26,0,246.01,76.61,294.88,195.17c8.3,20.12,14.45,41.18,18.29,62.59c0.14,0.78-0.38,1.53-1.16,1.67
							C2349.42,2027.59,2349.33,2027.6,2349.25,2027.6z"/>
					</g>
					
						<linearGradient id="SVGID_36_" gradientUnits="userSpaceOnUse" x1="9303.9531" y1="2340.9219" x2="9142.5498" y2="2483.8481" gradientTransform="matrix(-1 0 0 1 12037.9053 0)">
						<stop  offset="0" style="stop-color:#FEBBBA"/>
						<stop  offset="1" style="stop-color:#FF928E"/>
					</linearGradient>
					<path class="st43" d="M2828.62,2380.35l-58.5-4.77l-25.34,23.35c0,0,5.99,8.29,24.73,3.52c18.74-4.76,44.41-5.93,44.41-5.93
						s25.87,11.66,26.19-10.16L2828.62,2380.35z"/>
					
						<linearGradient id="SVGID_37_" gradientUnits="userSpaceOnUse" x1="9656.3887" y1="2267.5354" x2="9701.9082" y2="2267.5354" gradientTransform="matrix(-1 0 0 1 12037.9053 0)">
						<stop  offset="0" style="stop-color:#FEBBBA"/>
						<stop  offset="1" style="stop-color:#FF928E"/>
					</linearGradient>
					<path class="st44" d="M2375.46,2289.16c-5.06,3.95-22.39-4.3-33-10c-5.17-2.78-7.67-8.83-5.9-14.42
						c2.55-8.05,6.81-18.44,12.05-19.75C2357.31,2242.81,2396.31,2272.87,2375.46,2289.16z"/>
					<path class="st3" d="M2928.58,2521.66c-0.6,0-1.16-0.37-1.36-0.97c-0.26-0.75,0.14-1.57,0.89-1.83
						c17.82-6.16,27.16-16.19,27.75-29.79c0.6-13.77-8.1-26.56-21.64-31.84l-74.31-28.97c-0.74-0.29-1.11-1.12-0.82-1.86
						c0.29-0.74,1.12-1.11,1.86-0.82l74.31,28.97c14.69,5.73,24.12,19.65,23.47,34.65c-0.65,14.9-10.63,25.8-29.69,32.39
						C2928.89,2521.64,2928.73,2521.66,2928.58,2521.66z"/>
					<path class="st3" d="M2837.54,2419.42c-0.17,0-0.35-0.03-0.52-0.1l-9.63-3.76c-0.74-0.29-1.11-1.12-0.82-1.86
						c0.29-0.74,1.12-1.11,1.86-0.82l9.63,3.76c0.74,0.29,1.11,1.12,0.82,1.86C2838.66,2419.07,2838.12,2419.42,2837.54,2419.42z"/>
					<g>
						
							<linearGradient id="SVGID_38_" gradientUnits="userSpaceOnUse" x1="7142.4199" y1="1920.5172" x2="7028.145" y2="2007.955" gradientTransform="matrix(-1 0 0 1 9704.9053 0)">
							<stop  offset="0" style="stop-color:#FEBBBA"/>
							<stop  offset="1" style="stop-color:#FF928E"/>
						</linearGradient>
						<path class="st45" d="M2566.68,1880.1c0,0-19.99,45.92-21.33,70.02c-1.34,24.1-6.54,39.74,21.33,44.59
							c27.87,4.85,51.34-9.03,64.06-33.04c0,0,19.93-36.99,15.46-52.14C2641.73,1894.38,2566.68,1880.1,2566.68,1880.1z"/>
						
							<linearGradient id="SVGID_39_" gradientUnits="userSpaceOnUse" x1="7062.1372" y1="1851.4946" x2="7165.6147" y2="1984.7216" gradientTransform="matrix(-1 0 0 1 9704.9053 0)">
							<stop  offset="0" style="stop-color:#09005D"/>
							<stop  offset="1" style="stop-color:#1A0F91"/>
						</linearGradient>
						<path class="st46" d="M2621.21,1944.42h-3.52c0,0,14.52-29.77,1.76-35.01c-12.75-5.23-63.28-15.53-74.18-33.46
							c-10.51-17.28-1.14-39.61,12.88-45.85c0.89-0.4,1.93,0.02,2.39,0.88l1.16,2.2c0.8,1.51,3.02,1.28,3.49-0.36l0,0
							c0.45-1.55,2.54-1.89,3.39-0.52c3.34,5.36,12.37,14.08,36.6,18.55c34.39,6.35,57.12,20.26,57.68,44.03
							c0.04,1.51,1.64,2.34,2.93,1.55c2.54-1.55,6.6-2.27,12.03,2.29c9.44,7.94,5.58,28.53-15.12,45.47
							c-0.98,0.81-0.98,2.34,0.09,3.03c3.75,2.44,9.34,8.25-5.15,16c-14.83,7.93-23.6,7.06-26.91,6.21
							c-0.89-0.23-1.49-1.04-1.43-1.96l1.3-21.06c0.07-1.09-0.8-2.01-1.89-2.01H2621.21z"/>
						
							<linearGradient id="SVGID_40_" gradientUnits="userSpaceOnUse" x1="7128.2451" y1="1901.9924" x2="7013.9712" y2="1989.4292" gradientTransform="matrix(-1 0 0 1 9704.9053 0)">
							<stop  offset="0" style="stop-color:#FEBBBA"/>
							<stop  offset="1" style="stop-color:#FF928E"/>
						</linearGradient>
						<path class="st47" d="M2620.35,1948.82c0,0,7.63-29.33,20.78-21.11c13.15,8.22-6.82,32.87-17.4,33.96L2620.35,1948.82z"/>
					</g>
				</g>
			</g>
		</g>
		<linearGradient id="SVGID_41_" gradientUnits="userSpaceOnUse" x1="1885.814" y1="2276.3125" x2="2473.01" y2="1132.1417">
			<stop  offset="0" style="stop-color:#FE7062"/>
			<stop  offset="1" style="stop-color:#FF928E"/>
		</linearGradient>
		<path class="st48" d="M1874.21,1970.36c51.47,50.58,95.96,103.14,134.77,157.31c57.82-131.84,119.46-254.33,186.18-364.36
			l163.61-54.53c-112.71,146.97-232.86,365.97-335.58,585.62c-74.27-104.67-148.48-209.13-202-246.2L1874.21,1970.36z"/>
	</g>
</g>
</svg>
