<?xml version="1.0" encoding="utf-8"?>
<!-- Generator: Adobe Illustrator 24.0.2, SVG Export Plug-In . SVG Version: 6.00 Build 0)  -->
<svg version="1.1" xmlns="http://www.w3.org/2000/svg" xmlns:xlink="http://www.w3.org/1999/xlink" x="0px" y="0px"
	 viewBox="0 0 3710 3710" style="enable-background:new 0 0 3710 3710;" xml:space="preserve">
<style type="text/css">
	.st0{fill:#FFFFFF;}
	.st1{fill:url(#SVGID_1_);}
	.st2{fill:#7D97F4;}
	.st3{opacity:0.5;fill:#FFFFFF;}
	.st4{fill:#91B3FA;}
	.st5{fill:url(#SVGID_2_);}
	.st6{fill:url(#SVGID_3_);}
	.st7{fill:url(#SVGID_4_);}
	.st8{fill:url(#SVGID_5_);}
	.st9{fill:url(#SVGID_6_);}
	.st10{fill:url(#SVGID_7_);}
	.st11{fill:url(#SVGID_8_);}
	.st12{fill:url(#SVGID_9_);}
	.st13{fill:url(#SVGID_10_);}
	.st14{fill:url(#SVGID_11_);}
	.st15{fill:url(#SVGID_12_);}
	.st16{fill:url(#SVGID_13_);}
	.st17{fill:url(#SVGID_14_);}
	.st18{fill:url(#SVGID_15_);}
	.st19{fill:url(#SVGID_16_);}
	.st20{fill:url(#SVGID_17_);}
	.st21{fill:url(#SVGID_18_);}
	.st22{fill:url(#SVGID_19_);}
	.st23{fill:url(#SVGID_20_);}
	.st24{fill:url(#SVGID_21_);}
	.st25{fill:url(#SVGID_22_);}
	.st26{fill:url(#SVGID_23_);}
	.st27{fill:url(#SVGID_24_);}
	.st28{fill:url(#SVGID_25_);}
	.st29{fill:url(#SVGID_26_);}
	.st30{fill:url(#SVGID_27_);}
	.st31{fill:url(#SVGID_28_);}
	.st32{fill:url(#SVGID_29_);}
	.st33{opacity:0.89;}
	.st34{opacity:0.71;fill:#FFFFFF;}
	.st35{fill:url(#SVGID_30_);}
	.st36{fill:url(#SVGID_31_);}
	.st37{fill:#BDD0FB;}
	.st38{fill:url(#SVGID_32_);}
	.st39{opacity:0.9;fill:#BDD0FB;}
	.st40{opacity:0.9;fill:#7D97F4;}
	.st41{fill:url(#SVGID_33_);}
	.st42{fill:url(#SVGID_34_);}
	.st43{fill:url(#SVGID_35_);}
	.st44{fill:url(#SVGID_36_);}
	.st45{fill:url(#SVGID_37_);}
	.st46{fill:url(#SVGID_38_);}
	.st47{fill:url(#SVGID_39_);}
</style>
<g id="Background">
	<g>
		<g>
			<rect class="st0" width="3710" height="3710"/>
		</g>
	</g>
</g>
<g id="Illustration">
	<g>
		<linearGradient id="SVGID_1_" gradientUnits="userSpaceOnUse" x1="3186.8079" y1="3350.2642" x2="1443.2958" y2="1468.3779">
			<stop  offset="0" style="stop-color:#DAE3FE"/>
			<stop  offset="1" style="stop-color:#E9EFFD"/>
		</linearGradient>
		<path class="st1" d="M2946.61,2276.84c-240.2,558.7-874.24,798.68-1371.03,757.76c-135.64-11.17-408.56-33.65-621.65-234.18
			c-409.23-385.12-346.21-1190.11,45.55-1664.05c50.45-61.03,399.66-469.95,943.83-464.48c398.41,4.01,678.06,227.97,712.06,255.87
			c42.96,35.25,137.7,119.01,223.08,251.88C3079.07,1491.86,3096.71,1927.71,2946.61,2276.84z"/>
		<g>
			<g>
				<path class="st2" d="M1215.22,1717.63c0,0,142.13-149.65,108.75-254.37c-33.38-104.72-144.14-251.6,49.7-475.76
					c113.48-131.23,161.2-190.33,181.27-216.77c7.83-10.31,23.31-10.34,31.13-0.02c55.34,72.98,225.22,320.97,136.71,510.04
					C1617.85,1504.9,1215.22,1717.63,1215.22,1717.63z"/>
				<path class="st3" d="M1581.43,878.61c6.42,74.08,2.63,148.41-5.77,222.13c-2.46,18.39-4.73,36.82-8.04,55.09l-2.31,13.73
					l-1.15,6.87l-1.35,6.83l-5.47,27.31l-1.4,6.82l-1.61,6.78l-3.22,13.55l-3.22,13.55l-1.61,6.78l-1.83,6.72
					c-5.03,17.9-9.48,35.88-15.48,53.66c-1.35,4.48-3.01,8.85-4.56,13.26c-1.59,4.4-3.11,8.82-4.75,13.19l-5.15,13.04l-2.58,6.51
					l-2.78,6.43l-5.57,12.86l-5.94,12.68c-1.96,4.24-3.98,8.45-6.15,12.58l-6.37,12.47c-17.52,32.95-37.2,64.75-59.26,94.77
					c-21.89,30.14-45.76,58.79-71.23,85.9c-12.81,13.49-26.02,26.58-39.65,39.23c-13.64,12.69-27.59,24.84-42.55,36.3
					c-2.19,1.68-5.32,1.26-7-0.93c-1.64-2.14-1.28-5.18,0.78-6.88l0.11-0.09c6.93-5.7,13.82-11.87,20.54-18.05
					c6.75-6.19,13.42-12.47,19.95-18.91c13.09-12.84,25.76-26.1,38.01-39.73c24.56-27.2,47.74-55.67,68.77-85.63
					c21.11-29.9,40.31-61.1,57.29-93.43c16.66-32.48,31.53-65.93,42.83-100.6c5.79-17.23,10.45-35.06,15.55-52.66l1.86-6.62
					l1.65-6.68l3.3-13.36l3.3-13.36l1.65-6.68l1.44-6.73c8.18-35.79,14.49-71.99,20.03-108.31c5.17-36.38,9.02-72.97,11.26-109.68
					c2.46-36.67,3.42-73.59,2.05-110.23l-0.01-0.13c-0.06-1.56,1.16-2.88,2.72-2.93C1580.02,875.97,1581.3,877.12,1581.43,878.61z"
					/>
			</g>
			<g>
				<path class="st4" d="M1421.36,2226.32c18.44,16.34-127.3-325.89-75.58-785.96c24.37-216.8,95.75-477.15,5.1-610.09
					c-75.44-110.64-425.07-150.41-540.24-160.63c-14.39-1.28-23.78,14.76-15.59,26.65c40.39,58.67,124.13,193.86,124.47,306.91
					c0.45,149.02,107.71,273.32,218.9,329.63c111.19,56.31,170.32,97.5,175.72,301.66S1368.97,2179.9,1421.36,2226.32z"/>
				<path class="st3" d="M948.48,771.38c69.61,22.99,134.41,60.01,189.98,108.36c27.84,24.1,52.67,51.85,73.62,82.35
					c20.69,30.65,37.54,64.17,48.39,99.68l4.01,13.33c1.31,4.45,2.19,9.01,3.31,13.51c1,4.51,2.18,9.06,3.04,13.53l2.6,13.42
					c3.51,17.88,6.93,35.78,10.17,53.72c6.54,35.86,12.5,71.82,17.92,107.86c10.86,72.09,19.56,144.5,23.84,217.39
					c0.1,1.62-1.14,3.02-2.77,3.11c-1.57,0.09-2.93-1.06-3.1-2.61l-0.01-0.09c-3.95-36.05-8.63-72.14-13.98-108.06
					c-5.2-35.96-10.84-71.86-16.89-107.69l-9.25-53.71l-9.86-53.6c-3.28-17.87-6.74-35.7-10.29-53.52l-2.63-13.37
					c-0.87-4.46-2-8.72-2.98-13.09c-1.05-4.33-1.88-8.73-3.11-13.01l-3.79-12.83c-10.19-34.23-26.45-66.41-45.94-96.34
					c-10.07-14.76-20.68-29.24-32.63-42.61l-4.38-5.1l-4.58-4.92c-3.07-3.27-6.06-6.62-9.2-9.83c-6.37-6.33-12.66-12.74-19.38-18.73
					c-26.4-24.44-55.77-45.66-86.5-64.59c-30.75-18.87-63.31-35.28-97.04-48.05l-0.14-0.05c-1.22-0.46-1.83-1.83-1.37-3.05
					C945.98,771.6,947.29,770.99,948.48,771.38z"/>
			</g>
			<g>
				<path class="st2" d="M1146.87,2170.05c7.83,11.11-0.8-147.41,48.73-257.9c49.53-110.5,119.07-306.74,82.32-464.13
					c-36.75-157.39-133.35-219.34-312.56-184.79c-149.34,28.79-237.43,36.83-280.49,24.7c-10.66-3-21.18,5.4-20.89,16.47
					c1.5,58.94,18.25,201.12,141.02,254.38c156.61,67.94,390.88,63.17,404.92,174.07c14.05,110.91-16.65,153.28-34.84,193.16
					S1095.08,2096.51,1146.87,2170.05z"/>
				<path class="st3" d="M941.23,1418.03c12.47-3.66,25.04-6.29,37.76-8.52c12.71-2.21,25.52-3.95,38.43-4.92
					c25.78-2.05,51.96-1.67,77.83,2.6c12.92,2.18,25.76,5.33,38.23,9.82c12.43,4.56,24.5,10.48,35.61,18.01
					c2.71,1.99,5.55,3.79,8.14,5.94c2.55,2.17,5.27,4.26,7.68,6.5l14.06,13.7l13.1,14.69l11.95,15.69
					c15.17,21.53,26.41,45.87,33.16,71.25c6.89,25.39,9.04,51.69,8.62,77.6l-0.16,9.73c-0.01,3.25-0.45,6.46-0.65,9.69
					c-0.57,6.45-0.94,12.92-1.67,19.34l-2.68,19.19c-0.76,6.42-2.34,12.68-3.53,19.01c-4.86,25.32-11.93,50.06-19.58,74.53
					c-0.4,1.27-1.74,1.97-3.01,1.58c-1.21-0.38-1.91-1.63-1.62-2.85l0.02-0.08c5.99-24.79,12.17-49.53,15.79-74.68
					c2.21-12.51,3.33-25.13,4.8-37.7c0.55-6.3,0.73-12.61,1.12-18.91c0.11-3.15,0.47-6.3,0.38-9.45l-0.1-9.44
					c-0.2-25.15-3.24-50.21-9.95-74.18c-6.72-23.98-17.7-46.56-32-66.85l-11.37-14.77l-12.5-13.88l-13.47-13
					c-2.27-2.11-4.62-3.93-6.92-5.92c-2.31-1.96-4.89-3.59-7.31-5.41c-10.02-6.88-21.03-12.39-32.56-16.71
					c-11.51-4.39-23.53-7.62-35.77-9.94c-24.51-4.65-49.8-5.85-75.04-5.1c-25.24,0.8-50.64,3.51-75.49,8.25l-0.08,0.02
					c-1.36,0.26-2.66-0.63-2.92-1.99C939.23,1419.63,940.01,1418.39,941.23,1418.03z"/>
			</g>
		</g>
		<g>
			<linearGradient id="SVGID_2_" gradientUnits="userSpaceOnUse" x1="2658.0061" y1="928.8159" x2="2070.6357" y2="1777.2382">
				<stop  offset="0" style="stop-color:#FF928E"/>
				<stop  offset="1" style="stop-color:#FE7062"/>
			</linearGradient>
			<circle class="st5" cx="2591.56" cy="1024.79" r="183.01"/>
			<g>
				<path class="st0" d="M2588.31,1256.11c-1.82,0-3.64-0.02-5.45-0.06c-1.15-0.03-2.05-0.98-2.03-2.13
					c0.03-1.13,0.95-2.03,2.08-2.03c0.02,0,0.03,0,0.05,0c3.65,0.08,7.33,0.08,10.98-0.01c0.02,0,0.03,0,0.05,0
					c1.12,0,2.05,0.9,2.08,2.03c0.03,1.15-0.88,2.1-2.03,2.13C2592.14,1256.08,2590.23,1256.11,2588.31,1256.11z"/>
				<path class="st0" d="M2571.85,1255.53c-0.05,0-0.1,0-0.15-0.01c-3.7-0.26-7.44-0.62-11.12-1.06c-1.14-0.14-1.95-1.17-1.82-2.31
					c0.14-1.14,1.17-1.95,2.31-1.82c3.62,0.43,7.29,0.78,10.92,1.04c1.14,0.08,2.01,1.07,1.92,2.22
					C2573.85,1254.69,2572.93,1255.53,2571.85,1255.53z"/>
				<path class="st0" d="M2605.05,1255.51c-1.08,0-1.99-0.83-2.07-1.93c-0.08-1.14,0.78-2.14,1.92-2.22
					c3.63-0.26,7.31-0.62,10.92-1.05c1.13-0.14,2.17,0.68,2.31,1.81c0.14,1.14-0.67,2.17-1.81,2.31c-3.68,0.44-7.42,0.8-11.12,1.07
					C2605.15,1255.5,2605.1,1255.51,2605.05,1255.51z"/>
				<path class="st0" d="M2549.87,1252.9c-0.11,0-0.23-0.01-0.35-0.03c-3.67-0.62-7.36-1.34-10.97-2.13
					c-1.12-0.25-1.83-1.35-1.58-2.48c0.24-1.12,1.35-1.83,2.47-1.58c3.55,0.78,7.17,1.48,10.77,2.09c1.13,0.19,1.89,1.26,1.7,2.39
					C2551.74,1252.18,2550.86,1252.9,2549.87,1252.9z"/>
				<path class="st0" d="M2627.03,1252.85c-0.99,0-1.87-0.72-2.05-1.73c-0.19-1.13,0.57-2.2,1.7-2.4c3.59-0.61,7.21-1.32,10.77-2.1
					c1.13-0.25,2.23,0.46,2.48,1.58c0.25,1.12-0.46,2.23-1.58,2.48c-3.62,0.8-7.31,1.52-10.97,2.14
					C2627.27,1252.84,2627.15,1252.85,2627.03,1252.85z"/>
				<path class="st0" d="M2528.24,1248.16c-0.18,0-0.36-0.02-0.54-0.07c-3.59-0.97-7.19-2.04-10.71-3.18
					c-1.09-0.35-1.69-1.53-1.34-2.62c0.35-1.09,1.52-1.69,2.62-1.34c3.46,1.12,7,2.17,10.52,3.13c1.11,0.3,1.76,1.44,1.46,2.55
					C2529.99,1247.55,2529.15,1248.16,2528.24,1248.16z"/>
				<path class="st0" d="M2648.65,1248.08c-0.91,0-1.75-0.61-2-1.53c-0.3-1.11,0.35-2.25,1.46-2.55c3.52-0.96,7.06-2.02,10.51-3.14
					c1.1-0.36,2.26,0.24,2.62,1.33c0.35,1.09-0.24,2.26-1.33,2.62c-3.52,1.14-7.12,2.22-10.71,3.2
					C2649.02,1248.06,2648.84,1248.08,2648.65,1248.08z"/>
				<path class="st0" d="M2507.15,1241.32c-0.24,0-0.49-0.04-0.74-0.14c-3.48-1.32-6.97-2.74-10.37-4.22
					c-1.05-0.46-1.53-1.68-1.08-2.73c0.46-1.05,1.69-1.53,2.73-1.07c3.34,1.45,6.76,2.85,10.19,4.14c1.07,0.41,1.61,1.61,1.21,2.68
					C2508.78,1240.81,2507.99,1241.32,2507.15,1241.32z"/>
				<path class="st0" d="M2669.71,1241.23c-0.84,0-1.63-0.51-1.94-1.34c-0.41-1.07,0.13-2.27,1.2-2.68
					c3.41-1.29,6.82-2.69,10.14-4.14c1.05-0.46,2.28,0.02,2.74,1.07c0.46,1.05-0.02,2.28-1.07,2.74c-3.38,1.48-6.86,2.89-10.32,4.21
					C2670.21,1241.19,2669.96,1241.23,2669.71,1241.23z"/>
				<path class="st0" d="M2486.81,1232.46c-0.31,0-0.62-0.07-0.92-0.22c-3.33-1.65-6.66-3.4-9.91-5.2c-1-0.56-1.36-1.82-0.8-2.83
					c0.56-1,1.82-1.36,2.83-0.8c3.18,1.77,6.46,3.49,9.73,5.11c1.03,0.51,1.45,1.75,0.94,2.78
					C2488.31,1232.04,2487.57,1232.46,2486.81,1232.46z"/>
				<path class="st0" d="M2689.96,1232.39c-0.76,0-1.5-0.42-1.86-1.16c-0.51-1.03-0.09-2.27,0.94-2.78c3.26-1.62,6.53-3.33,9.7-5.1
					c1-0.56,2.27-0.2,2.83,0.8c0.56,1,0.2,2.27-0.8,2.83c-3.23,1.8-6.55,3.55-9.87,5.19
					C2690.59,1232.32,2690.27,1232.39,2689.96,1232.39z"/>
				<path class="st0" d="M2467.43,1221.68c-0.37,0-0.75-0.1-1.1-0.31c-3.15-1.96-6.29-4.02-9.35-6.13
					c-0.94-0.65-1.18-1.95-0.53-2.89c0.65-0.94,1.95-1.18,2.89-0.53c3,2.08,6.09,4.1,9.19,6.02c0.98,0.61,1.27,1.89,0.67,2.86
					C2468.81,1221.33,2468.13,1221.68,2467.43,1221.68z"/>
				<path class="st0" d="M2709.28,1221.63c-0.69,0-1.37-0.35-1.77-0.98c-0.61-0.97-0.31-2.26,0.67-2.86
					c3.08-1.92,6.17-3.94,9.16-6.02c0.94-0.65,2.24-0.42,2.89,0.53c0.65,0.94,0.42,2.24-0.53,2.89c-3.05,2.11-6.19,4.17-9.33,6.13
					C2710.03,1221.53,2709.66,1221.63,2709.28,1221.63z"/>
				<path class="st0" d="M2449.2,1209.08c-0.44,0-0.88-0.14-1.26-0.43c-2.95-2.25-5.88-4.61-8.72-7c-0.88-0.74-0.99-2.05-0.25-2.93
					c0.74-0.88,2.05-0.99,2.93-0.25c2.78,2.35,5.66,4.67,8.56,6.88c0.91,0.7,1.08,2,0.39,2.91
					C2450.44,1208.8,2449.83,1209.08,2449.2,1209.08z"/>
				<path class="st0" d="M2727.48,1209.04c-0.62,0-1.24-0.28-1.65-0.81c-0.7-0.91-0.52-2.21,0.39-2.91
					c2.89-2.21,5.77-4.53,8.55-6.87c0.88-0.74,2.19-0.63,2.93,0.25c0.74,0.88,0.63,2.19-0.25,2.93c-2.83,2.39-5.76,4.74-8.7,7
					C2728.36,1208.91,2727.92,1209.04,2727.48,1209.04z"/>
				<path class="st0" d="M2432.27,1194.8c-0.51,0-1.01-0.18-1.41-0.56c-2.71-2.52-5.4-5.15-8-7.8c-0.8-0.82-0.79-2.14,0.03-2.94
					c0.82-0.8,2.14-0.79,2.94,0.03c2.55,2.61,5.2,5.19,7.86,7.66c0.84,0.78,0.89,2.1,0.11,2.94
					C2433.38,1194.57,2432.83,1194.8,2432.27,1194.8z"/>
				<path class="st0" d="M2744.39,1194.76c-0.56,0-1.11-0.22-1.52-0.66c-0.78-0.84-0.73-2.15,0.11-2.94
					c2.68-2.49,5.32-5.07,7.85-7.67c0.8-0.82,2.12-0.84,2.94-0.04c0.82,0.8,0.84,2.12,0.04,2.94c-2.58,2.64-5.27,5.27-8,7.8
					C2745.4,1194.58,2744.9,1194.76,2744.39,1194.76z"/>
				<path class="st0" d="M2416.8,1178.96c-0.57,0-1.14-0.24-1.56-0.7c-2.46-2.78-4.89-5.65-7.21-8.53c-0.72-0.89-0.58-2.2,0.32-2.92
					c0.89-0.72,2.2-0.58,2.92,0.32c2.28,2.83,4.67,5.65,7.08,8.38c0.76,0.86,0.68,2.17-0.18,2.93
					C2417.78,1178.79,2417.29,1178.96,2416.8,1178.96z"/>
				<path class="st0" d="M2759.86,1178.92c-0.49,0-0.98-0.17-1.38-0.52c-0.86-0.76-0.94-2.07-0.18-2.93
					c2.43-2.74,4.81-5.56,7.09-8.39c0.72-0.89,2.03-1.03,2.92-0.32c0.89,0.72,1.04,2.03,0.32,2.92c-2.32,2.88-4.74,5.75-7.22,8.54
					C2761.01,1178.69,2760.43,1178.92,2759.86,1178.92z"/>
				<path class="st0" d="M2402.92,1161.72c-0.64,0-1.27-0.3-1.68-0.85c-2.19-3-4.33-6.09-6.35-9.18c-0.63-0.96-0.36-2.25,0.6-2.88
					c0.96-0.63,2.25-0.36,2.88,0.6c1.99,3.03,4.09,6.06,6.24,9.02c0.68,0.93,0.47,2.23-0.46,2.9
					C2403.77,1161.59,2403.35,1161.72,2402.92,1161.72z"/>
				<path class="st0" d="M2773.75,1161.66c-0.42,0-0.85-0.13-1.22-0.4c-0.93-0.68-1.13-1.97-0.46-2.9c2.15-2.96,4.26-6,6.25-9.03
					c0.63-0.96,1.92-1.22,2.88-0.6c0.96,0.63,1.23,1.92,0.6,2.88c-2.03,3.09-4.17,6.18-6.36,9.2
					C2775.02,1161.36,2774.39,1161.66,2773.75,1161.66z"/>
				<path class="st0" d="M2390.77,1143.23c-0.71,0-1.4-0.36-1.79-1.02c-1.88-3.19-3.71-6.47-5.44-9.74
					c-0.53-1.02-0.14-2.27,0.87-2.81c1.01-0.54,2.27-0.15,2.81,0.87c1.69,3.22,3.49,6.44,5.34,9.57c0.58,0.99,0.25,2.26-0.73,2.85
					C2391.5,1143.14,2391.13,1143.23,2390.77,1143.23z"/>
				<path class="st0" d="M2785.91,1143.13c-0.36,0-0.72-0.09-1.05-0.29c-0.99-0.58-1.32-1.86-0.73-2.84
					c1.85-3.14,3.65-6.37,5.35-9.6c0.53-1.02,1.79-1.41,2.81-0.87c1.02,0.53,1.41,1.79,0.87,2.81c-1.73,3.28-3.56,6.57-5.45,9.77
					C2787.32,1142.77,2786.62,1143.13,2785.91,1143.13z"/>
				<path class="st0" d="M2380.47,1123.67c-0.78,0-1.53-0.44-1.88-1.2c-1.57-3.37-3.08-6.81-4.47-10.22
					c-0.43-1.06,0.08-2.28,1.14-2.71c1.06-0.43,2.28,0.08,2.71,1.14c1.37,3.35,2.84,6.72,4.39,10.03c0.49,1.04,0.04,2.28-1,2.76
					C2381.06,1123.61,2380.76,1123.67,2380.47,1123.67z"/>
				<path class="st0" d="M2796.24,1123.51c-0.29,0-0.59-0.06-0.88-0.19c-1.04-0.48-1.49-1.72-1.01-2.76
					c1.54-3.32,3.02-6.71,4.4-10.08c0.43-1.06,1.65-1.57,2.71-1.14c1.06,0.43,1.57,1.65,1.14,2.71c-1.4,3.43-2.9,6.88-4.47,10.26
					C2797.77,1123.06,2797.02,1123.51,2796.24,1123.51z"/>
				<path class="st0" d="M2372.1,1103.19c-0.86,0-1.66-0.53-1.96-1.39c-1.24-3.5-2.4-7.08-3.46-10.63c-0.33-1.1,0.3-2.26,1.4-2.59
					c1.1-0.33,2.26,0.3,2.59,1.4c1.04,3.49,2.19,7,3.4,10.43c0.38,1.08-0.19,2.27-1.27,2.65
					C2372.56,1103.15,2372.33,1103.19,2372.1,1103.19z"/>
				<path class="st0" d="M2804.61,1102.96c-0.23,0-0.46-0.04-0.69-0.12c-1.08-0.38-1.65-1.57-1.27-2.65
					c1.21-3.44,2.35-6.95,3.39-10.44c0.33-1.1,1.49-1.72,2.58-1.4c1.1,0.33,1.73,1.48,1.4,2.58c-1.06,3.55-2.22,7.13-3.45,10.63
					C2806.27,1102.42,2805.47,1102.96,2804.61,1102.96z"/>
				<path class="st0" d="M2365.76,1081.98c-0.93,0-1.78-0.63-2.02-1.58c-0.89-3.62-1.7-7.29-2.41-10.91
					c-0.22-1.13,0.52-2.22,1.64-2.44c1.12-0.22,2.22,0.51,2.44,1.64c0.69,3.55,1.49,7.16,2.37,10.71c0.27,1.11-0.41,2.24-1.52,2.51
					C2366.09,1081.96,2365.92,1081.98,2365.76,1081.98z"/>
				<path class="st0" d="M2810.93,1081.74c-0.16,0-0.33-0.02-0.5-0.06c-1.11-0.27-1.8-1.4-1.52-2.51c0.87-3.55,1.66-7.15,2.36-10.72
					c0.22-1.13,1.32-1.86,2.44-1.64c1.13,0.22,1.86,1.31,1.64,2.44c-0.71,3.63-1.51,7.3-2.4,10.91
					C2812.71,1081.1,2811.87,1081.74,2810.93,1081.74z"/>
				<path class="st0" d="M2361.5,1060.25c-1.01,0-1.9-0.74-2.05-1.78c-0.54-3.67-0.99-7.4-1.34-11.09
					c-0.11-1.14,0.73-2.16,1.87-2.27c1.13-0.1,2.16,0.73,2.27,1.87c0.35,3.62,0.8,7.29,1.32,10.89c0.17,1.14-0.62,2.19-1.76,2.36
					C2361.7,1060.24,2361.6,1060.25,2361.5,1060.25z"/>
				<path class="st0" d="M2815.16,1060c-0.1,0-0.2-0.01-0.3-0.02c-1.13-0.16-1.92-1.22-1.76-2.35c0.52-3.6,0.96-7.27,1.31-10.9
					c0.11-1.14,1.12-1.99,2.27-1.87c1.14,0.11,1.98,1.12,1.87,2.27c-0.35,3.69-0.8,7.42-1.33,11.1
					C2817.07,1059.26,2816.18,1060,2815.16,1060z"/>
				<path class="st0" d="M2359.37,1038.21c-1.1,0-2.02-0.87-2.07-1.98c-0.18-3.68-0.27-7.44-0.28-11.17c0-1.15,0.93-2.08,2.07-2.08
					c0,0,0,0,0,0c1.15,0,2.08,0.93,2.08,2.07c0.01,3.66,0.1,7.36,0.27,10.98c0.06,1.15-0.83,2.12-1.97,2.18
					C2359.44,1038.21,2359.4,1038.21,2359.37,1038.21z"/>
				<path class="st0" d="M2817.27,1037.96c-0.03,0-0.07,0-0.1,0c-1.15-0.05-2.03-1.03-1.97-2.17c0.17-3.62,0.26-7.31,0.26-10.97
					v-0.49c0-1.15,0.93-2.08,2.08-2.08c1.15,0,2.08,0.93,2.08,2.08v0.49c0,3.73-0.09,7.49-0.27,11.17
					C2819.29,1037.09,2818.37,1037.96,2817.27,1037.96z"/>
				<path class="st0" d="M2359.35,1016.07c-0.03,0-0.06,0-0.1,0c-1.15-0.05-2.03-1.03-1.98-2.17c0.17-3.71,0.44-7.46,0.78-11.15
					c0.11-1.14,1.13-1.99,2.26-1.87c1.14,0.11,1.98,1.12,1.87,2.26c-0.34,3.62-0.6,7.3-0.77,10.95
					C2361.37,1015.2,2360.45,1016.07,2359.35,1016.07z"/>
				<path class="st0" d="M2817.24,1015.32c-1.1,0-2.02-0.86-2.07-1.98c-0.18-3.64-0.45-7.32-0.81-10.94
					c-0.11-1.14,0.72-2.16,1.87-2.27c1.14-0.12,2.16,0.72,2.27,1.86c0.36,3.69,0.64,7.44,0.82,11.14c0.06,1.15-0.83,2.12-1.97,2.18
					C2817.31,1015.32,2817.27,1015.32,2817.24,1015.32z"/>
				<path class="st0" d="M2361.44,994.02c-0.1,0-0.2-0.01-0.3-0.02c-1.14-0.16-1.92-1.22-1.76-2.35c0.52-3.66,1.15-7.37,1.85-11.02
					c0.22-1.13,1.31-1.87,2.43-1.65c1.13,0.22,1.86,1.31,1.64,2.43c-0.69,3.59-1.31,7.23-1.82,10.82
					C2363.34,993.28,2362.45,994.02,2361.44,994.02z"/>
				<path class="st0" d="M2815.08,993.29c-1.01,0-1.9-0.74-2.05-1.78c-0.53-3.61-1.15-7.25-1.86-10.82
					c-0.22-1.13,0.51-2.22,1.64-2.44c1.13-0.23,2.22,0.51,2.44,1.64c0.72,3.63,1.35,7.34,1.89,11.01c0.17,1.14-0.62,2.19-1.75,2.36
					C2815.28,993.28,2815.18,993.29,2815.08,993.29z"/>
				<path class="st0" d="M2365.64,972.29c-0.16,0-0.33-0.02-0.5-0.06c-1.11-0.27-1.8-1.4-1.52-2.51c0.88-3.59,1.86-7.22,2.92-10.79
					c0.33-1.1,1.49-1.73,2.58-1.4c1.1,0.33,1.73,1.48,1.4,2.58c-1.04,3.5-2,7.07-2.86,10.59
					C2367.43,971.65,2366.58,972.29,2365.64,972.29z"/>
				<path class="st0" d="M2810.81,971.56c-0.93,0-1.78-0.63-2.02-1.58c-0.88-3.54-1.85-7.1-2.9-10.58c-0.33-1.1,0.29-2.26,1.39-2.59
					c1.09-0.33,2.26,0.29,2.59,1.39c1.06,3.55,2.06,7.17,2.95,10.78c0.28,1.11-0.4,2.24-1.52,2.52
					C2811.14,971.54,2810.97,971.56,2810.81,971.56z"/>
				<path class="st0" d="M2371.94,951.06c-0.23,0-0.46-0.04-0.69-0.12c-1.08-0.38-1.65-1.57-1.27-2.65
					c1.23-3.5,2.56-7.03,3.96-10.48c0.43-1.06,1.64-1.58,2.71-1.14c1.06,0.43,1.57,1.64,1.14,2.71c-1.37,3.39-2.68,6.85-3.89,10.29
					C2373.6,950.52,2372.79,951.06,2371.94,951.06z"/>
				<linearGradient id="SVGID_3_" gradientUnits="userSpaceOnUse" x1="2798.415" y1="943.1053" x2="2806.5212" y2="943.1053">
					<stop  offset="0" style="stop-color:#FEBBBA"/>
					<stop  offset="1" style="stop-color:#FF928E"/>
				</linearGradient>
				<path class="st6" d="M2804.44,950.36c-0.85,0-1.66-0.53-1.96-1.39c-1.21-3.43-2.53-6.88-3.91-10.25
					c-0.44-1.06,0.07-2.28,1.13-2.71c1.06-0.44,2.28,0.07,2.71,1.13c1.41,3.43,2.75,6.95,3.99,10.44c0.38,1.08-0.18,2.27-1.26,2.65
					C2804.91,950.32,2804.67,950.36,2804.44,950.36z"/>
				<linearGradient id="SVGID_4_" gradientUnits="userSpaceOnUse" x1="2378.2092" y1="923.4489" x2="2387.2778" y2="923.4489">
					<stop  offset="0" style="stop-color:#FEBBBA"/>
					<stop  offset="1" style="stop-color:#FF928E"/>
				</linearGradient>
				<path class="st7" d="M2380.29,930.5c-0.29,0-0.59-0.06-0.87-0.19c-1.04-0.48-1.49-1.72-1.01-2.76
					c1.57-3.38,3.24-6.75,4.96-10.04c0.53-1.02,1.79-1.41,2.81-0.87c1.02,0.53,1.41,1.79,0.87,2.8c-1.69,3.22-3.33,6.54-4.87,9.85
					C2381.82,930.05,2381.07,930.5,2380.29,930.5z"/>
				<linearGradient id="SVGID_5_" gradientUnits="userSpaceOnUse" x1="2789.0525" y1="922.8627" x2="2798.1321" y2="922.8627">
					<stop  offset="0" style="stop-color:#FEBBBA"/>
					<stop  offset="1" style="stop-color:#FF928E"/>
				</linearGradient>
				<path class="st8" d="M2796.06,929.89c-0.78,0-1.53-0.44-1.88-1.2c-1.54-3.29-3.18-6.59-4.88-9.81
					c-0.54-1.01-0.15-2.27,0.87-2.81c1.01-0.53,2.27-0.15,2.81,0.87c1.73,3.28,3.4,6.64,4.97,9.99c0.49,1.04,0.04,2.28-1,2.76
					C2796.65,929.83,2796.35,929.89,2796.06,929.89z"/>
				<linearGradient id="SVGID_6_" gradientUnits="userSpaceOnUse" x1="2388.511" y1="904.0748" x2="2398.5159" y2="904.0748">
					<stop  offset="0" style="stop-color:#FEBBBA"/>
					<stop  offset="1" style="stop-color:#FF928E"/>
				</linearGradient>
				<path class="st9" d="M2390.59,910.86c-0.36,0-0.72-0.09-1.05-0.29c-0.99-0.58-1.32-1.86-0.74-2.84c1.88-3.2,3.87-6.4,5.9-9.5
					c0.63-0.96,1.92-1.23,2.88-0.6c0.96,0.63,1.23,1.92,0.6,2.88c-2,3.05-3.95,6.19-5.8,9.33
					C2391.99,910.49,2391.3,910.86,2390.59,910.86z"/>
				<linearGradient id="SVGID_7_" gradientUnits="userSpaceOnUse" x1="2777.7917" y1="903.5704" x2="2787.8083" y2="903.5704">
					<stop  offset="0" style="stop-color:#FEBBBA"/>
					<stop  offset="1" style="stop-color:#FF928E"/>
				</linearGradient>
				<path class="st10" d="M2785.73,910.34c-0.71,0-1.4-0.36-1.79-1.02c-1.85-3.13-3.81-6.26-5.81-9.3
					c-0.63-0.96-0.37-2.25,0.59-2.88c0.96-0.63,2.25-0.37,2.88,0.59c2.04,3.1,4.03,6.28,5.91,9.47c0.58,0.99,0.26,2.26-0.73,2.85
					C2786.46,910.25,2786.09,910.34,2785.73,910.34z"/>
				<linearGradient id="SVGID_8_" gradientUnits="userSpaceOnUse" x1="2400.6567" y1="885.8392" x2="2411.5376" y2="885.8392">
					<stop  offset="0" style="stop-color:#FEBBBA"/>
					<stop  offset="1" style="stop-color:#FF928E"/>
				</linearGradient>
				<path class="st11" d="M2402.73,892.32c-0.42,0-0.85-0.13-1.22-0.4c-0.93-0.67-1.13-1.97-0.46-2.9c2.18-3,4.47-5.99,6.79-8.89
					c0.72-0.89,2.03-1.04,2.92-0.32c0.9,0.72,1.04,2.03,0.32,2.92c-2.28,2.84-4.52,5.78-6.66,8.73
					C2404.01,892.02,2403.38,892.32,2402.73,892.32z"/>
				<linearGradient id="SVGID_9_" gradientUnits="userSpaceOnUse" x1="2764.7439" y1="885.3985" x2="2775.6401" y2="885.3985">
					<stop  offset="0" style="stop-color:#FEBBBA"/>
					<stop  offset="1" style="stop-color:#FF928E"/>
				</linearGradient>
				<path class="st12" d="M2773.56,891.87c-0.64,0-1.27-0.3-1.68-0.85c-2.14-2.93-4.39-5.86-6.68-8.7c-0.72-0.89-0.58-2.2,0.31-2.92
					c0.89-0.72,2.2-0.58,2.92,0.31c2.34,2.89,4.62,5.87,6.8,8.86c0.68,0.93,0.47,2.23-0.45,2.9
					C2774.42,891.74,2773.99,891.87,2773.56,891.87z"/>
				<linearGradient id="SVGID_10_" gradientUnits="userSpaceOnUse" x1="2414.5247" y1="868.9068" x2="2426.2183" y2="868.9068">
					<stop  offset="0" style="stop-color:#FEBBBA"/>
					<stop  offset="1" style="stop-color:#FF928E"/>
				</linearGradient>
				<path class="st13" d="M2416.6,875.04c-0.49,0-0.98-0.17-1.38-0.52c-0.86-0.76-0.94-2.07-0.18-2.93
					c2.46-2.78,5.02-5.53,7.61-8.19c0.8-0.82,2.11-0.84,2.94-0.04c0.82,0.8,0.84,2.12,0.04,2.94c-2.54,2.61-5.06,5.32-7.47,8.04
					C2417.75,874.81,2417.18,875.04,2416.6,875.04z"/>
				<linearGradient id="SVGID_11_" gradientUnits="userSpaceOnUse" x1="2750.0337" y1="868.5129" x2="2761.7437" y2="868.5129">
					<stop  offset="0" style="stop-color:#FEBBBA"/>
					<stop  offset="1" style="stop-color:#FF928E"/>
				</linearGradient>
				<path class="st14" d="M2759.67,874.64c-0.57,0-1.14-0.24-1.55-0.7c-2.42-2.72-4.94-5.42-7.49-8.02
					c-0.8-0.82-0.79-2.14,0.03-2.94c0.82-0.8,2.13-0.79,2.94,0.03c2.59,2.65,5.16,5.4,7.62,8.17c0.76,0.86,0.69,2.17-0.17,2.93
					C2760.65,874.47,2760.16,874.64,2759.67,874.64z"/>
				<linearGradient id="SVGID_12_" gradientUnits="userSpaceOnUse" x1="2429.981" y1="853.4287" x2="2442.4146" y2="853.4287">
					<stop  offset="0" style="stop-color:#FEBBBA"/>
					<stop  offset="1" style="stop-color:#FF928E"/>
				</linearGradient>
				<path class="st15" d="M2432.06,859.18c-0.56,0-1.11-0.22-1.52-0.66c-0.78-0.84-0.74-2.15,0.1-2.94
					c2.71-2.52,5.52-5.02,8.35-7.42c0.88-0.74,2.19-0.63,2.93,0.24c0.74,0.88,0.63,2.19-0.24,2.93c-2.78,2.36-5.54,4.81-8.2,7.29
					C2433.07,859,2432.57,859.18,2432.06,859.18z"/>
				<linearGradient id="SVGID_13_" gradientUnits="userSpaceOnUse" x1="2733.7954" y1="853.0699" x2="2746.2505" y2="853.0699">
					<stop  offset="0" style="stop-color:#FEBBBA"/>
					<stop  offset="1" style="stop-color:#FF928E"/>
				</linearGradient>
				<path class="st16" d="M2744.17,858.82c-0.51,0-1.01-0.18-1.41-0.55c-2.68-2.48-5.44-4.93-8.22-7.27
					c-0.88-0.74-0.99-2.05-0.25-2.93c0.74-0.88,2.05-0.99,2.93-0.25c2.83,2.38,5.65,4.88,8.38,7.4c0.84,0.78,0.89,2.09,0.11,2.94
					C2745.29,858.59,2744.73,858.82,2744.17,858.82z"/>
				<linearGradient id="SVGID_14_" gradientUnits="userSpaceOnUse" x1="2446.8784" y1="839.5462" x2="2459.9751" y2="839.5462">
					<stop  offset="0" style="stop-color:#FEBBBA"/>
					<stop  offset="1" style="stop-color:#FF928E"/>
				</linearGradient>
				<path class="st17" d="M2448.96,844.88c-0.62,0-1.24-0.28-1.65-0.81c-0.7-0.91-0.53-2.21,0.38-2.91
					c2.94-2.25,5.97-4.47,9.02-6.58c0.94-0.65,2.24-0.42,2.89,0.52c0.65,0.94,0.42,2.24-0.52,2.89c-2.99,2.07-5.97,4.25-8.86,6.46
					C2449.84,844.74,2449.4,844.88,2448.96,844.88z"/>
				<linearGradient id="SVGID_15_" gradientUnits="userSpaceOnUse" x1="2716.1819" y1="839.2148" x2="2729.3083" y2="839.2148">
					<stop  offset="0" style="stop-color:#FEBBBA"/>
					<stop  offset="1" style="stop-color:#FF928E"/>
				</linearGradient>
				<path class="st18" d="M2727.23,844.55c-0.44,0-0.88-0.14-1.26-0.43c-2.9-2.21-5.89-4.38-8.89-6.45
					c-0.94-0.65-1.18-1.94-0.53-2.89c0.65-0.95,1.95-1.18,2.89-0.53c3.05,2.1,6.1,4.31,9.05,6.57c0.91,0.7,1.09,2,0.39,2.91
					C2728.47,844.27,2727.86,844.55,2727.23,844.55z"/>
				<linearGradient id="SVGID_16_" gradientUnits="userSpaceOnUse" x1="2465.0623" y1="827.3915" x2="2478.7407" y2="827.3915">
					<stop  offset="0" style="stop-color:#FEBBBA"/>
					<stop  offset="1" style="stop-color:#FF928E"/>
				</linearGradient>
				<path class="st19" d="M2467.14,832.28c-0.69,0-1.37-0.35-1.76-0.98c-0.61-0.97-0.31-2.25,0.66-2.86
					c3.15-1.97,6.39-3.88,9.61-5.68c1-0.56,2.27-0.2,2.83,0.8c0.56,1,0.2,2.27-0.8,2.83c-3.16,1.77-6.34,3.64-9.44,5.58
					C2467.9,832.18,2467.52,832.28,2467.14,832.28z"/>
				<linearGradient id="SVGID_17_" gradientUnits="userSpaceOnUse" x1="2697.343" y1="827.0833" x2="2711.0596" y2="827.0833">
					<stop  offset="0" style="stop-color:#FEBBBA"/>
					<stop  offset="1" style="stop-color:#FF928E"/>
				</linearGradient>
				<path class="st20" d="M2708.98,831.97c-0.37,0-0.75-0.1-1.09-0.31c-3.1-1.92-6.28-3.79-9.47-5.56c-1-0.56-1.36-1.82-0.81-2.83
					c0.56-1,1.83-1.36,2.83-0.81c3.25,1.8,6.49,3.71,9.65,5.67c0.98,0.6,1.27,1.89,0.67,2.86
					C2710.35,831.62,2709.67,831.97,2708.98,831.97z"/>
				<linearGradient id="SVGID_18_" gradientUnits="userSpaceOnUse" x1="2484.364" y1="817.0787" x2="2498.5354" y2="817.0787">
					<stop  offset="0" style="stop-color:#FEBBBA"/>
					<stop  offset="1" style="stop-color:#FF928E"/>
				</linearGradient>
				<path class="st21" d="M2486.44,821.5c-0.76,0-1.5-0.42-1.86-1.15c-0.51-1.03-0.09-2.27,0.94-2.79
					c3.32-1.65,6.72-3.24,10.11-4.72c1.05-0.46,2.28,0.02,2.74,1.07c0.46,1.05-0.02,2.28-1.07,2.74c-3.32,1.45-6.66,3.01-9.92,4.64
					C2487.07,821.43,2486.75,821.5,2486.44,821.5z"/>
				<linearGradient id="SVGID_19_" gradientUnits="userSpaceOnUse" x1="2677.4534" y1="816.7951" x2="2691.675" y2="816.7951">
					<stop  offset="0" style="stop-color:#FEBBBA"/>
					<stop  offset="1" style="stop-color:#FF928E"/>
				</linearGradient>
				<path class="st22" d="M2689.6,821.21c-0.31,0-0.62-0.07-0.92-0.22c-3.27-1.61-6.62-3.17-9.97-4.62
					c-1.05-0.46-1.54-1.68-1.08-2.73c0.46-1.05,1.67-1.54,2.73-1.08c3.41,1.48,6.83,3.07,10.16,4.71c1.03,0.51,1.45,1.75,0.94,2.78
					C2691.1,820.78,2690.36,821.21,2689.6,821.21z"/>
				<linearGradient id="SVGID_20_" gradientUnits="userSpaceOnUse" x1="2504.6057" y1="808.709" x2="2519.2026" y2="808.709">
					<stop  offset="0" style="stop-color:#FEBBBA"/>
					<stop  offset="1" style="stop-color:#FF928E"/>
				</linearGradient>
				<path class="st23" d="M2506.68,812.63c-0.84,0-1.63-0.51-1.94-1.34c-0.41-1.07,0.13-2.27,1.2-2.68
					c3.46-1.32,7.01-2.57,10.54-3.73c1.09-0.36,2.26,0.24,2.62,1.33c0.36,1.09-0.24,2.26-1.33,2.62c-3.46,1.13-6.94,2.36-10.35,3.66
					C2507.18,812.59,2506.93,812.63,2506.68,812.63z"/>
				<linearGradient id="SVGID_21_" gradientUnits="userSpaceOnUse" x1="2656.6917" y1="808.4595" x2="2671.3274" y2="808.4595">
					<stop  offset="0" style="stop-color:#FEBBBA"/>
					<stop  offset="1" style="stop-color:#FF928E"/>
				</linearGradient>
				<path class="st24" d="M2669.25,812.37c-0.24,0-0.49-0.04-0.73-0.13c-3.41-1.29-6.91-2.51-10.38-3.63
					c-1.09-0.35-1.69-1.52-1.34-2.62c0.35-1.09,1.52-1.69,2.62-1.34c3.54,1.14,7.1,2.39,10.58,3.7c1.07,0.41,1.61,1.6,1.21,2.68
					C2670.88,811.86,2670.09,812.37,2669.25,812.37z"/>
				<linearGradient id="SVGID_22_" gradientUnits="userSpaceOnUse" x1="2525.6553" y1="802.3546" x2="2540.5618" y2="802.3546">
					<stop  offset="0" style="stop-color:#FEBBBA"/>
					<stop  offset="1" style="stop-color:#FF928E"/>
				</linearGradient>
				<path class="st25" d="M2527.73,805.76c-0.91,0-1.75-0.61-2-1.53c-0.3-1.11,0.35-2.25,1.46-2.55c3.58-0.98,7.23-1.88,10.85-2.68
					c1.12-0.25,2.23,0.46,2.48,1.58c0.25,1.12-0.46,2.23-1.58,2.48c-3.55,0.79-7.14,1.67-10.65,2.63
					C2528.1,805.74,2527.91,805.76,2527.73,805.76z"/>
				<linearGradient id="SVGID_23_" gradientUnits="userSpaceOnUse" x1="2635.313" y1="802.1707" x2="2650.2283" y2="802.1707">
					<stop  offset="0" style="stop-color:#FEBBBA"/>
					<stop  offset="1" style="stop-color:#FF928E"/>
				</linearGradient>
				<path class="st26" d="M2648.15,805.56c-0.18,0-0.36-0.02-0.54-0.07c-3.52-0.95-7.1-1.82-10.66-2.6
					c-1.12-0.24-1.83-1.35-1.59-2.47c0.24-1.12,1.35-1.84,2.47-1.59c3.62,0.79,7.28,1.68,10.86,2.65c1.11,0.3,1.76,1.44,1.46,2.55
					C2649.91,804.95,2649.07,805.56,2648.15,805.56z"/>
				<linearGradient id="SVGID_24_" gradientUnits="userSpaceOnUse" x1="2547.2725" y1="798.0892" x2="2562.3838" y2="798.0892">
					<stop  offset="0" style="stop-color:#FEBBBA"/>
					<stop  offset="1" style="stop-color:#FF928E"/>
				</linearGradient>
				<path class="st27" d="M2549.35,800.97c-0.99,0-1.87-0.71-2.05-1.73c-0.19-1.13,0.57-2.2,1.7-2.4c3.65-0.62,7.37-1.17,11.05-1.62
					c1.14-0.15,2.18,0.67,2.31,1.81c0.14,1.14-0.67,2.18-1.81,2.31c-3.62,0.44-7.27,0.98-10.86,1.59
					C2549.58,800.96,2549.46,800.97,2549.35,800.97z"/>
				<linearGradient id="SVGID_25_" gradientUnits="userSpaceOnUse" x1="2613.4763" y1="797.9796" x2="2628.5938" y2="797.9796">
					<stop  offset="0" style="stop-color:#FEBBBA"/>
					<stop  offset="1" style="stop-color:#FF928E"/>
				</linearGradient>
				<path class="st28" d="M2626.52,800.84c-0.11,0-0.23-0.01-0.35-0.03c-3.59-0.6-7.25-1.13-10.86-1.55
					c-1.14-0.14-1.95-1.17-1.82-2.31c0.13-1.14,1.15-1.95,2.31-1.82c3.68,0.44,7.4,0.97,11.06,1.58c1.13,0.19,1.9,1.26,1.71,2.39
					C2628.39,800.12,2627.51,800.84,2626.52,800.84z"/>
				<linearGradient id="SVGID_26_" gradientUnits="userSpaceOnUse" x1="2569.2493" y1="795.941" x2="2584.4663" y2="795.941">
					<stop  offset="0" style="stop-color:#FEBBBA"/>
					<stop  offset="1" style="stop-color:#FF928E"/>
				</linearGradient>
				<path class="st29" d="M2571.32,798.29c-1.08,0-1.99-0.83-2.07-1.93c-0.08-1.15,0.78-2.14,1.92-2.22
					c3.69-0.27,7.44-0.46,11.16-0.55c1.14-0.04,2.1,0.88,2.13,2.02c0.03,1.15-0.88,2.1-2.02,2.13c-3.65,0.09-7.34,0.27-10.96,0.54
					C2571.43,798.29,2571.38,798.29,2571.32,798.29z"/>
				<linearGradient id="SVGID_27_" gradientUnits="userSpaceOnUse" x1="2591.3879" y1="795.9043" x2="2606.6069" y2="795.9043">
					<stop  offset="0" style="stop-color:#FEBBBA"/>
					<stop  offset="1" style="stop-color:#FF928E"/>
				</linearGradient>
				<path class="st30" d="M2604.53,798.24c-0.05,0-0.1,0-0.15,0c-3.63-0.25-7.31-0.42-10.96-0.5c-1.15-0.03-2.06-0.98-2.03-2.12
					c0.03-1.15,0.98-2.07,2.12-2.03c3.72,0.08,7.47,0.25,11.16,0.51c1.14,0.08,2.01,1.07,1.93,2.22
					C2606.53,797.4,2605.61,798.24,2604.53,798.24z"/>
			</g>
		</g>
		<g>
			<g>
				<rect x="2478.93" y="1784.86" class="st4" width="501.72" height="967.61"/>
				<linearGradient id="SVGID_28_" gradientUnits="userSpaceOnUse" x1="2753.6013" y1="1455.5558" x2="3011.3496" y2="703.788">
					<stop  offset="0" style="stop-color:#E1473D"/>
					<stop  offset="1" style="stop-color:#E9605A"/>
				</linearGradient>
				<path class="st31" d="M3013.57,1868.49h-567.14l-103.8-436.02h549.51l143.77,399.45
					C3043.48,1848.97,3031.56,1868.49,3013.57,1868.49z"/>
				<linearGradient id="SVGID_29_" gradientUnits="userSpaceOnUse" x1="2793.6377" y1="2513.873" x2="2660.467" y2="1839.4286">
					<stop  offset="0" style="stop-color:#E1473D"/>
					<stop  offset="1" style="stop-color:#E9605A"/>
				</linearGradient>
				<path class="st32" d="M2892.14,1438.44l-618.8,2.59l-17.14-53.74l597.97,3.36c20.97,0,37.97,12.97,37.97,28.97V1438.44z"/>
				<g class="st33">
					<path class="st34" d="M2873.51,2489.67h-284.45c-0.62,0-1.12-0.5-1.12-1.12V2048.8c0-0.62,0.5-1.12,1.12-1.12h284.45
						c0.62,0,1.12,0.5,1.12,1.12v439.75C2874.64,2489.16,2874.13,2489.67,2873.51,2489.67z"/>
					<g>
						<path class="st2" d="M2719.53,2465.77h-110.06c-0.34,0-0.62-0.28-0.62-0.62v-392.96c0-0.34,0.28-0.62,0.62-0.62h110.06
							c0.34,0,0.62,0.28,0.62,0.62v392.96C2720.16,2465.5,2719.88,2465.77,2719.53,2465.77z"/>
						<path class="st2" d="M2853.11,2465.77h-110.06c-0.34,0-0.62-0.28-0.62-0.62v-392.96c0-0.34,0.28-0.62,0.62-0.62h110.06
							c0.34,0,0.62,0.28,0.62,0.62v392.96C2853.73,2465.5,2853.45,2465.77,2853.11,2465.77z"/>
					</g>
				</g>
				<path class="st4" d="M731.97,2752.47h491.55v-967.61H721.8v957.43C721.8,2747.92,726.35,2752.47,731.97,2752.47z"/>
				<linearGradient id="SVGID_30_" gradientUnits="userSpaceOnUse" x1="1038.424" y1="1751.5629" x2="1309.0601" y2="411.2645">
					<stop  offset="0" style="stop-color:#E1473D"/>
					<stop  offset="1" style="stop-color:#E9605A"/>
				</linearGradient>
				<path class="st35" d="M691.84,1868.48h567.35l202.53-463.28l-648.41,27.26l-143.83,399.45
					C661.92,1848.97,673.85,1868.48,691.84,1868.48z"/>
				<linearGradient id="SVGID_31_" gradientUnits="userSpaceOnUse" x1="1193.7794" y1="2775.793" x2="1176.5963" y2="1882.264">
					<stop  offset="0" style="stop-color:#E1473D"/>
					<stop  offset="1" style="stop-color:#E9605A"/>
				</linearGradient>
				<path class="st36" d="M813.32,1438.44l656.98-10.84l51.43-44.78l-667.5,7.84c-22.6,0-40.92,12.97-40.92,28.97V1438.44z"/>
				<g class="st33">
					<path class="st34" d="M828.94,2489.67h284.45c0.62,0,1.12-0.5,1.12-1.12V2048.8c0-0.62-0.5-1.12-1.12-1.12H828.94
						c-0.62,0-1.12,0.5-1.12,1.12v439.75C827.82,2489.16,828.32,2489.67,828.94,2489.67z"/>
					<g>
						<path class="st2" d="M982.92,2465.77h110.06c0.34,0,0.62-0.28,0.62-0.62v-392.96c0-0.34-0.28-0.62-0.62-0.62H982.92
							c-0.34,0-0.62,0.28-0.62,0.62v392.96C982.3,2465.5,982.58,2465.77,982.92,2465.77z"/>
						<path class="st4" d="M849.35,2465.77h110.06c0.34,0,0.62-0.28,0.62-0.62v-392.96c0-0.34-0.28-0.62-0.62-0.62H849.35
							c-0.34,0-0.62,0.28-0.62,0.62v392.96C848.72,2465.5,849,2465.77,849.35,2465.77z"/>
					</g>
				</g>
				<path class="st37" d="M1851.23,1179.67c0,0-680.2,513.51-697.05,513.51v1066.8c0,19.44,15.76,35.2,35.2,35.2h1327.71
					c17.23,0,31.19-13.97,31.19-31.19v-1070.8L1851.23,1179.67z"/>
				<g>
					<path class="st2" d="M2036.18,2752.47h-432.24v-64.24c0-5.02,4.07-9.08,9.08-9.08h414.08c5.01,0,9.08,4.07,9.08,9.08V2752.47z"
						/>
					<path class="st4" d="M2036.18,2810.63h-432.24v-70.15c0-1.75,1.42-3.17,3.17-3.17h425.9c1.75,0,3.17,1.42,3.17,3.17V2810.63z"
						/>
					<linearGradient id="SVGID_32_" gradientUnits="userSpaceOnUse" x1="3111.0996" y1="1450.4358" x2="2409.0676" y2="1962.5746">
						<stop  offset="0" style="stop-color:#E1473D"/>
						<stop  offset="1" style="stop-color:#E9605A"/>
					</linearGradient>
					<path class="st38" d="M1967.57,2679.15h-295.02v-571.97c0-1.97,1.59-3.56,3.56-3.56h287.9c1.97,0,3.56,1.59,3.56,3.56V2679.15z
						"/>
					<path class="st39" d="M1946.74,2064.88h-253.36c-11.5,0-20.83-9.33-20.83-20.83v-18.19c0-10.94,8.47-20.02,19.39-20.78
						l253.35-17.6c12.04-0.84,22.27,8.71,22.27,20.78v35.79C1967.57,2055.56,1958.24,2064.88,1946.74,2064.88z"/>
					<g>
						<path class="st40" d="M2201.85,1809.22h-2.8c-72.86,0-136.65,51.59-136.65,124.45v131.22h139.46V1809.22z"/>
						<path class="st40" d="M2062.39,2103.62v386.05c0,13,15.26,33.15,28.26,33.15h111.2v-419.2H2062.39z"/>
						<path class="st40" d="M2239.93,1809.22h-7.09v255.67h139.46v-131.22C2372.3,1860.8,2312.79,1809.22,2239.93,1809.22z"/>
						<path class="st40" d="M2232.84,2522.82h115.48c13,0,23.97-20.15,23.97-33.15v-386.05h-139.46V2522.82z"/>
					</g>
					<g>
						<path class="st40" d="M1433.74,1809.22h-2.8c-72.86,0-136.65,51.59-136.65,124.45v131.22h139.46V1809.22z"/>
						<path class="st2" d="M1294.29,2103.62v386.05c0,13,15.26,33.15,28.26,33.15h111.2v-419.2H1294.29z"/>
						<path class="st40" d="M1471.82,1809.22h-7.09v255.67h139.46v-131.22C1604.19,1860.8,1544.68,1809.22,1471.82,1809.22z"/>
						<path class="st40" d="M1464.73,2522.82h115.48c13,0,23.97-20.15,23.97-33.15v-386.05h-139.46V2522.82z"/>
					</g>
					<linearGradient id="SVGID_33_" gradientUnits="userSpaceOnUse" x1="1707.6417" y1="2332.9241" x2="1806.0222" y2="2332.9241">
						<stop  offset="0" style="stop-color:#FEBBBA"/>
						<stop  offset="1" style="stop-color:#FF928E"/>
					</linearGradient>
					<path class="st41" d="M1779.1,2524.44h-44.53c-14.85,0-26.93-12.08-26.93-26.93v-329.17c0-14.85,12.08-26.93,26.93-26.93h44.53
						c14.85,0,26.93,12.08,26.93,26.93v329.17C1806.02,2512.36,1793.94,2524.44,1779.1,2524.44z M1734.57,2144.65
						c-13.06,0-23.69,10.63-23.69,23.69v329.17c0,13.06,10.63,23.69,23.69,23.69h44.53c13.06,0,23.69-10.63,23.69-23.69v-329.17
						c0-13.06-10.63-23.69-23.69-23.69H1734.57z"/>
					<linearGradient id="SVGID_34_" gradientUnits="userSpaceOnUse" x1="1831.8943" y1="2332.9241" x2="1930.2749" y2="2332.9241">
						<stop  offset="0" style="stop-color:#FEBBBA"/>
						<stop  offset="1" style="stop-color:#FF928E"/>
					</linearGradient>
					<path class="st42" d="M1903.35,2524.44h-44.53c-14.85,0-26.93-12.08-26.93-26.93v-329.17c0-14.85,12.08-26.93,26.93-26.93
						h44.53c14.85,0,26.93,12.08,26.93,26.93v329.17C1930.27,2512.36,1918.2,2524.44,1903.35,2524.44z M1858.82,2144.65
						c-13.06,0-23.69,10.63-23.69,23.69v329.17c0,13.06,10.63,23.69,23.69,23.69h44.53c13.06,0,23.69-10.63,23.69-23.69v-329.17
						c0-13.06-10.63-23.69-23.69-23.69H1858.82z"/>
					<linearGradient id="SVGID_35_" gradientUnits="userSpaceOnUse" x1="1707.6417" y1="2589.554" x2="1806.0222" y2="2589.554">
						<stop  offset="0" style="stop-color:#FEBBBA"/>
						<stop  offset="1" style="stop-color:#FF928E"/>
					</linearGradient>
					<path class="st43" d="M1779.1,2635.41h-44.53c-14.85,0-26.93-12.08-26.93-26.93v-37.86c0-14.85,12.08-26.93,26.93-26.93h44.53
						c14.85,0,26.93,12.08,26.93,26.93v37.86C1806.02,2623.33,1793.94,2635.41,1779.1,2635.41z M1734.57,2546.93
						c-13.06,0-23.69,10.63-23.69,23.69v37.86c0,13.06,10.63,23.69,23.69,23.69h44.53c13.06,0,23.69-10.63,23.69-23.69v-37.86
						c0-13.06-10.63-23.69-23.69-23.69H1734.57z"/>
					<linearGradient id="SVGID_36_" gradientUnits="userSpaceOnUse" x1="1831.8943" y1="2589.554" x2="1930.2749" y2="2589.554">
						<stop  offset="0" style="stop-color:#FEBBBA"/>
						<stop  offset="1" style="stop-color:#FF928E"/>
					</linearGradient>
					<path class="st44" d="M1903.35,2635.41h-44.53c-14.85,0-26.93-12.08-26.93-26.93v-37.86c0-14.85,12.08-26.93,26.93-26.93h44.53
						c14.85,0,26.93,12.08,26.93,26.93v37.86C1930.27,2623.33,1918.2,2635.41,1903.35,2635.41z M1858.82,2546.93
						c-13.06,0-23.69,10.63-23.69,23.69v37.86c0,13.06,10.63,23.69,23.69,23.69h44.53c13.06,0,23.69-10.63,23.69-23.69v-37.86
						c0-13.06-10.63-23.69-23.69-23.69H1858.82z"/>
					<path class="st0" d="M2384.36,2546.93h-335.7c-19.25,0-34.91-15.66-34.91-34.91v-581.23c0-91.91,74.78-166.69,166.69-166.69
						h72.13c91.91,0,166.69,74.78,166.69,166.69v581.23C2419.27,2531.27,2403.61,2546.93,2384.36,2546.93z M2180.44,1767.33
						c-90.13,0-163.46,73.33-163.46,163.46v581.23c0,17.47,14.21,31.68,31.68,31.68h335.7c17.47,0,31.68-14.21,31.68-31.68v-581.23
						c0-90.13-73.33-163.46-163.46-163.46H2180.44z"/>
					<path class="st0" d="M1616.4,2546.93h-335.7c-19.25,0-34.91-15.66-34.91-34.91v-581.23c0-91.91,74.78-166.69,166.69-166.69
						h72.13c91.91,0,166.69,74.78,166.69,166.69v581.23C1651.31,2531.27,1635.65,2546.93,1616.4,2546.93z M1412.49,1767.33
						c-90.13,0-163.46,73.33-163.46,163.46v581.23c0,17.47,14.21,31.68,31.68,31.68h335.7c17.47,0,31.68-14.21,31.68-31.68v-581.23
						c0-90.13-73.33-163.46-163.46-163.46H1412.49z"/>
				</g>
				<g>
					<linearGradient id="SVGID_37_" gradientUnits="userSpaceOnUse" x1="2201.2061" y1="1304.9498" x2="2673.7461" y2="566.0682">
						<stop  offset="0" style="stop-color:#E1473D"/>
						<stop  offset="1" style="stop-color:#E9605A"/>
					</linearGradient>
					<rect x="2156.46" y="1190.89" class="st45" width="115.31" height="187.75"/>
					<linearGradient id="SVGID_38_" gradientUnits="userSpaceOnUse" x1="2205.7075" y1="930.5694" x2="2236.0483" y2="1673.9198">
						<stop  offset="0" style="stop-color:#E1473D"/>
						<stop  offset="1" style="stop-color:#E9605A"/>
					</linearGradient>
					<path class="st46" d="M2309.78,1221.31h-186.38v-51.56c0-3.37,2.73-6.1,6.1-6.1h171.01c5.12,0,9.28,4.15,9.28,9.28V1221.31z"/>
					<linearGradient id="SVGID_39_" gradientUnits="userSpaceOnUse" x1="2682.9033" y1="259.5865" x2="2536.8452" y2="508.7447">
						<stop  offset="0" style="stop-color:#FF928E"/>
						<stop  offset="1" style="stop-color:#FE7062"/>
					</linearGradient>
					<path class="st47" d="M1111.44,1747.02l739.78-567.35l702.22,544.69c25.52,19.8,62.96,5.93,69.43-25.72l9.85-48.18
						l-781.51-595.33l-756.46,577.79c-13.54,10.35-18.46,28.49-11.99,44.26L1111.44,1747.02z"/>
				</g>
			</g>
		</g>
		<g>
			<g>
				<path class="st2" d="M937.66,1993.04c-20.78,5.57-41.62,15.12-49.61,26.46c-36.04,51.18,19.3,122.07,38.33,169.11
					c32.7,80.82,43.51,168.92,19.47,253.45c-26.05,91.59-42.43,181.75-30.29,275.6c6.26,48.35,22.06,99.63,58.82,138.15
					c69.47,72.77,249.05,32.01,284.64-50.04c28.38-65.44,18.73-136.52-0.3-201.78c-32.01-109.78-85.04-213.91-117.89-323.45
					c-25.12-83.77-11.58-250.81-128.89-287.21C990.5,1986.67,959.71,1987.13,937.66,1993.04z"/>
				<path class="st4" d="M1092.97,3028.11c-0.6,0.03-1.21-0.03-1.82-0.2c-2.9-0.83-4.58-3.85-3.75-6.75
					c81.2-283.64,39.41-538.23-9.94-701.86c-53.53-177.47-127.25-289.23-127.99-290.34c-1.67-2.51-0.99-5.9,1.52-7.57
					c2.51-1.68,5.9-1,7.57,1.51c0.75,1.12,75.23,113.96,129.24,292.87c49.85,165.11,92.07,422.04,10.09,708.39
					C1097.25,3026.45,1095.22,3027.98,1092.97,3028.11z"/>
			</g>
			<g>
				<path class="st4" d="M1140.63,2709.55c-5.6-65.87,23.03-139.18,39.4-207.37c8.66-36.05,13.93-72.05,10.49-109.17
					c-3.42-36.91-17.98-77.54,0.24-112.89c36.71-71.21,110.32-32.86,150.1,25.19c46.17,67.37,53.05,172.93,66.88,254.78
					c8.34,49.34,22.44,100.32,25.26,150.23c4.68,82.68-17.61,138.4-59.38,174.27c-40.06,34.4-97.87,38.28-142.22,9.61
					C1191.36,2868.29,1149.68,2815.81,1140.63,2709.55z"/>
				<path class="st40" d="M1295.66,3026.35c-0.84,0.22-1.74,0.24-2.63,0.03c-2.93-0.7-4.75-3.64-4.06-6.57
					c0.92-3.89,90.8-392.53-15.76-715.64c-0.94-2.86,0.61-5.95,3.48-6.89c2.81-0.94,5.95,0.61,6.89,3.48
					c107.54,326.09,16.95,717.66,16.02,721.58C1299.11,3024.35,1297.55,3025.85,1295.66,3026.35z"/>
			</g>
		</g>
	</g>
</g>
</svg>
