<?xml version="1.0" encoding="utf-8"?>
<!-- Generator: Adobe Illustrator 24.0.2, SVG Export Plug-In . SVG Version: 6.00 Build 0)  -->
<svg version="1.1" xmlns="http://www.w3.org/2000/svg" xmlns:xlink="http://www.w3.org/1999/xlink" x="0px" y="0px"
	 viewBox="0 0 3710 3710" style="enable-background:new 0 0 3710 3710;" xml:space="preserve">
<style type="text/css">
	.st0{fill:url(#SVGID_1_);}
	.st1{fill:#BDD0FB;}
	.st2{fill:url(#SVGID_2_);}
	.st3{fill:#91B3FA;}
	.st4{opacity:0.5;fill:#FFFFFF;}
	.st5{fill:url(#SVGID_3_);}
	.st6{opacity:0.6;}
	.st7{fill:#FFFFFF;}
	.st8{opacity:0.6;fill:#FFFFFF;}
	.st9{fill:url(#SVGID_4_);}
	.st10{fill:url(#SVGID_5_);}
	.st11{fill:url(#SVGID_6_);}
	.st12{fill:url(#SVGID_7_);}
	.st13{fill:url(#SVGID_8_);}
	.st14{fill:url(#SVGID_9_);}
	.st15{fill:#7D97F4;}
	.st16{fill:url(#SVGID_10_);}
	.st17{fill:url(#SVGID_11_);}
	.st18{fill:url(#SVGID_12_);}
	.st19{fill:url(#SVGID_13_);}
	.st20{fill:url(#SVGID_14_);}
	.st21{fill:url(#SVGID_15_);}
	.st22{fill:url(#SVGID_16_);}
	.st23{fill:url(#SVGID_17_);}
	.st24{fill:url(#SVGID_18_);}
	.st25{fill:url(#SVGID_19_);}
	.st26{fill:url(#SVGID_20_);}
	.st27{fill:url(#SVGID_21_);}
	.st28{fill:url(#SVGID_22_);}
	.st29{fill:url(#SVGID_23_);}
	.st30{fill:url(#SVGID_24_);}
	.st31{fill:url(#SVGID_25_);}
	.st32{fill:url(#SVGID_26_);}
	.st33{fill:url(#SVGID_27_);}
</style>
<g id="Background">
</g>
<g id="Illustration">
	<g>
		<linearGradient id="SVGID_1_" gradientUnits="userSpaceOnUse" x1="3030.8259" y1="3243.0747" x2="882.9026" y2="796.0697">
			<stop  offset="0" style="stop-color:#DAE3FE"/>
			<stop  offset="1" style="stop-color:#E9EFFD"/>
		</linearGradient>
		<path class="st0" d="M2736.15,2702.34c-432.59,456.51-1097.08,321.46-1195.3,299.76c-123.74-27.34-418.14-92.39-637.83-349.23
			c-336.35-393.21-302.38-1007.74-42.62-1422.06c75.58-120.55,329.94-478.81,807.61-556.71c27.92-4.55,526.71-77.68,928.04,259.05
			c54.11,45.4,141.45,127.63,218,247.35C3051.51,1551.9,3163.9,2250.95,2736.15,2702.34z"/>
		<g>
			<g>
				<path class="st1" d="M2250.24,1490.95c-26.76,97.01-71.78,223.56-118.08,331.3l-16.66-2.93
					c58.17-129.61,122.42-309.82,150.79-525.59c28.61-217.59,21.85-489.08,142.5-596.98c100.41-89.8,451.44-44.11,566.37-26.26
					c14.36,2.23,19.65,20.16,8.77,29.8c-53.63,47.52-168.08,159.29-195.74,269.61c-36.46,145.4-171.25,240.85-293.44,268.96
					S2304.87,1292.9,2250.24,1490.95z"/>
				
					<linearGradient id="SVGID_2_" gradientUnits="userSpaceOnUse" x1="2425.3816" y1="770.9768" x2="2856.8076" y2="770.9768" gradientTransform="matrix(0.9849 0.1733 -0.1733 0.9849 78.0869 -171.1183)">
					<stop  offset="0" style="stop-color:#DAE3FE"/>
					<stop  offset="1" style="stop-color:#E9EFFD"/>
				</linearGradient>
				<path class="st2" d="M2815.96,736.34c-73.59,5.49-145.88,25.9-211.92,59.66c-33.06,16.78-64.06,37.89-91.94,62.63
					c-27.67,24.95-52.26,53.65-71.48,85.74l-7.15,12.06c-2.35,4.04-4.33,8.28-6.51,12.41c-2.07,4.17-4.32,8.34-6.24,12.5
					l-5.78,12.47c-7.75,16.62-15.41,33.27-22.91,50c-15.04,33.44-29.55,67.13-43.53,101.03c-28,67.8-53.91,136.44-75.58,206.64
					c-0.52,1.68,0.42,3.47,2.11,3.99c1.63,0.5,3.35-0.36,3.93-1.93l0.03-0.09c12.65-34.21,25.98-68.3,39.94-102.07
					c13.81-33.84,28.03-67.51,42.61-101.02l22.04-50.19l22.6-49.94c7.52-16.65,15.22-33.23,22.99-49.77l5.8-12.42
					c1.93-4.14,4.05-8.02,6.07-12.04c2.07-3.97,3.93-8.06,6.17-11.93l6.79-11.6c18.19-30.92,41.81-58.36,68.03-82.87
					c13.38-11.97,27.22-23.53,42.1-33.7l5.51-3.92l5.66-3.7c3.78-2.45,7.5-5,11.34-7.38c7.74-4.64,15.42-9.38,23.41-13.61
					c31.64-17.5,65.41-31.14,99.97-42.23c34.55-11.05,70.3-19.23,106.28-23.62l0.17-0.02c1.4-0.17,2.4-1.45,2.23-2.85
					C2818.52,737.22,2817.31,736.24,2815.96,736.34z"/>
			</g>
			<g>
				<path class="st3" d="M2446.19,1545.61c-18.73,117.17,12.37,163.18,30.28,206.12c3.18,7.62,7.73,18.37,12.73,31.25l-16.51,7.76
					c-4.68-18.71-10.4-37.09-17.5-54.43c-48.72-118.93-115.72-329.52-71.29-495.22c44.43-165.7,149.05-228.08,337.96-185.23
					c157.43,35.7,250.6,47.27,296.7,35.9c11.41-2.82,22.28,6.46,21.59,18.2c-3.63,62.48-26.31,212.73-158.4,264.99
					C2713.28,1441.61,2464.93,1428.44,2446.19,1545.61z"/>
				<path class="st4" d="M2742.19,1220.72c-13.1-4.36-26.34-7.62-39.77-10.46c-13.4-2.82-26.95-5.14-40.61-6.64
					c-27.3-3.12-55.12-3.66-82.77-0.03c-13.81,1.86-27.57,4.75-41,9.09c-13.39,4.42-26.43,10.3-38.53,17.93
					c-2.95,2.02-6.04,3.84-8.87,6.04c-2.79,2.22-5.76,4.35-8.4,6.66l-15.41,14.08l-14.43,15.16l-13.25,16.26
					c-16.87,22.36-29.66,47.87-37.7,74.62c-8.2,26.76-11.35,54.63-11.78,82.17l-0.16,10.34c-0.1,3.45,0.26,6.88,0.37,10.32
					c0.39,6.87,0.56,13.75,1.13,20.59l2.2,20.46c0.59,6.84,2.06,13.54,3.12,20.3c4.33,27.03,11.02,53.53,18.36,79.74
					c0.41,1.46,1.93,2.32,3.39,1.91c1.4-0.39,2.24-1.79,1.96-3.19l-0.02-0.09c-5.43-26.52-11.09-52.97-14.01-79.77
					c-1.88-13.34-2.62-26.76-3.73-40.13c-0.36-6.69-0.33-13.39-0.51-20.08c-0.01-3.34-0.27-6.69-0.07-10.03l0.45-10
					c1.1-26.64,5.23-53.07,13.17-78.21c7.95-25.15,20.37-48.65,36.21-69.63l12.54-15.24l13.71-14.26l14.72-13.3
					c2.47-2.15,5.02-4,7.52-6.02c2.51-1.99,5.29-3.63,7.91-5.47c10.82-6.93,22.65-12.38,34.99-16.55
					c12.32-4.26,25.15-7.28,38.19-9.31c26.11-4.11,52.94-4.54,79.68-2.92c13.37,0.91,26.76,2.13,40.08,4.01
					c13.3,1.9,26.65,4.23,39.7,7.14l0.09,0.02c1.54,0.34,3.07-0.63,3.41-2.17C2744.4,1222.62,2743.56,1221.18,2742.19,1220.72z"/>
			</g>
		</g>
		<g>
			<linearGradient id="SVGID_3_" gradientUnits="userSpaceOnUse" x1="1590.9718" y1="2887.2178" x2="1474.3799" y2="-563.9636">
				<stop  offset="0" style="stop-color:#09005D"/>
				<stop  offset="1" style="stop-color:#1A0F91"/>
			</linearGradient>
			<path class="st5" d="M770.7,1069.01c0-82.33,66.74-149.07,149.07-149.07h1267.69c69.94,0,127.61,54.81,131.16,124.65
				l93.57,1837.91c2.78,54.66-40.24,100.76-94.96,101.76L864.3,3010.67c-51.42,0.93-93.6-40.49-93.6-91.91V1069.01z"/>
			<g>
				<path class="st3" d="M874.55,948.23c-0.16-26.34,23.01-46.73,49.11-43.19c173.11,23.48,768.41,96.08,1260.59,58.3
					c22.45-1.72,41.92,15.28,43.12,37.76l98.12,1846.11c1.35,25.31-17.98,46.96-43.29,48.46c-207,12.25-1059.51,59.61-1363.58,27.76
					c-18.51-1.94-32.55-17.52-32.66-36.13L874.55,948.23z"/>
				<path class="st1" d="M894.94,994.49c-0.15-25.35,22.14-44.97,47.26-41.56c166.6,22.59,739.48,92.46,1213.13,56.11
					c21.6-1.66,40.35,14.71,41.5,36.34l94.42,1776.59c1.29,24.36-17.31,45.19-41.66,46.63
					c-199.21,11.79-1019.61,57.36-1312.24,26.71c-17.81-1.87-31.33-16.86-31.43-34.77L894.94,994.49z"/>
				<g class="st6">
					<path class="st7" d="M2027.55,1196.32c4.08,0,7.33-3.34,7.21-7.42l-1.03-35.18c-0.12-4.08-3.56-7.48-7.64-7.55l-938.2-16.72
						c-4.08-0.07-6.31,3.02-4.96,6.87l18.67,53c1.36,3.85,5.81,7,9.89,7H2027.55z"/>
				</g>
				<g class="st6">
					<path class="st7" d="M1087.9,1268.43c-4.08-0.07-6.31,3.02-4.96,6.87l18.67,53c1.36,3.85,5.81,7,9.89,7h916.06
						c4.08,0,7.33-3.34,7.21-7.42l-1.03-35.18c-0.12-4.08-3.56-7.48-7.64-7.55L1087.9,1268.43z"/>
				</g>
				<g class="st6">
					<path class="st7" d="M1087.9,1409.43c-4.08-0.07-6.31,3.02-4.96,6.87l18.67,53c1.36,3.85,5.81,7,9.89,7h916.06
						c4.08,0,7.33-3.34,7.21-7.42l-1.03-35.18c-0.12-4.08-3.56-7.48-7.64-7.55L1087.9,1409.43z"/>
				</g>
				<g class="st6">
					<path class="st7" d="M2147.76,1655.07c2.09,0,3.68-1.7,3.54-3.78l-1.19-17.99c-0.14-2.08-1.96-3.8-4.04-3.81l-1093.23-8.62
						c-2.09-0.02-2.73,1.31-1.43,2.94l22.53,28.3c1.3,1.63,4.07,2.97,6.16,2.97H2147.76z"/>
				</g>
				<g class="st6">
					<path class="st7" d="M1052.83,1691.87c-2.09-0.02-2.73,1.31-1.43,2.94l22.53,28.3c1.3,1.63,4.07,2.97,6.16,2.97h1067.66
						c2.09,0,3.68-1.7,3.54-3.78l-1.19-17.99c-0.14-2.08-1.96-3.8-4.04-3.81L1052.83,1691.87z"/>
				</g>
				<g>
					<path class="st7" d="M1197.29,2176.17c-0.08,0-0.16,0-0.25,0l-90.4-0.87c-12.92-0.13-23.58-9.01-24.8-20.67l-7.95-75.85
						c-0.47-4.45,0.92-8.85,3.89-12.4c3.33-3.96,8.37-6.45,13.83-6.83l0,0c7.62-0.52,18.34-1.43,29.7-2.4
						c23.91-2.04,53.67-4.57,70.41-4.78c12.15-0.06,22.45,7.13,25.31,17.71c4.71,17.41,4.3,50.37,3.4,85.48
						C1220.15,2166.98,1209.79,2176.17,1197.29,2176.17z M1092.09,2066.49c-3.59,0.24-6.87,1.84-8.99,4.37
						c-1.75,2.08-2.57,4.64-2.3,7.2l7.95,75.85c0.85,8.15,8.58,14.36,17.96,14.45l90.4,0.87c0.06,0,0.12,0,0.18,0
						c8.76,0,16.01-6.17,16.21-13.83c0.88-34.58,1.3-66.98-3.16-83.5c-2-7.4-9.7-12.55-18.53-12.58
						c-16.49,0.21-46.11,2.73-69.91,4.76C1110.52,2065.05,1099.77,2065.97,1092.09,2066.49L1092.09,2066.49z"/>
					<path class="st8" d="M1101.82,2074.32c18.99-1.3,60.27-5.49,79.84-5.73c8.3-0.1,15.57,4.91,17.52,12.1
						c3.78,13.97,3.28,41.82,2.62,67.52c-0.2,7.7-7.27,13.84-15.9,13.76l-72.24-0.69c-8.88-0.08-16.26-6.14-17.09-14.03l-6.35-60.61
						C1089.56,2080.35,1094.78,2074.8,1101.82,2074.32z"/>
					<g class="st6">
						<path class="st7" d="M1276.69,2125.81c2.62,9.92,11.63,16.81,21.9,16.72l836.43-7.13c9.46-0.08,17.03-7.88,16.82-17.34
							c-0.2-9.2-7.69-16.56-16.89-16.6l-836.45-3.81C1283.73,2097.57,1272.92,2111.53,1276.69,2125.81z"/>
					</g>
					<linearGradient id="SVGID_4_" gradientUnits="userSpaceOnUse" x1="1371.1069" y1="1711.3662" x2="909.4908" y2="2499.2363">
						<stop  offset="0" style="stop-color:#E1473D"/>
						<stop  offset="1" style="stop-color:#E9605A"/>
					</linearGradient>
					<path class="st9" d="M1105.67,2086.22L1105.67,2086.22c6.71-3.94,15.35-1.59,19.14,5.21l17.83,31.96c1.78,3.2,6.45,3,7.96-0.34
						l44.23-98.46c2.21-4.91,9.52-3.25,9.44,2.13c-0.45,30.12-8.44,87.36-56.56,135.28c0,0-26.52-10.31-47.87-57.2
						C1096.73,2098.02,1099.25,2089.98,1105.67,2086.22z"/>
					<path class="st7" d="M1197.29,2369.92c-0.08,0-0.16,0-0.25,0l-90.4-0.87c-12.92-0.13-23.58-9.01-24.8-20.67l-7.95-75.85
						c-0.47-4.45,0.92-8.85,3.89-12.4c3.33-3.96,8.37-6.45,13.83-6.83l0,0c7.62-0.52,18.34-1.43,29.7-2.4
						c23.91-2.04,53.67-4.57,70.41-4.78c0.12,0,0.24,0,0.36,0c11.89,0,22.12,7.24,24.95,17.71c4.71,17.41,4.3,50.37,3.4,85.48
						C1220.15,2360.73,1209.79,2369.92,1197.29,2369.92z M1092.09,2260.24c-3.59,0.24-6.87,1.84-8.99,4.37
						c-1.75,2.08-2.57,4.64-2.3,7.2l7.95,75.85c0.85,8.15,8.58,14.36,17.96,14.45l90.4,0.87c0.06,0,0.12,0,0.18,0
						c8.76,0,16.01-6.17,16.21-13.83c0.88-34.58,1.3-66.98-3.16-83.5c-2-7.4-9.81-12.71-18.53-12.57
						c-16.49,0.21-46.11,2.73-69.91,4.76C1110.52,2258.8,1099.77,2259.72,1092.09,2260.24L1092.09,2260.24z"/>
					<path class="st8" d="M1101.82,2268.07c18.99-1.3,60.27-5.49,79.84-5.73c8.3-0.1,15.57,4.91,17.52,12.1
						c3.78,13.97,3.28,41.82,2.62,67.52c-0.2,7.7-7.27,13.84-15.9,13.76l-72.24-0.69c-8.88-0.09-16.26-6.14-17.09-14.03l-6.35-60.61
						C1089.56,2274.11,1094.78,2268.55,1101.82,2268.07z"/>
					<g class="st6">
						<path class="st7" d="M1276.69,2319.56c2.62,9.92,11.63,16.81,21.9,16.72l836.43-7.13c9.46-0.08,17.03-7.88,16.82-17.34
							c-0.2-9.2-7.69-16.56-16.89-16.6l-836.45-3.81C1283.73,2291.32,1272.92,2305.28,1276.69,2319.56z"/>
					</g>
					<linearGradient id="SVGID_5_" gradientUnits="userSpaceOnUse" x1="1455.6163" y1="1760.8798" x2="993.9993" y2="2548.7517">
						<stop  offset="0" style="stop-color:#E1473D"/>
						<stop  offset="1" style="stop-color:#E9605A"/>
					</linearGradient>
					<path class="st10" d="M1105.67,2279.97L1105.67,2279.97c6.71-3.94,15.35-1.59,19.14,5.21l17.83,31.96
						c1.78,3.2,6.45,3,7.96-0.34l44.23-98.46c2.21-4.91,9.52-3.25,9.44,2.13c-0.45,30.12-8.44,87.36-56.56,135.28
						c0,0-26.52-10.31-47.87-57.2C1096.73,2291.77,1099.25,2283.73,1105.67,2279.97z"/>
					<path class="st7" d="M1197.29,2563.67c-0.08,0-0.16,0-0.25,0l-90.4-0.87c-12.92-0.12-23.58-9.01-24.8-20.67l-7.95-75.85
						c-0.47-4.45,0.92-8.86,3.89-12.4c3.33-3.96,8.37-6.45,13.83-6.83l0,0c7.62-0.52,18.34-1.43,29.7-2.4
						c23.91-2.04,53.67-4.57,70.41-4.78c0.12,0,0.24,0,0.36,0c11.89,0,22.12,7.24,24.95,17.71c4.71,17.41,4.3,50.37,3.4,85.48
						C1220.15,2554.48,1209.79,2563.67,1197.29,2563.67z M1092.09,2454c-3.59,0.24-6.87,1.84-8.99,4.37
						c-1.75,2.08-2.57,4.64-2.3,7.21l7.95,75.85c0.85,8.15,8.58,14.36,17.96,14.45l90.4,0.87c0.06,0,0.12,0,0.18,0
						c8.76,0,16.01-6.17,16.21-13.83c0.88-34.58,1.3-66.98-3.16-83.5c-2-7.4-9.81-12.74-18.53-12.57
						c-16.49,0.21-46.11,2.73-69.91,4.76C1110.52,2452.55,1099.77,2453.47,1092.09,2454L1092.09,2454z"/>
					<path class="st8" d="M1101.82,2461.82c18.99-1.3,60.27-5.49,79.84-5.73c8.3-0.1,15.57,4.91,17.52,12.1
						c3.78,13.97,3.28,41.82,2.62,67.52c-0.2,7.7-7.27,13.84-15.9,13.76l-72.24-0.69c-8.88-0.09-16.26-6.14-17.09-14.03l-6.35-60.61
						C1089.56,2467.86,1094.78,2462.31,1101.82,2461.82z"/>
					<g class="st6">
						<path class="st7" d="M1276.69,2513.31c2.62,9.92,11.63,16.81,21.9,16.72l836.43-7.13c9.46-0.08,17.03-7.88,16.82-17.34
							c-0.2-9.2-7.69-16.56-16.89-16.6l-836.45-3.82C1283.73,2485.07,1272.92,2499.03,1276.69,2513.31z"/>
					</g>
					<linearGradient id="SVGID_6_" gradientUnits="userSpaceOnUse" x1="1526.673" y1="1955.1" x2="919.2829" y2="2801.9749">
						<stop  offset="0" style="stop-color:#E1473D"/>
						<stop  offset="1" style="stop-color:#E9605A"/>
					</linearGradient>
					<path class="st11" d="M1105.67,2473.72L1105.67,2473.72c6.71-3.94,15.35-1.59,19.14,5.21l17.83,31.96
						c1.78,3.2,6.45,3,7.96-0.34l44.23-98.46c2.21-4.91,9.52-3.25,9.44,2.13c-0.45,30.12-8.44,87.36-56.56,135.28
						c0,0-26.52-10.31-47.87-57.2C1096.73,2485.52,1099.25,2477.49,1105.67,2473.72z"/>
					<path class="st7" d="M1197.29,2757.43c-0.08,0-0.16,0-0.25,0l-90.4-0.87c-12.92-0.12-23.58-9.01-24.8-20.67l-7.95-75.85
						c-0.47-4.45,0.92-8.86,3.89-12.4c3.33-3.96,8.37-6.45,13.83-6.83l0,0c7.62-0.52,18.34-1.43,29.7-2.4
						c23.91-2.04,53.67-4.57,70.41-4.78c0.12,0,0.24,0,0.36,0c11.89,0,22.12,7.24,24.95,17.71c4.71,17.41,4.3,50.37,3.4,85.48
						C1220.15,2748.23,1209.79,2757.43,1197.29,2757.43z M1092.09,2647.75c-3.59,0.24-6.87,1.84-8.99,4.37
						c-1.75,2.08-2.57,4.64-2.3,7.21l7.95,75.85c0.85,8.15,8.58,14.36,17.96,14.45l90.4,0.87c0.06,0,0.12,0,0.18,0
						c8.76,0,16.01-6.17,16.21-13.83c0.88-34.58,1.3-66.98-3.16-83.5c-2-7.4-9.81-12.76-18.53-12.58
						c-16.49,0.21-46.11,2.73-69.91,4.76C1110.52,2646.31,1099.77,2647.22,1092.09,2647.75L1092.09,2647.75z"/>
					<path class="st8" d="M1101.82,2655.58c18.99-1.3,60.27-5.49,79.84-5.73c8.3-0.1,15.57,4.91,17.52,12.1
						c3.78,13.97,3.28,41.82,2.62,67.52c-0.2,7.7-7.27,13.84-15.9,13.76l-72.24-0.69c-8.88-0.09-16.26-6.14-17.09-14.03l-6.35-60.61
						C1089.56,2661.61,1094.78,2656.06,1101.82,2655.58z"/>
					<g class="st6">
						<path class="st7" d="M1276.69,2707.06L1276.69,2707.06c2.62,9.92,11.63,16.81,21.9,16.72l836.43-7.13
							c9.46-0.08,17.03-7.88,16.82-17.34c-0.2-9.2-7.69-16.56-16.89-16.6l-836.45-3.82
							C1283.73,2678.82,1272.92,2692.79,1276.69,2707.06z"/>
					</g>
				</g>
				<path class="st7" d="M1184.76,1986.57c-0.08,0-0.16,0-0.25,0l-90.4-0.87c-12.92-0.12-23.58-9.01-24.8-20.67l-7.95-75.85
					c-0.47-4.45,0.92-8.86,3.89-12.4c3.33-3.96,8.37-6.45,13.83-6.83l0,0c7.62-0.52,18.34-1.43,29.7-2.4
					c23.91-2.04,53.67-4.57,70.41-4.78c0.12,0,0.24,0,0.36,0c11.89,0,22.12,7.24,24.95,17.71c4.71,17.41,4.3,50.37,3.4,85.48
					C1207.62,1977.38,1197.26,1986.57,1184.76,1986.57z M1079.57,1876.9c-3.59,0.24-6.87,1.84-8.99,4.37
					c-1.75,2.08-2.57,4.64-2.3,7.21l7.95,75.85c0.85,8.15,8.58,14.36,17.96,14.45l90.4,0.87c0.06,0,0.12,0,0.18,0
					c8.76,0,16.01-6.17,16.21-13.83c0.88-34.58,1.3-66.98-3.16-83.5c-2-7.4-9.81-12.76-18.53-12.58
					c-16.49,0.21-46.11,2.73-69.91,4.76C1097.99,1875.45,1087.24,1876.37,1079.57,1876.9L1079.57,1876.9z"/>
				<path class="st8" d="M1089.29,1884.72c18.99-1.3,60.27-5.49,79.84-5.73c8.3-0.1,15.57,4.91,17.52,12.1
					c3.78,13.97,3.28,41.82,2.62,67.52c-0.2,7.7-7.27,13.84-15.9,13.76l-72.24-0.69c-8.88-0.09-16.26-6.14-17.09-14.03l-6.35-60.61
					C1077.04,1890.76,1082.25,1885.21,1089.29,1884.72z"/>
				<g class="st6">
					<path class="st7" d="M1264.16,1936.21L1264.16,1936.21c2.62,9.92,11.63,16.81,21.9,16.72l836.43-7.13
						c9.46-0.08,17.03-7.88,16.82-17.34c-0.2-9.2-7.69-16.56-16.89-16.6l-836.45-3.82
						C1271.2,1907.97,1260.4,1921.93,1264.16,1936.21z"/>
				</g>
				<linearGradient id="SVGID_7_" gradientUnits="userSpaceOnUse" x1="1612.1082" y1="1089.0565" x2="1150.4916" y2="1876.9276">
					<stop  offset="0" style="stop-color:#E1473D"/>
					<stop  offset="1" style="stop-color:#E9605A"/>
				</linearGradient>
				<path class="st12" d="M1093.14,1896.62L1093.14,1896.62c6.71-3.94,15.35-1.59,19.14,5.21l17.83,31.96c1.78,3.2,6.45,3,7.96-0.34
					l44.23-98.46c2.21-4.91,9.52-3.25,9.44,2.13c-0.45,30.12-8.44,87.36-56.56,135.28c0,0-26.52-10.31-47.87-57.2
					C1084.21,1908.42,1086.72,1900.39,1093.14,1896.62z"/>
			</g>
			<linearGradient id="SVGID_8_" gradientUnits="userSpaceOnUse" x1="1773.6694" y1="480.1262" x2="1190.5768" y2="1247.1709">
				<stop  offset="0" style="stop-color:#09005D"/>
				<stop  offset="1" style="stop-color:#1A0F91"/>
			</linearGradient>
			<path class="st13" d="M1632.23,669.35c-45.79-31.86-85.61-31.22-113.63-22.95c-25.57,7.54-42.14,32.23-39.71,58.78l12.09,131.93
				l143.83,12.76C1634.81,849.87,1722.04,731.83,1632.23,669.35z M1568.98,775.79c-19.81,0-35.86-16.06-35.86-35.86
				s16.06-35.87,35.86-35.87c19.81,0,35.86,16.06,35.86,35.87S1588.79,775.79,1568.98,775.79z"/>
			<path class="st3" d="M1505.35,781.61c-1.77,0-3.29-1.35-3.45-3.16l-1.93-21.01c-0.18-1.91,1.23-3.6,3.14-3.77
				c1.95-0.18,3.6,1.23,3.77,3.14l1.93,21.01c0.18,1.91-1.23,3.6-3.14,3.77C1505.56,781.6,1505.45,781.61,1505.35,781.61z
				 M1501.57,740.43c-1.77,0-3.29-1.35-3.45-3.16l-1.46-15.95c-2.32-25.29,13.6-48.84,37.83-55.99c17.17-5.07,34.86-5.79,52.57-2.16
				c1.88,0.38,3.09,2.22,2.7,4.1c-0.38,1.87-2.2,3.07-4.1,2.7c-16.59-3.4-33.15-2.72-49.21,2.02c-21.07,6.22-34.9,26.7-32.89,48.7
				l1.46,15.95c0.18,1.91-1.23,3.6-3.14,3.77C1501.79,740.43,1501.68,740.43,1501.57,740.43z"/>
			<linearGradient id="SVGID_9_" gradientUnits="userSpaceOnUse" x1="1837.6301" y1="528.7463" x2="1254.5369" y2="1295.7919">
				<stop  offset="0" style="stop-color:#09005D"/>
				<stop  offset="1" style="stop-color:#1A0F91"/>
			</linearGradient>
			<path class="st14" d="M1294.67,922.37v-66.33c0-22.9,18.98-41.24,41.86-40.45l457.33,15.67c20.3,0.7,36.73,16.72,37.95,36.99
				l3.82,63.74L1294.67,922.37z"/>
			<path class="st3" d="M1465.2,840.58h-19.67c-1.92,0-3.47-1.55-3.47-3.47c0-1.92,1.55-3.47,3.47-3.47h19.67
				c1.92,0,3.47,1.55,3.47,3.47C1468.67,839.02,1467.11,840.58,1465.2,840.58z"/>
			<path class="st3" d="M1319.42,901.54c-1.92,0-3.47-1.55-3.47-3.47v-26.83c0-20.73,16.87-37.6,37.6-37.6h72.31
				c1.92,0,3.47,1.55,3.47,3.47c0,1.92-1.55,3.47-3.47,3.47h-72.31c-16.9,0-30.66,13.75-30.66,30.66v26.83
				C1322.9,899.99,1321.34,901.54,1319.42,901.54z"/>
			<path class="st15" d="M1108.33,939.12c1.1-22.97,20.05-41.03,43.04-41.03l799.73-0.02c28.76,0,53.34,20.69,58.25,49.03l0.68,3.91
				c5.37,31.04-18.52,59.42-50.02,59.42h-820.47c-18.85,0-33.87-15.76-32.97-34.59L1108.33,939.12z"/>
		</g>
		<linearGradient id="SVGID_10_" gradientUnits="userSpaceOnUse" x1="2472.7412" y1="2027.254" x2="3514.8091" y2="766.2621">
			<stop  offset="0" style="stop-color:#FF928E"/>
			<stop  offset="1" style="stop-color:#FE7062"/>
		</linearGradient>
		<polygon class="st16" points="2528.69,1687.03 2697.91,2027.3 2915.44,1543.94 2689.48,1794.1 		"/>
		<g>
			<g>
				
					<linearGradient id="SVGID_11_" gradientUnits="userSpaceOnUse" x1="-1412.1608" y1="1687.8728" x2="-1340.7152" y2="1892.0035" gradientTransform="matrix(1 0 0 1 3269.4707 0)">
					<stop  offset="0" style="stop-color:#FEBBBA"/>
					<stop  offset="1" style="stop-color:#FF928E"/>
				</linearGradient>
				<path class="st17" d="M1889.03,1797.37c-1.1,3.5,11.63,8.82,19.13-5.48c0.26-6.85,4.43-36.2,0.33-41.78
					c-21.8-29.73-64.08-66.99-64.08-66.99c-7.14,7.05-1.26,13.97-1.26,13.97l20.51,21.36c-4.29,7.75-9.52,14.29-11.97,23.67
					c-1.86,7.1-0.72,14.69,2.86,21.15c3.6,6.48,8.51,14.92,13.15,21.51C1876.49,1797.28,1889.03,1797.37,1889.03,1797.37z"/>
				
					<linearGradient id="SVGID_12_" gradientUnits="userSpaceOnUse" x1="-1357.275" y1="1818.2917" x2="-1411.0917" y2="1709.7303" gradientTransform="matrix(1 0 0 1 3269.4707 0)">
					<stop  offset="0" style="stop-color:#FEBBBA"/>
					<stop  offset="1" style="stop-color:#FF928E"/>
				</linearGradient>
				<path class="st18" d="M1872.63,1732.32l18.69,15.84l5.87,15.77l-16.66,18.48c0,0-5.6-31.3-9.77-38.07
					C1866.59,1737.57,1868.75,1734.3,1872.63,1732.32z"/>
			</g>
			<g>
				
					<linearGradient id="SVGID_13_" gradientUnits="userSpaceOnUse" x1="6132.7437" y1="2927.1357" x2="5676.8599" y2="3423.0095" gradientTransform="matrix(-1 0 0 1 8244.7529 0)">
					<stop  offset="0" style="stop-color:#09005D"/>
					<stop  offset="1" style="stop-color:#1A0F91"/>
				</linearGradient>
				<path class="st19" d="M2256.11,2964.08c0,0,4.72,26.73,7.04,53.19c0.91,10.34-7.07,19.32-17.44,19.75
					c-35.23,1.47-110.6,4.32-137.64,3.11c-4.07-0.18-6.72-4.34-5.22-8.12c1.26-3.17,3.69-5.73,6.79-7.15l124.49-57.22
					L2256.11,2964.08z"/>
				
					<linearGradient id="SVGID_14_" gradientUnits="userSpaceOnUse" x1="5984.7705" y1="2963.9646" x2="6025.2642" y2="2963.9646" gradientTransform="matrix(-1 0 0 1 8244.7529 0)">
					<stop  offset="0" style="stop-color:#FEBBBA"/>
					<stop  offset="1" style="stop-color:#FF928E"/>
				</linearGradient>
				<path class="st20" d="M2259.98,2948.37l-3.79,31.97c0,0-21.81,10.15-36.7-1.28l9.03-35.63L2259.98,2948.37z"/>
				<linearGradient id="SVGID_15_" gradientUnits="userSpaceOnUse" x1="3939.5835" y1="767.7162" x2="1619.0096" y2="3377.2644">
					<stop  offset="0" style="stop-color:#09005D"/>
					<stop  offset="1" style="stop-color:#1A0F91"/>
				</linearGradient>
				<path class="st21" d="M2257.13,2347.33c1.64,8.35,8.79,416.62-34.85,599.58c-0.71,2.99,0.8,6.06,3.64,7.22
					c6.69,2.73,19.82,6.7,35.54,7.22c4.87,0.16,9.24-3,10.61-7.68c12.47-42.45,72.25-255.14,80.05-458.31c8.71-227.03,0-7.73,0-7.73
					l-5.11-140.33L2257.13,2347.33z"/>
				
					<linearGradient id="SVGID_16_" gradientUnits="userSpaceOnUse" x1="6030.4722" y1="2833.1145" x2="5574.5913" y2="3328.9854" gradientTransform="matrix(-1 0 0 1 8244.7529 0)">
					<stop  offset="0" style="stop-color:#09005D"/>
					<stop  offset="1" style="stop-color:#1A0F91"/>
				</linearGradient>
				<path class="st22" d="M2399.32,2978.02c0,0,7.52,13.49,14.79,49.35c1.31,6.48-3.21,12.67-9.79,13.32
					c-11.63,1.14-29.54,2.62-43.89,2.52c-6.61-0.05-11.78-5.8-10.98-12.37c1.59-13.09,6.54-34.56,21.83-51.29L2399.32,2978.02z"/>
				
					<linearGradient id="SVGID_17_" gradientUnits="userSpaceOnUse" x1="5838.8311" y1="2961.8884" x2="5873.7939" y2="2961.8884" gradientTransform="matrix(-1 0 0 1 8244.7529 0)">
					<stop  offset="0" style="stop-color:#FEBBBA"/>
					<stop  offset="1" style="stop-color:#FF928E"/>
				</linearGradient>
				<path class="st23" d="M2405.92,2936.9l-8.86,48.35c0,0-8.76,6.52-26.1,1.79l4.23-52.02L2405.92,2936.9z"/>
				<linearGradient id="SVGID_18_" gradientUnits="userSpaceOnUse" x1="3974.0898" y1="798.3986" x2="1653.5154" y2="3407.9475">
					<stop  offset="0" style="stop-color:#09005D"/>
					<stop  offset="1" style="stop-color:#1A0F91"/>
				</linearGradient>
				<path class="st24" d="M2429.87,2359.85c35.69,215.41-7.74,532.4-22.39,594.44c-0.9,3.8-3.96,6.71-7.81,7.35
					c-6.54,1.08-17.3,1.97-27.92-1.11c-3.66-1.06-6.23-4.36-6.38-8.17c-1.97-50.16,1.57-358.09-31.69-479.79
					c-1.69-6.17-5.45-11.55-10.66-15.25l-64.55-45.89l-4.95-74.18L2429.87,2359.85z"/>
				<g>
					<linearGradient id="SVGID_19_" gradientUnits="userSpaceOnUse" x1="2650.4932" y1="956.1217" x2="2265.2288" y2="2129.428">
						<stop  offset="0" style="stop-color:#FF928E"/>
						<stop  offset="1" style="stop-color:#FE7062"/>
					</linearGradient>
					<path class="st25" d="M2202.43,1951.7c106.96-1.77,224.99,28.09,224.99,28.09c31.88,186.04,5.58,400.63,5.58,400.63
						c-82.81,21.72-176.22-13.28-176.22-13.28c-13.76-77.76-77.98-296.61-77.98-296.61c-52.26-6.49-95.32-21.57-130.77-41.5
						c27.04-31.35,39.79-71.24,45.33-94.82C2131.17,1945.96,2169.44,1952.24,2202.43,1951.7z"/>
					
						<linearGradient id="SVGID_20_" gradientUnits="userSpaceOnUse" x1="-1351.0951" y1="1666.4995" x2="-1279.6492" y2="1870.6315" gradientTransform="matrix(1 0 0 1 3269.4707 0)">
						<stop  offset="0" style="stop-color:#FEBBBA"/>
						<stop  offset="1" style="stop-color:#FF928E"/>
					</linearGradient>
					<path class="st26" d="M1886.48,1794.14c10.51-12.69,23.81-6.69,23.81-6.69c15.74,66.49,98.28,120.4,183.07,146.76
						c-5.54,23.58-18.29,63.47-45.33,94.82C1907.3,1949.9,1886.48,1794.14,1886.48,1794.14z"/>
				</g>
				<linearGradient id="SVGID_21_" gradientUnits="userSpaceOnUse" x1="2824.7007" y1="1013.323" x2="2439.4368" y2="2186.6279">
					<stop  offset="0" style="stop-color:#FF928E"/>
					<stop  offset="1" style="stop-color:#FE7062"/>
				</linearGradient>
				<path class="st27" d="M2386.39,2083.36l41.03-103.57c0,0,99.91,67.89,116.34,153.96c-18.88,1.39-53.23,6.3-86.86,23.28
					C2449.52,2116.38,2386.39,2083.36,2386.39,2083.36z"/>
				
					<linearGradient id="SVGID_22_" gradientUnits="userSpaceOnUse" x1="5899.7441" y1="1920.6823" x2="6003.252" y2="1920.6823" gradientTransform="matrix(-1 0 0 1 8244.7529 0)">
					<stop  offset="0" style="stop-color:#FEBBBA"/>
					<stop  offset="1" style="stop-color:#FF928E"/>
				</linearGradient>
				<path class="st28" d="M2310.78,1864.86l34.03,98.43c0.56,1.63-0.11,3.44-1.62,4.27c-9.28,5.13-42.7,19.96-82.98-5.58
					c-4.2-2.66-7.05-7-7.69-11.93l-11.02-85.19H2310.78z"/>
				<g>
					
						<linearGradient id="SVGID_23_" gradientUnits="userSpaceOnUse" x1="-1097.4873" y1="2583.3618" x2="-1136.1672" y2="2455.7866" gradientTransform="matrix(-0.746 -0.6659 -0.6659 0.746 3118.4175 -803.1727)">
						<stop  offset="0" style="stop-color:#FEBBBA"/>
						<stop  offset="1" style="stop-color:#FF928E"/>
					</linearGradient>
					<path class="st29" d="M2236.72,1773.71c0,0-37.37,70.35-32.58,98.77c4.79,28.42,51.11,26.38,91.56,3.3l28.26-75.96
						L2236.72,1773.71z"/>
					
						<linearGradient id="SVGID_24_" gradientUnits="userSpaceOnUse" x1="-1132.3845" y1="2361.0803" x2="-1100.0289" y2="2545.6265" gradientTransform="matrix(-0.746 -0.6659 -0.6659 0.746 3118.4175 -803.1727)">
						<stop  offset="0" style="stop-color:#09005D"/>
						<stop  offset="1" style="stop-color:#1A0F91"/>
					</linearGradient>
					<path class="st30" d="M2293.91,1838.47c-1.64-0.73-2.25-2.74-1.27-4.24c2.99-4.57,8.61-13.91,10.4-22.08c0,0,6.72-4.3-17.1-10
						c-23.82-5.7-59.34-14.55-66.8-34.82c-7.28-19.77,11.85-69.48,42.36-29.87c1.16,1.51,3.43,1.54,4.59,0.03
						c5-6.51,18.15-20.02,36.41-11.83c17.09,7.67,19.01,20.19,18.78,26.5c-0.07,1.86,1.59,3.3,3.42,2.95
						c8.64-1.65,29.37-3.06,39.04,18.2c7.97,17.52,2.79,27.43-1.93,32.28c-1.53,1.57-0.86,4.16,1.24,4.8
						c5.68,1.74,13.01,6.55,12.27,19.85c-1.01,18.39-21.57,16.77-27.43,15.93c-0.96-0.14-1.93,0.19-2.58,0.91
						c-5.02,5.55-27.63,29.14-52.11,31.98c-2.12,0.25-3.76-1.85-3.07-3.86l10.59-30.79c0.49-1.43-0.19-3-1.57-3.61L2293.91,1838.47z
						"/>
					
						<linearGradient id="SVGID_25_" gradientUnits="userSpaceOnUse" x1="-1137.0277" y1="2582.7676" x2="-1171.8285" y2="2467.9861" gradientTransform="matrix(-0.746 -0.6659 -0.6659 0.746 3118.4175 -803.1727)">
						<stop  offset="0" style="stop-color:#FEBBBA"/>
						<stop  offset="1" style="stop-color:#FF928E"/>
					</linearGradient>
					<path class="st31" d="M2289.65,1842.85c0,0,26.61-18.26,28.55-2.88c1.94,15.37-23.96,22.27-36.79,16.54L2289.65,1842.85z"/>
				</g>
				
					<linearGradient id="SVGID_26_" gradientUnits="userSpaceOnUse" x1="-285.6068" y1="2681.748" x2="-369.7569" y2="2077.3958" gradientTransform="matrix(-1 0 0 1 2146.073 0)">
					<stop  offset="0" style="stop-color:#FEBBBA"/>
					<stop  offset="1" style="stop-color:#FF928E"/>
				</linearGradient>
				<path class="st32" d="M2456.91,2157.02c0,0,34.92,157.54,3.29,246.11c38.78,17.98,31.62,14.59,31.62,14.59
					s76.72-224.15,51.95-283.98C2494.93,2128.56,2470.71,2141.68,2456.91,2157.02z"/>
				
					<linearGradient id="SVGID_27_" gradientUnits="userSpaceOnUse" x1="-295.6274" y1="2623.6121" x2="-362.7793" y2="2141.3376" gradientTransform="matrix(-1 0 0 1 2146.073 0)">
					<stop  offset="0" style="stop-color:#FEBBBA"/>
					<stop  offset="1" style="stop-color:#FF928E"/>
				</linearGradient>
				<path class="st33" d="M2460.19,2403.13c0,0-19.98,25.86-18.38,36.17c1.6,10.3,1.98,14.5,1.98,14.5s10.04-6.87,9.41-15.64
					c-1.4,27.85-10.72,59.52-2.24,58c8.48-1.53,52.35-41.97,42.43-85.08C2470.88,2395.41,2464.57,2397.11,2460.19,2403.13z"/>
			</g>
		</g>
	</g>
</g>
</svg>
