<?xml version="1.0" encoding="utf-8"?>
<!-- Generator: Adobe Illustrator 24.0.2, SVG Export Plug-In . SVG Version: 6.00 Build 0)  -->
<svg version="1.1" xmlns="http://www.w3.org/2000/svg" xmlns:xlink="http://www.w3.org/1999/xlink" x="0px" y="0px"
	 viewBox="0 0 3710 3710" style="enable-background:new 0 0 3710 3710;" xml:space="preserve">
<style type="text/css">
	.st0{fill:url(#SVGID_1_);}
	.st1{opacity:0.3;}
	.st2{fill:#BDD0FB;}
	.st3{fill:url(#SVGID_2_);}
	.st4{fill:url(#SVGID_3_);}
	.st5{fill:url(#SVGID_4_);}
	.st6{fill:url(#SVGID_5_);}
	.st7{fill:#FFFFFF;}
	.st8{fill:#91B3FA;}
	.st9{fill:url(#SVGID_6_);}
	.st10{opacity:0.2;fill:#91B3FA;}
	.st11{fill:#7D97F4;}
	.st12{clip-path:url(#SVGID_8_);}
	.st13{fill:url(#SVGID_9_);}
	.st14{fill:url(#SVGID_10_);}
	.st15{fill:url(#SVGID_11_);}
	.st16{fill:url(#SVGID_12_);}
	.st17{fill:url(#SVGID_13_);}
	.st18{fill:url(#SVGID_14_);}
	.st19{fill:url(#SVGID_15_);}
	.st20{fill:url(#SVGID_16_);}
	.st21{fill:url(#SVGID_17_);}
	.st22{fill:url(#SVGID_18_);}
	.st23{fill:url(#SVGID_19_);}
</style>
<g id="Background">
</g>
<g id="Illustration">
	<linearGradient id="SVGID_1_" gradientUnits="userSpaceOnUse" x1="3234.5884" y1="3071.3528" x2="1474.2761" y2="1531.0807">
		<stop  offset="0" style="stop-color:#DAE3FE"/>
		<stop  offset="1" style="stop-color:#E9EFFD"/>
	</linearGradient>
	<path class="st0" d="M2935.43,2271.42c-227.5,535.68-833.52,835.77-1359.06,754.82c-85.52-13.17-319.96-52.41-527.53-237.52
		c-399.58-356.35-485.03-1061.95-162.7-1559.21c234.6-361.92,655.14-567.08,1054.74-556.81c86.07,2.21,415.94,15.83,705.84,254.88
		c42.58,35.11,136.5,118.54,221.14,250.91C3066.61,1489.29,3083.69,1922.31,2935.43,2271.42z"/>
	<g>
		<g>
			<g class="st1">
				<path class="st2" d="M1668.82,1052.85c-3.38-0.62-5.62-3.87-5-7.25c1.21-6.57,2.15-13.29,2.79-19.97
					c0.33-3.38,3.3-5.87,6.67-5.61c0.04,0,0.08,0.01,0.12,0.01c3.42,0.33,5.93,3.37,5.6,6.8c-0.68,7.04-1.67,14.11-2.94,21.03
					c-0.58,3.16-3.46,5.33-6.6,5.08C1669.25,1052.92,1669.04,1052.89,1668.82,1052.85z M1667.52,992.88
					c-0.27-6.71-0.83-13.46-1.67-20.09c-0.43-3.41,1.99-6.52,5.4-6.96c3.43-0.42,6.53,1.99,6.96,5.4
					c0.88,6.97,1.47,14.09,1.76,21.14c0.14,3.44-2.53,6.33-5.97,6.47c-0.25,0.01-0.5,0.01-0.74-0.01
					C1670.15,998.59,1667.65,996.06,1667.52,992.88z M1659.5,940.66c-1.75-6.46-3.81-12.92-6.11-19.21
					c-1.18-3.23,0.48-6.8,3.71-7.99c3.23-1.18,6.8,0.48,7.99,3.71c2.42,6.62,4.59,13.43,6.43,20.23c0.9,3.32-1.06,6.74-4.38,7.64
					c-0.71,0.19-1.42,0.25-2.11,0.2C1662.48,945.04,1660.21,943.27,1659.5,940.66z M1640,891.55c-3.16-5.91-6.61-11.75-10.25-17.37
					c-1.87-2.88-1.05-6.74,1.83-8.61c2.88-1.87,6.74-1.05,8.61,1.83c3.84,5.91,7.47,12.06,10.79,18.28c1.62,3.03,0.47,6.8-2.56,8.42
					c-1.08,0.58-2.26,0.81-3.41,0.72C1642.97,894.67,1641.04,893.5,1640,891.55z M1610.05,848.01c-4.38-5.05-9.04-9.99-13.85-14.67
					c-2.46-2.4-2.52-6.34-0.12-8.8c2.4-2.47,6.34-2.52,8.8-0.12c5.06,4.92,9.96,10.12,14.57,15.43c2.25,2.6,1.97,6.53-0.63,8.78
					c-1.31,1.14-2.96,1.63-4.56,1.5C1612.7,850.01,1611.17,849.3,1610.05,848.01z M1571.21,812.18c-5.4-3.96-11.03-7.74-16.74-11.24
					c-2.93-1.79-3.86-5.63-2.07-8.56c1.79-2.93,5.62-3.86,8.56-2.07c6.01,3.67,11.94,7.66,17.62,11.83c2.77,2.04,3.37,5.93,1.33,8.7
					c-1.32,1.8-3.43,2.68-5.5,2.52C1573.29,813.28,1572.19,812.89,1571.21,812.18z M1342.74,776.92c-1.18-3.23,0.49-6.8,3.72-7.98
					c6.62-2.41,13.43-4.56,20.25-6.4c3.32-0.89,6.74,1.07,7.63,4.39c0.89,3.32-1.07,6.73-4.39,7.63
					c-6.47,1.74-12.94,3.79-19.23,6.08c-0.86,0.31-1.75,0.43-2.61,0.36C1345.75,780.81,1343.6,779.29,1342.74,776.92z
					 M1525.43,785.86c-6.14-2.66-12.47-5.09-18.81-7.22c-3.26-1.09-5.02-4.62-3.93-7.88c1.09-3.26,4.62-5,7.88-3.92
					c6.68,2.24,13.35,4.8,19.81,7.6c3.15,1.37,4.6,5.03,3.23,8.19c-1.08,2.5-3.62,3.93-6.19,3.73
					C1526.75,786.31,1526.08,786.14,1525.43,785.86z M1395.15,762.86c-0.42-3.41,2-6.52,5.41-6.95c6.99-0.87,14.11-1.44,21.16-1.72
					c3.44-0.15,6.33,2.55,6.46,5.98c0.13,3.43-2.54,6.33-5.98,6.46c-6.7,0.26-13.47,0.81-20.11,1.63c-0.42,0.05-0.84,0.06-1.25,0.03
					C1397.95,768.08,1395.52,765.85,1395.15,762.86z M1474.92,770.44c-6.58-1.22-13.29-2.17-19.96-2.83
					c-3.42-0.34-5.92-3.38-5.59-6.81c0.33-3.38,3.31-5.86,6.67-5.6c0.04,0,0.09,0.01,0.13,0.01c7.02,0.69,14.09,1.69,21.01,2.98
					c3.38,0.63,5.61,3.88,4.98,7.26c-0.59,3.16-3.46,5.31-6.59,5.07C1475.36,770.51,1475.14,770.48,1474.92,770.44z"/>
				<path class="st2" d="M1308.56,799.61c1.22,0.09,2.49-0.17,3.62-0.84c2.77-1.62,5.62-3.22,8.47-4.74
					c3.03-1.62,4.18-5.39,2.56-8.42c-1.62-3.03-5.39-4.19-8.42-2.56c-3,1.6-5.99,3.27-8.91,4.98c-2.96,1.74-3.96,5.55-2.22,8.52
					C1304.74,798.38,1306.6,799.46,1308.56,799.61z"/>
			</g>
			<g class="st1">
				<path class="st2" d="M1195.34,951.95c3,0.23,5.8-1.74,6.53-4.75c0.75-3.12,1.58-6.28,2.46-9.38c0.94-3.31-0.98-6.75-4.28-7.69
					c-3.32-0.94-6.75,0.98-7.69,4.28c-0.93,3.27-1.8,6.59-2.59,9.88c-0.8,3.34,1.25,6.7,4.6,7.51
					C1194.69,951.87,1195.02,951.92,1195.34,951.95z"/>
				<path class="st2" d="M1399.9,1249.31c-3.41-0.43-5.83-3.55-5.39-6.96c0.43-3.41,3.55-5.82,6.96-5.39
					c6.49,0.82,13.12,1.38,19.78,1.67c3.42,0.14,6.1,3.06,5.95,6.49s-3.06,6.1-6.49,5.95c-2.88-0.13-5.76-0.3-8.61-0.52
					C1408.02,1250.24,1403.92,1249.82,1399.9,1249.31z M1447.85,1244.62c-0.32-3.42,2.2-6.45,5.63-6.77
					c6.57-0.61,13.19-1.5,19.67-2.65c3.38-0.61,6.62,1.65,7.22,5.04c0.6,3.38-1.65,6.62-5.04,7.22c-6.82,1.21-13.79,2.15-20.7,2.79
					c-0.36,0.03-0.71,0.04-1.06,0.01C1450.6,1250.03,1448.14,1247.69,1447.85,1244.62z M1366.62,1242.75
					c-6.69-1.8-13.39-3.92-19.92-6.28c-3.23-1.17-4.9-4.74-3.73-7.98c1.17-3.23,4.74-4.9,7.98-3.73c6.2,2.25,12.56,4.26,18.92,5.97
					c3.32,0.9,5.29,4.31,4.39,7.63c-0.79,2.94-3.56,4.81-6.48,4.59C1367.39,1242.91,1367,1242.85,1366.62,1242.75z M1500.42,1235.23
					c-1.06-3.27,0.73-6.78,4-7.84c6.27-2.03,12.53-4.36,18.6-6.91c3.17-1.34,6.82,0.15,8.15,3.33c1.33,3.17-0.16,6.82-3.32,8.15
					c-6.39,2.69-12.98,5.14-19.58,7.28c-0.8,0.26-1.61,0.35-2.4,0.29C1503.42,1239.33,1501.22,1237.7,1500.42,1235.23z
					 M1315.7,1222.74c-6.12-3.23-12.19-6.76-18.04-10.51c-2.9-1.85-3.74-5.7-1.89-8.6c1.85-2.9,5.7-3.74,8.6-1.89
					c5.56,3.56,11.32,6.91,17.14,9.98c3.04,1.6,4.21,5.37,2.6,8.41c-1.19,2.27-3.59,3.49-5.99,3.31
					C1317.3,1223.38,1316.48,1223.15,1315.7,1222.74z M1270.4,1192.06c-5.28-4.5-10.44-9.27-15.32-14.19
					c-2.42-2.44-2.41-6.38,0.03-8.81c2.44-2.43,6.38-2.41,8.8,0.03c4.64,4.67,9.54,9.21,14.56,13.48c2.62,2.23,2.93,6.16,0.7,8.78
					c-1.34,1.58-3.3,2.32-5.22,2.17C1272.69,1193.42,1271.44,1192.94,1270.4,1192.06z M1232.87,1152.22
					c-4.18-5.55-8.17-11.33-11.86-17.19c-1.83-2.91-0.96-6.75,1.95-8.59c2.91-1.84,6.75-0.96,8.59,1.95
					c3.51,5.57,7.3,11.06,11.27,16.33c2.07,2.75,1.52,6.65-1.22,8.72c-1.26,0.95-2.77,1.35-4.22,1.24
					C1235.64,1154.55,1233.99,1153.71,1232.87,1152.22z M1204.92,1105.16c-2.87-6.32-5.49-12.84-7.81-19.38
					c-1.15-3.24,0.55-6.8,3.79-7.95c3.23-1.15,6.8,0.55,7.95,3.79c2.2,6.2,4.7,12.4,7.42,18.4c1.42,3.13,0.03,6.82-3.1,8.24
					c-0.99,0.45-2.03,0.62-3.04,0.54C1207.92,1108.62,1205.89,1107.3,1204.92,1105.16z M1187.98,1053.07
					c-1.4-6.78-2.52-13.72-3.35-20.61c-0.41-3.41,2.03-6.51,5.44-6.92c3.4-0.41,6.51,2.03,6.92,5.44
					c0.78,6.55,1.85,13.13,3.18,19.58c0.69,3.37-1.47,6.66-4.84,7.35c-0.59,0.12-1.17,0.16-1.74,0.11
					C1190.9,1057.81,1188.55,1055.85,1187.98,1053.07z M1182.9,998.59c0.08-5.1,0.32-10.27,0.72-15.35c0.14-1.84,0.3-3.67,0.49-5.5
					c0.34-3.42,3.35-5.99,6.81-5.58c3.42,0.34,5.92,3.39,5.58,6.81c-0.17,1.74-0.33,3.48-0.46,5.23c-0.37,4.83-0.6,9.74-0.68,14.59
					c-0.06,3.44-2.89,6.18-6.32,6.12c-0.13,0-0.26-0.01-0.39-0.02C1185.38,1004.64,1182.85,1001.9,1182.9,998.59z"/>
				<path class="st2" d="M1554.63,1217.46c1.23,0.1,2.51-0.17,3.65-0.85c2.9-1.72,5.82-3.53,8.67-5.39c2.88-1.87,3.7-5.73,1.82-8.61
					c-1.88-2.88-5.73-3.7-8.61-1.82c-2.71,1.76-5.48,3.49-8.23,5.12c-2.96,1.75-3.93,5.57-2.18,8.53
					C1550.83,1216.24,1552.68,1217.31,1554.63,1217.46z"/>
			</g>
			<g>
				<path class="st2" d="M1581.14,1114.07c0.86-0.9,1.05-2.24,0.48-3.34l-16.26-31.46c8.38-14.26,14.55-29.95,18.04-46.61
					l33.17-12.33c1.16-0.43,1.92-1.56,1.89-2.8l-1.01-42.47c-0.03-1.24-0.84-2.33-2.03-2.7l-33.72-10.74
					c-4.27-16.47-11.18-31.86-20.23-45.7l14.75-32.2c0.52-1.13,0.26-2.46-0.64-3.32l-30.74-29.31c-0.9-0.86-2.24-1.05-3.34-0.48
					l-31.46,16.26c-14.26-8.38-29.95-14.55-46.61-18.04l-12.33-33.17c-0.43-1.16-1.56-1.93-2.8-1.9l-42.47,1.01
					c-1.24,0.03-2.33,0.84-2.7,2.03l-10.74,33.72c-16.47,4.27-31.86,11.18-45.7,20.23l-32.2-14.75c-1.13-0.52-2.46-0.26-3.32,0.64
					l-29.31,30.74c-0.86,0.9-1.05,2.24-0.48,3.34l16.26,31.46c-8.38,14.26-14.55,29.95-18.04,46.61l-33.17,12.33
					c-1.16,0.43-1.92,1.56-1.9,2.8l1.01,42.47c0.03,1.24,0.84,2.33,2.03,2.7l33.72,10.74c4.27,16.47,11.18,31.86,20.23,45.7
					l-14.75,32.2c-0.52,1.13-0.26,2.46,0.64,3.32l30.74,29.31c0.9,0.86,2.24,1.05,3.34,0.48l31.46-16.26
					c14.26,8.38,29.95,14.55,46.61,18.04l12.33,33.17c0.43,1.16,1.56,1.92,2.8,1.89l42.47-1.01c1.24-0.03,2.33-0.84,2.7-2.03
					l10.74-33.72c16.47-4.27,31.86-11.18,45.7-20.23l32.2,14.75c1.13,0.52,2.46,0.26,3.32-0.64L1581.14,1114.07z"/>
				<linearGradient id="SVGID_2_" gradientUnits="userSpaceOnUse" x1="1388.8008" y1="1000.7303" x2="1474.2053" y2="1000.7303">
					<stop  offset="0" style="stop-color:#DAE3FE"/>
					<stop  offset="1" style="stop-color:#E9EFFD"/>
				</linearGradient>
				<path class="st3" d="M1422.04,1042.37c-22.96-5.22-37.39-28.14-32.17-51.1c2.53-11.12,9.24-20.59,18.89-26.67
					c9.65-6.08,21.09-8.03,32.21-5.5c22.96,5.22,37.39,28.14,32.17,51.1c-4.75,20.89-24.15,34.72-44.9,33.11
					C1426.18,1043.15,1424.11,1042.84,1422.04,1042.37z M1414.06,973.03c-7.4,4.66-12.54,11.92-14.48,20.45
					c-4,17.6,7.06,35.18,24.67,39.18c17.61,4.01,35.18-7.06,39.18-24.67c4-17.6-7.06-35.18-24.67-39.18c-1.6-0.36-3.2-0.6-4.8-0.73
					C1427,967.55,1420.08,969.25,1414.06,973.03z"/>
				<linearGradient id="SVGID_3_" gradientUnits="userSpaceOnUse" x1="1325.9147" y1="1000.0608" x2="1535.8904" y2="1000.0608">
					<stop  offset="0" style="stop-color:#DAE3FE"/>
					<stop  offset="1" style="stop-color:#E9EFFD"/>
				</linearGradient>
				<path class="st4" d="M1422.61,1104.73c3.56,0.28,7.16,0.37,10.78,0.29l0,0c1.14-0.03,2.28-0.07,3.42-0.14
					c5.62-0.31,11.2-1.08,16.66-2.27c0.07-0.02,0.15-0.03,0.22-0.05c0.21-0.05,0.42-0.09,0.63-0.14c0.41-0.09,0.82-0.19,1.23-0.29
					c1.08-0.26,1.82-1.18,1.9-2.23c0.02-0.25,0-0.52-0.06-0.78c-0.32-1.34-1.67-2.16-3-1.84c-6.88,1.66-13.98,2.58-21.12,2.75
					c-35.43,0.85-67.05-16.93-85.47-44.38c-10.25-15.26-16.42-33.52-16.88-53.22c-0.08-3.46,0.01-6.89,0.27-10.29
					c1.77-22.88,11.28-44.27,27.33-61.1c18.43-19.33,43.29-30.33,70-30.96c55.15-1.31,101.05,42.48,102.36,97.6
					c0.08,3.4-0.01,6.79-0.27,10.16c-1.13,14.59-5.44,28.78-12.68,41.52c-0.19,0.33-0.29,0.68-0.32,1.04
					c-0.07,0.93,0.39,1.87,1.25,2.36c1.2,0.68,2.72,0.26,3.4-0.94c7.59-13.38,12.12-28.27,13.31-43.59
					c0.27-3.53,0.37-7.09,0.29-10.66c-1.38-57.88-49.6-103.84-107.45-102.46c-28.04,0.67-54.13,12.21-73.49,32.51
					c-16.85,17.67-26.83,40.13-28.69,64.14c-0.28,3.57-0.37,7.17-0.29,10.8c0.67,28.04,12.21,54.14,32.51,73.49
					C1376.12,1092.89,1398.59,1102.87,1422.61,1104.73z"/>
			</g>
		</g>
		<g>
			<g class="st1">
				<path class="st2" d="M1868.63,1232.88c1.66,0.13,3.27-0.84,3.89-2.47c1.16-3.05,2.24-6.18,3.21-9.3
					c0.63-2.03-0.5-4.18-2.52-4.82c-2.03-0.64-4.18,0.5-4.82,2.52c-0.93,2.97-1.96,5.95-3.06,8.87c-0.75,1.98,0.25,4.2,2.23,4.96
					C1867.91,1232.78,1868.27,1232.86,1868.63,1232.88z"/>
				<path class="st2" d="M1876.15,1204.33c-2.09-0.38-3.48-2.38-3.1-4.47c0.95-5.27,1.65-10.66,2.06-16
					c0.09-1.13,0.16-2.26,0.22-3.39c0.12-2.12,1.94-3.74,4.06-3.62c2,0.19,3.74,1.94,3.62,4.06c-0.07,1.19-0.15,2.37-0.24,3.55
					c-0.43,5.6-1.16,11.25-2.16,16.78c-0.35,1.96-2.13,3.3-4.08,3.15C1876.41,1204.37,1876.28,1204.36,1876.15,1204.33z
					 M1875.24,1160.94c-0.43-6.48-1.26-13-2.47-19.36c-0.4-2.09,0.97-4.1,3.06-4.5c2.08-0.39,4.1,0.97,4.5,3.06
					c1.27,6.67,2.15,13.5,2.59,20.3c0.14,2.12-1.47,3.95-3.59,4.09c-0.19,0.01-0.37,0.01-0.55-0.01
					C1876.9,1164.38,1875.37,1162.87,1875.24,1160.94z M1867.92,1122.66c-2-6.17-4.41-12.28-7.16-18.17
					c-0.9-1.92-0.07-4.21,1.85-5.11c1.93-0.9,4.21-0.07,5.11,1.85c2.89,6.17,5.41,12.58,7.51,19.05c0.65,2.02-0.45,4.19-2.47,4.84
					c-0.49,0.16-0.99,0.21-1.48,0.18C1869.77,1125.19,1868.41,1124.19,1867.92,1122.66z M1851.41,1087.35
					c-3.46-5.5-7.29-10.84-11.38-15.86c-1.34-1.65-1.1-4.07,0.55-5.41c1.64-1.34,4.07-1.1,5.41,0.55
					c4.3,5.27,8.31,10.86,11.94,16.63c1.13,1.8,0.59,4.17-1.21,5.3c-0.73,0.45-1.54,0.64-2.34,0.58
					C1853.2,1089.05,1852.08,1088.42,1851.41,1087.35z M1826.78,1057.14c-4.69-4.49-9.7-8.74-14.89-12.62
					c-1.7-1.27-2.05-3.68-0.78-5.38c1.27-1.7,3.68-2.05,5.38-0.78c5.44,4.07,10.7,8.52,15.61,13.23c1.53,1.47,1.58,3.9,0.12,5.44
					c-0.83,0.87-1.97,1.26-3.08,1.17C1828.29,1058.13,1827.45,1057.78,1826.78,1057.14z M1795.56,1033.82
					c-5.64-3.22-11.52-6.11-17.51-8.6c-1.96-0.81-2.89-3.07-2.07-5.03c0.82-1.96,3.06-2.89,5.03-2.07
					c6.27,2.61,12.45,5.64,18.36,9.02c1.84,1.05,2.49,3.4,1.43,5.24c-0.76,1.33-2.2,2.04-3.64,1.93
					C1796.62,1034.27,1796.07,1034.11,1795.56,1033.82z M1759.61,1018.85c-6.23-1.73-12.66-3.09-19.1-4.04
					c-2.1-0.31-3.55-2.27-3.24-4.37c0.31-2.1,2.26-3.52,4.37-3.24c6.75,1,13.49,2.43,20.02,4.24c2.05,0.57,3.25,2.69,2.68,4.73
					c-0.5,1.8-2.2,2.94-4,2.81C1760.1,1018.96,1759.85,1018.92,1759.61,1018.85z M1697.33,1010.44c-0.21-2.11,1.33-3.99,3.45-4.2
					c5.85-0.58,11.83-0.85,17.76-0.8c0.9,0,1.8,0.02,2.7,0.04c2.11-0.01,3.8,1.82,3.75,3.94c-0.05,2.12-1.82,3.8-3.94,3.75
					c-0.84-0.02-1.69-0.04-2.55-0.04c-5.68-0.05-11.38,0.21-16.96,0.76c-0.23,0.02-0.46,0.02-0.68,0.01
					C1699.04,1013.75,1697.52,1012.32,1697.33,1010.44z"/>
			</g>
			<g class="st1">
				<path class="st2" d="M1702.1,1336.88c-6.67-0.6-13.37-1.62-19.9-3.02c-2.07-0.45-3.4-2.49-2.95-4.57
					c0.45-2.08,2.5-3.38,4.57-2.95c6.23,1.34,12.61,2.3,18.98,2.88c2.11,0.19,3.67,2.06,3.48,4.17c-0.19,2.1-2.03,3.65-4.12,3.49
					C1702.14,1336.88,1702.12,1336.88,1702.1,1336.88z M1718.28,1333.75c-0.06-2.12,1.61-3.89,3.73-3.96
					c6.39-0.19,12.82-0.77,19.14-1.72c2.09-0.31,4.06,1.13,4.37,3.23c0.32,2.1-1.13,4.06-3.23,4.38c-6.62,1-13.36,1.61-20.05,1.8
					c-0.14,0-0.28,0-0.42-0.01C1719.89,1337.32,1718.34,1335.74,1718.28,1333.75z M1662.8,1328.44c-6.33-2.2-12.59-4.8-18.59-7.74
					c-1.91-0.93-2.7-3.24-1.76-5.15c0.93-1.91,3.23-2.69,5.14-1.76c5.72,2.8,11.69,5.29,17.73,7.39c2.01,0.7,3.07,2.89,2.37,4.89
					c-0.59,1.69-2.23,2.71-3.93,2.57C1663.45,1328.62,1663.12,1328.55,1662.8,1328.44z M1757.25,1328.78
					c-0.57-2.04,0.62-4.17,2.67-4.74c6.15-1.72,12.26-3.84,18.15-6.29c1.96-0.81,4.21,0.11,5.03,2.07c0.82,1.96-0.11,4.21-2.07,5.03
					c-6.18,2.58-12.58,4.8-19.03,6.6c-0.45,0.12-0.9,0.16-1.33,0.13C1759.09,1331.46,1757.7,1330.38,1757.25,1328.78z
					 M1626.72,1310.76c-5.61-3.65-11.05-7.68-16.18-11.98c-1.63-1.36-1.84-3.79-0.47-5.42c1.36-1.63,3.79-1.84,5.42-0.47
					c4.89,4.11,10.08,7.95,15.43,11.43c1.78,1.16,2.28,3.54,1.12,5.32c-0.79,1.22-2.16,1.84-3.52,1.73
					C1627.9,1311.32,1627.28,1311.12,1626.72,1310.76z M1595.93,1284.93c-4.58-4.9-8.9-10.12-12.84-15.51
					c-1.25-1.71-0.88-4.12,0.83-5.37c1.71-1.25,4.12-0.88,5.37,0.83c3.76,5.14,7.89,10.12,12.25,14.79
					c1.45,1.55,1.37,3.98-0.18,5.44c-0.82,0.77-1.89,1.1-2.92,1.02C1597.51,1286.07,1596.61,1285.66,1595.93,1284.93z
					 M1572.2,1252.47c-3.28-5.85-6.22-11.96-8.75-18.14c-0.8-1.97,0.14-4.21,2.1-5.02c1.96-0.8,4.21,0.14,5.01,2.1
					c2.41,5.9,5.22,11.72,8.35,17.3c1.04,1.85,0.38,4.2-1.48,5.23c-0.69,0.39-1.44,0.54-2.17,0.48
					C1574.03,1254.33,1572.86,1253.64,1572.2,1252.47z"/>
				<path class="st2" d="M1797.07,1316.39c0.74,0.06,1.5-0.1,2.2-0.49c2.86-1.63,5.68-3.35,8.4-5.11c1.78-1.16,2.29-3.54,1.13-5.32
					c-1.16-1.77-3.54-2.28-5.32-1.13c-2.59,1.68-5.28,3.32-8.01,4.88c-1.85,1.05-2.49,3.4-1.44,5.24
					C1794.68,1315.61,1795.84,1316.3,1797.07,1316.39z"/>
			</g>
			<g>
				<path class="st2" d="M1817.33,1246.05c0.57-0.6,0.7-1.5,0.32-2.24l-10.88-21.05c5.61-9.54,9.74-20.04,12.07-31.19l22.2-8.25
					c0.78-0.29,1.29-1.04,1.27-1.87l-0.68-28.42c-0.02-0.83-0.56-1.56-1.35-1.81l-22.57-7.19c-2.86-11.02-7.48-21.32-13.54-30.58
					l9.87-21.54c0.35-0.76,0.17-1.65-0.43-2.22l-20.57-19.62c-0.6-0.57-1.5-0.7-2.24-0.32l-21.05,10.88
					c-9.54-5.61-20.04-9.74-31.19-12.07l-8.25-22.2c-0.29-0.78-1.04-1.29-1.87-1.27l-28.42,0.68c-0.83,0.02-1.56,0.56-1.81,1.36
					l-7.19,22.57c-11.02,2.86-21.32,7.48-30.58,13.54l-21.54-9.87c-0.76-0.35-1.65-0.17-2.22,0.43l-19.62,20.57
					c-0.57,0.6-0.7,1.5-0.32,2.24l10.88,21.05c-5.61,9.54-9.74,20.04-12.07,31.19l-22.2,8.25c-0.78,0.29-1.29,1.04-1.27,1.87
					l0.68,28.42c0.02,0.83,0.56,1.56,1.36,1.81l22.57,7.19c2.86,11.02,7.48,21.32,13.54,30.58l-9.87,21.54
					c-0.35,0.76-0.17,1.65,0.43,2.22l20.57,19.62c0.6,0.57,1.5,0.7,2.24,0.32l21.05-10.88c9.54,5.61,20.04,9.74,31.19,12.07
					l8.25,22.2c0.29,0.78,1.04,1.29,1.87,1.27l28.42-0.68c0.83-0.02,1.56-0.56,1.81-1.36l7.19-22.56
					c11.02-2.86,21.32-7.48,30.58-13.54l21.54,9.87c0.76,0.35,1.65,0.17,2.22-0.43L1817.33,1246.05z"/>
				<linearGradient id="SVGID_4_" gradientUnits="userSpaceOnUse" x1="1688.1088" y1="1170.2153" x2="1746.2914" y2="1170.2153">
					<stop  offset="0" style="stop-color:#DAE3FE"/>
					<stop  offset="1" style="stop-color:#E9EFFD"/>
				</linearGradient>
				<path class="st5" d="M1710.76,1198.57c-7.58-1.72-14.03-6.29-18.17-12.87c-4.14-6.57-5.47-14.37-3.75-21.94
					c3.55-15.64,19.14-25.45,34.81-21.92c15.64,3.56,25.47,19.17,21.91,34.81c-1.72,7.58-6.29,14.03-12.86,18.17
					c-5.34,3.36-11.49,4.87-17.68,4.39C1713.6,1199.11,1712.18,1198.89,1710.76,1198.57z M1696.34,1165.47
					c-1.27,5.57-0.29,11.31,2.76,16.14c3.04,4.83,7.79,8.2,13.36,9.46l0,0c5.57,1.26,11.3,0.29,16.14-2.76
					c4.84-3.04,8.19-7.79,9.46-13.36c2.61-11.5-4.61-22.99-16.12-25.61c-1.04-0.23-2.08-0.39-3.11-0.47
					C1708.44,1148.07,1698.72,1155,1696.34,1165.47z"/>
				<linearGradient id="SVGID_5_" gradientUnits="userSpaceOnUse" x1="1644.37" y1="1169.7565" x2="1789.2356" y2="1169.7565">
					<stop  offset="0" style="stop-color:#DAE3FE"/>
					<stop  offset="1" style="stop-color:#E9EFFD"/>
				</linearGradient>
				<path class="st6" d="M1711.16,1241.97c2.43,0.19,4.88,0.25,7.36,0.2c4.93-0.12,9.85-0.73,14.64-1.84
					c0.21-0.05,0.43-0.1,0.64-0.15c1.66-0.4,2.81-1.82,2.94-3.44c0.03-0.39,0-0.8-0.1-1.2c-0.5-2.06-2.58-3.33-4.64-2.84
					c-4.46,1.07-9.06,1.67-13.67,1.78l0,0c-0.25,0.01-0.51,0.01-0.76,0.01c-10.91,0.15-21.44-2.41-30.84-7.36
					c-5.1-2.68-9.88-6.07-14.2-10.12c-0.04-0.03-0.07-0.07-0.11-0.1c-0.11-0.1-0.21-0.2-0.32-0.3
					c-12.51-11.93-19.63-28.03-20.04-45.32c-0.05-2.24,0.01-4.46,0.18-6.66c1.15-14.81,7.3-28.66,17.69-39.56
					c11.94-12.51,28.03-19.63,45.31-20.04c17.28-0.4,33.7,5.94,46.22,17.87c12.51,11.93,19.63,28.03,20.04,45.32
					c0.05,2.2-0.01,4.39-0.18,6.57c-0.73,9.45-3.52,18.63-8.21,26.88c-0.29,0.51-0.45,1.05-0.49,1.6c-0.11,1.44,0.6,2.88,1.93,3.64
					c1.85,1.04,4.19,0.4,5.24-1.45c5.24-9.23,8.36-19.5,9.18-30.07c0.19-2.44,0.26-4.89,0.2-7.36c-0.46-19.34-8.42-37.35-22.43-50.7
					c-14-13.35-32.35-20.46-51.71-19.99c-19.34,0.46-37.35,8.42-50.7,22.43c-11.63,12.19-18.51,27.68-19.79,44.25
					c-0.19,2.46-0.26,4.95-0.2,7.45C1645.28,1208.92,1674.59,1239.14,1711.16,1241.97z"/>
			</g>
		</g>
	</g>
	<g>
		<path class="st2" d="M873.28,679.52c-5.13-12.85,9.46-24.66,21.08-17.14c117.94,76.3,411.49,315.61,441.16,821.69
			c37.21,634.94,207.81,838.09,394.01,947.08c0,0-233.02-24.82-413.99-229.52C871.19,1699.02,964.49,907.94,873.28,679.52z"/>
		<path class="st7" d="M985.21,859.61c25.17,66.86,49.01,134.19,70.36,202.29c21.7,67.97,41.33,136.58,58.79,205.69
			c17.19,69.18,33.09,138.66,46.01,208.72c13.23,70,23.45,140.49,33.45,211.29c10.4,70.71,20.47,142,37.86,212.48
			c17.3,70.35,43.27,139.76,81.16,202.37c9.46,15.6,19.24,31.09,29.84,45.85c10.33,14.96,21.32,29.47,32.57,43.77
			c22.65,28.5,47.22,55.55,73.69,80.65c53.08,50.08,113.74,92.03,178.19,125.16c6.78,3.49,15.11,0.81,18.6-5.97
			c3.42-6.66,0.91-14.81-5.61-18.4l-0.05-0.03c-15.45-8.5-30.78-17.17-45.67-26.49c-7.52-4.54-14.83-9.41-22.22-14.13
			c-7.2-5-14.61-9.72-21.65-14.94c-28.52-20.39-55.57-42.76-80.83-67.02c-50.71-48.21-94.47-104.26-130.77-164
			c-17.82-30.09-33.39-61.44-46.49-93.87c-13.08-32.45-23.69-65.96-32.39-100.09c-17.42-68.31-27.97-138.79-38.87-209.43
			c-11-70.63-22.53-141.54-36.97-211.85c-7.12-35.17-14.88-70.22-23.25-105.1c-4.09-17.47-8.51-34.85-12.91-52.24
			c-4.56-17.35-9.22-34.67-14.01-51.94c-19.31-69.08-40.72-137.54-64.26-205.22c-23.87-67.57-49.52-134.49-77.7-200.3
			c-0.81-1.88-2.98-2.75-4.86-1.95C985.39,855.68,984.52,857.77,985.21,859.61z"/>
	</g>
	<g>
		<g>
			<path class="st8" d="M1128.32,2655.81c-8.16,24.15-38.32,32.12-57.56,15.4c-106.16-92.24-382.73-380.19-366.74-865.42
				c13.5-409.76-18.12-633.23-39.5-733.68c-4.52-21.24,20.7-35.91,36.96-21.5C880.79,1209.53,1423.83,1780.79,1128.32,2655.81z"/>
			<path class="st7" d="M1093.82,2656.76c-0.52,0.36-1.08,0.68-1.68,0.94c-5.03,2.21-10.9-0.07-13.12-5.1
				c-2.51-5.7-251.14-576.72-258.1-1147.32c-0.07-5.49,4.33-10,9.83-10.07c5.5-0.07,10,4.33,10.07,9.83
				c6.91,566.44,253.92,1133.87,256.41,1139.54C1099.19,2649.02,1097.65,2654.1,1093.82,2656.76z"/>
		</g>
	</g>
	<g>
		<g>
			<linearGradient id="SVGID_6_" gradientUnits="userSpaceOnUse" x1="2017.0571" y1="1135.3097" x2="1705.8447" y2="4039.9597">
				<stop  offset="0" style="stop-color:#4F52FF"/>
				<stop  offset="1" style="stop-color:#4042E2"/>
			</linearGradient>
			<path class="st9" d="M3045.99,1511.06L3020.83,2576l-3.91,164.7c0,21.53-17.65,38.95-39.18,38.95H860.28
				c-21.53,0-39.18-17.43-39.18-38.95l-2.39-164.8l-15.23-1051.89c0-21.53,25.36-63.51,71.82-60.34l2069.42-53.55
				c27.02-0.67,53.16,9.71,72.29,28.81C3036.15,1457.99,3046.63,1484.07,3045.99,1511.06z"/>
			<path class="st10" d="M2965.14,2707.6c0,20.08-16.79,36.51-37.3,36.51H910.73c-20.52,0-37.3-16.43-37.3-36.51l-16.78-1135.57
				c0-20.08,24.15-59.28,68.4-56.33l1971.34-49.97c25.74-0.65,50.63,9.05,68.86,26.85c18.23,17.8,28.2,42.14,27.59,67.33
				L2965.14,2707.6z"/>
			<g>
				<path class="st11" d="M2572.7,1643.04c-0.51,18.71-10.45,34.1-22.22,34.17l-699.66,4.16c-13.25,0.08-23.94-16.31-23.85-36.21
					l0,0c0.09-19.92,10.95-36.43,24.22-36.43h701.1C2564.09,1608.73,2573.21,1624.31,2572.7,1643.04L2572.7,1643.04z"/>
				<path class="st11" d="M2565.15,2451.07c-0.51,18.71-10.3,33.46-21.91,33.53l-689.87,3.84c-13.06,0.08-23.6-15.19-23.51-35.09
					l0,0c0.09-19.92,10.79-35.31,23.88-35.31h691.29C2556.66,2418.04,2565.66,2432.34,2565.15,2451.07L2565.15,2451.07z"/>
				<path class="st11" d="M2565.22,2321.67c-0.51,18.71-10.35,33.33-22,33.4l-692.64,3.78c-13.12,0.08-23.7-14.97-23.61-34.87l0,0
					c0.09-19.92,10.84-35.09,23.98-35.09h694.07C2556.69,2288.9,2565.73,2302.94,2565.22,2321.67L2565.22,2321.67z"/>
				<path class="st11" d="M2572.63,1786.52c-0.51,15.63-17.79,28.43-38.63,28.61l-667.39,5.57c-22.02,0.18-39.78-12.71-39.63-28.81
					l0.02-1.81c0.15-16.12,18.19-29.31,40.26-29.44l668.58-3.99c20.88-0.12,37.36,12.47,36.86,28.12L2572.63,1786.52z"/>
				<path class="st11" d="M2570.11,1926.98c-0.6,15.49-17.92,28.17-38.71,28.33l-665.58,5.03c-21.96,0.17-39.59-12.63-39.34-28.59
					l0.03-1.8c0.25-15.98,18.32-29.03,40.32-29.15l666.75-3.47c20.82-0.11,37.19,12.39,36.59,27.9L2570.11,1926.98z"/>
			</g>
			<path class="st2" d="M2926.63,2750.95h-226.89c-1.59,0-2.87-1.28-2.87-2.87c0-1.59,1.28-2.87,2.87-2.87h226.89
				c27.91,0,51.5-25.94,51.5-56.65v-698.14c0-1.59,1.28-2.87,2.87-2.87c1.59,0,2.87,1.28,2.87,2.87v698.14
				C2983.87,2722.38,2957.66,2750.95,2926.63,2750.95z"/>
			<path class="st2" d="M860.13,1990.42c-1.59,0-2.87-1.28-2.87-2.87v-403.6c0-41.5,30.99-72.8,72.08-72.8h180.47
				c1.59,0,2.87,1.28,2.87,2.87s-1.28,2.87-2.87,2.87H929.34c-38.44,0-66.34,28.21-66.34,67.06v403.6
				C863,1989.14,861.71,1990.42,860.13,1990.42z"/>
		</g>
		<path class="st7" d="M1732,2493.95H962.97c-6.6,0-12-5.4-12-12v-831.91c0-6.6,5.4-12,12-12H1732c6.6,0,12,5.4,12,12v831.91
			C1744,2488.55,1738.6,2493.95,1732,2493.95z"/>
		<g>
			<defs>
				<path id="SVGID_7_" d="M1731.69,2493.95H962.66c-6.6,0-12-5.4-12-12v-831.91c0-6.6,5.4-12,12-12h769.03c6.6,0,12,5.4,12,12
					v831.91C1743.69,2488.55,1738.29,2493.95,1731.69,2493.95z"/>
			</defs>
			<clipPath id="SVGID_8_">
				<use xlink:href="#SVGID_7_"  style="overflow:visible;"/>
			</clipPath>
			<g class="st12">
				<linearGradient id="SVGID_9_" gradientUnits="userSpaceOnUse" x1="1611.5173" y1="2071.1135" x2="1730.0409" y2="2466.5088">
					<stop  offset="0" style="stop-color:#09005D"/>
					<stop  offset="1" style="stop-color:#1A0F91"/>
				</linearGradient>
				<path class="st13" d="M1813.59,2460.47c-23.73-138.2-87.08-264.4-87.08-264.4l-82.94,287.57c0,0,1.43,3.24,3.81,10.45
					l138.1-0.29C1803.13,2493.77,1816.57,2477.87,1813.59,2460.47z"/>
				<linearGradient id="SVGID_10_" gradientUnits="userSpaceOnUse" x1="936.1293" y1="2196.4031" x2="1056.4174" y2="2597.6851">
					<stop  offset="0" style="stop-color:#09005D"/>
					<stop  offset="1" style="stop-color:#1A0F91"/>
				</linearGradient>
				<path class="st14" d="M1095.71,2494.1c9.09-32.47,16.07-53.37,16.07-53.37l-135.55-244.65c0,0-30.79,36.68-63.77,247.73
					c-4.11,26.32,15.5,50.3,42.14,50.3H1095.71z"/>
				<linearGradient id="SVGID_11_" gradientUnits="userSpaceOnUse" x1="2208.4966" y1="15.0091" x2="2053.5288" y2="432.5614">
					<stop  offset="0" style="stop-color:#FF928E"/>
					<stop  offset="1" style="stop-color:#FE7062"/>
				</linearGradient>
				<path class="st15" d="M1562.55,2494.1l-36.75-385.3c-164.18-60.67-371.18,7.23-371.18,7.23l-17.04,378.07H1562.55z"/>
				<g>
					<linearGradient id="SVGID_12_" gradientUnits="userSpaceOnUse" x1="1337.7329" y1="2057.959" x2="1355.7428" y2="2359.9688">
						<stop  offset="0" style="stop-color:#FEBBBA"/>
						<stop  offset="1" style="stop-color:#FF928E"/>
					</linearGradient>
					<path class="st16" d="M1262.17,1987.27l-3.08,101.68c-0.3,10.06,5.93,19.11,15.42,22.46c26,9.17,79.82,23.11,130.82,4.85
						c10.29-3.69,16.48-14.22,14.89-25.03l-15.29-103.96H1262.17z"/>
					<linearGradient id="SVGID_13_" gradientUnits="userSpaceOnUse" x1="1302.2501" y1="1816.7649" x2="1555.0808" y2="2154.103">
						<stop  offset="0" style="stop-color:#FEBBBA"/>
						<stop  offset="1" style="stop-color:#FF928E"/>
					</linearGradient>
					<path class="st17" d="M1210.18,1801.68c0,0,17.85,182.02,57.11,228.42c0,0,117.78,10.71,160.61-14.28
						c0,0,30.34-91.01,26.77-212.36c0,0,5.85-110.42-115.99-119.56C1195.91,1673.19,1210.18,1801.68,1210.18,1801.68z"/>
					<linearGradient id="SVGID_14_" gradientUnits="userSpaceOnUse" x1="1376.4596" y1="1761.1464" x2="1629.2894" y2="2098.4834">
						<stop  offset="0" style="stop-color:#FEBBBA"/>
						<stop  offset="1" style="stop-color:#FF928E"/>
					</linearGradient>
					<path class="st18" d="M1442.17,1858.78c0,0,10.71-32.12,28.55-32.12c17.85,0-3.57,85.66-28.55,85.66V1858.78z"/>
					<linearGradient id="SVGID_15_" gradientUnits="userSpaceOnUse" x1="1215.9769" y1="1881.4257" x2="1468.8069" y2="2218.7627">
						<stop  offset="0" style="stop-color:#FEBBBA"/>
						<stop  offset="1" style="stop-color:#FF928E"/>
					</linearGradient>
					<path class="st19" d="M1226.42,1867.22c0,0-14.94-30.38-32.62-27.98c-17.68,2.41,15.09,84.39,39.84,81.03L1226.42,1867.22z"/>
					<linearGradient id="SVGID_16_" gradientUnits="userSpaceOnUse" x1="1212.4923" y1="1933.1642" x2="1457.9268" y2="1933.1642">
						<stop  offset="0" style="stop-color:#09005D"/>
						<stop  offset="1" style="stop-color:#1A0F91"/>
					</linearGradient>
					<path class="st20" d="M1212.49,1824.4c0,0,14.01,175.09,61.83,236.16c4.39,5.6,10.74,8.86,17.43,9.22
						c24.41,1.3,86.81,3.62,121.99-4.14c8.76-1.93,15.97-8.77,18.85-18.13c5.12-16.64,9.7-29.88,9.96-35.74
						c1.19-27.15,7.39-102.41,15.38-205.01c-2.43-3.85-4.87-7.71-7.3-11.56c-2.21,23.73-16.74,174.81-39.76,178.31
						c-4.95,0.75-10.33-0.33-10.33-0.33c-13.96-2.82-18.24-13.82-27.95-20.97c-16.95-12.48-46.08-9.99-62.34,3.07
						c-6.75,5.42-11.02,12.46-22.83,17.48c-7.54,3.21-14.62,4.09-16.89,4c-16.82-0.71-33.56-66.9-42.95-157.01L1212.49,1824.4z"/>
					<linearGradient id="SVGID_17_" gradientUnits="userSpaceOnUse" x1="1336.9089" y1="2024.3538" x2="1336.9089" y2="1569.3984">
						<stop  offset="0" style="stop-color:#09005D"/>
						<stop  offset="1" style="stop-color:#1A0F91"/>
					</linearGradient>
					<path class="st21" d="M1406.48,1756.22c0,0-90.93,78.9-190.01,78.6c0,0-56.25-126.77,54.39-147.85
						c110.64-21.08,114.21,6.02,114.21,6.02s129.38-26.81,71.83,128.12L1406.48,1756.22z"/>
				</g>
				<linearGradient id="SVGID_18_" gradientUnits="userSpaceOnUse" x1="1102.7094" y1="2128.6621" x2="1230.4924" y2="2554.9475">
					<stop  offset="0" style="stop-color:#09005D"/>
					<stop  offset="1" style="stop-color:#1A0F91"/>
				</linearGradient>
				<path class="st22" d="M1095.35,2494.1h97.42l46.76-398.36c-128.02,11.64-263.29,100.34-263.29,100.34l100.71,244.36
					C1084.16,2457.93,1090.3,2476.06,1095.35,2494.1z"/>
				<linearGradient id="SVGID_19_" gradientUnits="userSpaceOnUse" x1="1515.6042" y1="2011.9265" x2="1655.4319" y2="2478.3926">
					<stop  offset="0" style="stop-color:#09005D"/>
					<stop  offset="1" style="stop-color:#1A0F91"/>
				</linearGradient>
				<path class="st23" d="M1650.57,2494.1c5.5-22.85,12.04-43.92,19.63-65.35l56.31-232.67
					c-112.19-87.64-287.65-108.13-287.65-108.13l65.58,406.15H1650.57z"/>
			</g>
		</g>
	</g>
</g>
</svg>
